<?xml version="1.0" encoding="UTF-8"?>
<svg width="18px" height="18px" viewBox="0 0 18 18" version="1.1" xmlns="http://www.w3.org/2000/svg" xmlns:xlink="http://www.w3.org/1999/xlink">
    <!-- Generator: Sketch 51.3 (57544) - http://www.bohemiancoding.com/sketch -->
    <title>Group 4</title>
    <desc>Created with Sketch.</desc>
    <defs>
        <path d="M8,3.41421356 L3.70710678,7.70710678 C3.31658249,8.09763107 2.68341751,8.09763107 2.29289322,7.70710678 C1.90236893,7.31658249 1.90236893,6.68341751 2.29289322,6.29289322 L8.29289322,0.292893219 C8.68341751,-0.0976310729 9.31658249,-0.0976310729 9.70710678,0.292893219 L15.7071068,6.29289322 C16.0976311,6.68341751 16.0976311,7.31658249 15.7071068,7.70710678 C15.3165825,8.09763107 14.6834175,8.09763107 14.2928932,7.70710678 L10,3.41421356 L10,17 C10,17.5522847 9.55228475,18 9,18 C8.44771525,18 8,17.5522847 8,17 L8,3.41421356 Z" id="path-1"></path>
    </defs>
    <g id="Index" stroke="none" stroke-width="1" fill="none" fill-rule="evenodd">
        <g id="Group-5">
            <rect id="boundaries" x="0" y="0" width="18" height="18"></rect>
            <mask id="mask-2" fill="white">
                <use xlink:href="#path-1"></use>
            </mask>
            <use id="Combined-Shape" fill="#FFFFFF" fill-rule="nonzero" xlink:href="#path-1"></use>
        </g>
    </g>
</svg>