<?xml version="1.0" encoding="UTF-8"?>
<svg width="14px" height="14px" viewBox="0 0 14 14" version="1.1" xmlns="http://www.w3.org/2000/svg" xmlns:xlink="http://www.w3.org/1999/xlink">
    <!-- Generator: Sketch 51.3 (57544) - http://www.bohemiancoding.com/sketch -->
    <title>Combined Shape</title>
    <desc>Created with Sketch.</desc>
    <defs>
        <path d="M25.4142136,24 L30.7071068,29.2928932 C31.0976311,29.6834175 31.0976311,30.3165825 30.7071068,30.7071068 C30.3165825,31.0976311 29.6834175,31.0976311 29.2928932,30.7071068 L24,25.4142136 L18.7071068,30.7071068 C18.3165825,31.0976311 17.6834175,31.0976311 17.2928932,30.7071068 C16.9023689,30.3165825 16.9023689,29.6834175 17.2928932,29.2928932 L22.5857864,24 L17.2928932,18.7071068 C16.9023689,18.3165825 16.9023689,17.6834175 17.2928932,17.2928932 C17.6834175,16.9023689 18.3165825,16.9023689 18.7071068,17.2928932 L24,22.5857864 L29.2928932,17.2928932 C29.6834175,16.9023689 30.3165825,16.9023689 30.7071068,17.2928932 C31.0976311,17.6834175 31.0976311,18.3165825 30.7071068,18.7071068 L25.4142136,24 Z" id="path-1"></path>
    </defs>
    <g id="Index" stroke="none" stroke-width="1" fill="none" fill-rule="evenodd">
        <g id="Desktop-Index-Testpage" transform="translate(-1161.000000, -1964.000000)">
            <g id="Services" transform="translate(0.000000, 1408.000000)">
                <g id="List-Expanded" transform="translate(152.000000, 189.000000)">
                    <g id="Li02:hover" transform="translate(0.000000, 326.000000)">
                        <g id="Close-Icon-Copy-6" transform="translate(992.000000, 24.000000)">
                            <mask id="mask-2" fill="white">
                                <use xlink:href="#path-1"></use>
                            </mask>
                            <use id="Combined-Shape" fill="#000000" fill-rule="nonzero" opacity="0.695708786" xlink:href="#path-1"></use>
                        </g>
                    </g>
                </g>
            </g>
        </g>
    </g>
</svg>