<?xml version="1.0" encoding="UTF-8"?>
<svg width="32px" height="32px" viewBox="0 0 32 32" version="1.1" xmlns="http://www.w3.org/2000/svg" xmlns:xlink="http://www.w3.org/1999/xlink">
    <!-- Generator: Sketch 51.3 (57544) - http://www.bohemiancoding.com/sketch -->
    <title>Controls</title>
    <desc>Created with Sketch.</desc>
    <defs>
        <linearGradient x1="50%" y1="0%" x2="50%" y2="100%" id="linearGradient-1">
            <stop stop-color="#FAFAFA" offset="0%"></stop>
            <stop stop-color="#FFFFFF" offset="100%"></stop>
        </linearGradient>
    </defs>
    <g id="Index" stroke="none" stroke-width="1" fill="none" fill-rule="evenodd">
        <g id="Desktop-Index-Testpage" transform="translate(-208.000000, -3852.000000)">
            <rect fill="#FFFFFF" x="0" y="0" width="1400" height="4641"></rect>
            <g id="Partners" transform="translate(0.000000, 3709.000000)">
                <g id="Background" fill="url(#linearGradient-1)">
                    <polygon id="Rectangle-7" points="0 0 700 0 1400 0 1400 288 0 288"></polygon>
                </g>
                <g id="Content" transform="translate(198.000000, 68.000000)">
                    <g id="Logos-&amp;-Controls" transform="translate(0.000000, 64.000000)">
                        <g id="Logos">
                            <rect id="Rectangle-10" x="0" y="0" width="1010" height="56"></rect>
                        </g>
                        <g id="Controls" transform="translate(10.000000, 11.000000)" opacity="0.454030797">
                            <g id="Shevron-Left-Big">
                                <rect id="Rectangle-5" x="0" y="0" width="32" height="32"></rect>
                                <path d="M21.3379295,23.5134117 C22.1589495,24.2523297 22.2255063,25.5169094 21.4865883,26.3379295 C20.7476703,27.1589495 19.4830906,27.2255063 18.6620705,26.4865883 L8.66207054,17.4865883 C7.77930982,16.6921036 7.77930982,15.3078964 8.66207054,14.5134117 L18.6620705,5.51341171 C19.4830906,4.77449367 20.7476703,4.84105049 21.4865883,5.66207054 C22.2255063,6.48309058 22.1589495,7.74767025 21.3379295,8.48658829 L12.9896942,16 L21.3379295,23.5134117 Z" id="Path-5" fill="#000000" fill-rule="nonzero" opacity="0.4"></path>
                            </g>
                        </g>
                    </g>
                </g>
            </g>
        </g>
    </g>
</svg>