<?xml version="1.0" encoding="UTF-8"?>
<svg width="24px" height="24px" viewBox="0 0 24 24" version="1.1" xmlns="http://www.w3.org/2000/svg" xmlns:xlink="http://www.w3.org/1999/xlink">
    <!-- Generator: Sketch 51.3 (57544) - http://www.bohemiancoding.com/sketch -->
    <title>Group 9</title>
    <desc>Created with Sketch.</desc>
    <defs>
        <rect id="path-1" x="0" y="0" width="1096" height="324"></rect>
        <path d="M13.0018152,18.5878177 L15.2934252,16.2962887 C15.6837309,15.9059968 16.3165415,15.9059968 16.7068473,16.2962887 C17.097153,16.6865807 17.097153,17.3193689 16.7068473,17.7096609 L12.7090859,21.707281 C12.3187802,22.097573 11.6859696,22.097573 11.2956639,21.707281 L7.29790254,17.7096609 C6.90759681,17.3193689 6.90759681,16.6865807 7.29790254,16.2962887 C7.68820827,15.9059968 8.32101888,15.9059968 8.71132461,16.2962887 L11.0029346,18.5878177 L11.0029346,12.0059496 C11.0029346,11.4539934 11.4503993,11.0065445 12.0023749,11.0065445 C12.5543506,11.0065445 13.0018152,11.4539934 13.0018152,12.0059496 L13.0018152,18.5878177 Z M10.0243064,2.05932832 C13.4642931,2.45552344 16.3463023,4.78453901 17.4799155,8.00832958 L17.9982351,8.00832971 C20.6140828,8.00628363 22.9294293,9.70003598 23.7195062,12.1936283 C24.5095832,14.6872206 23.5920658,17.4052105 21.4523009,18.9098399 C21.0007847,19.2273349 20.3773688,19.1187021 20.0598626,18.6672018 C19.7423563,18.2157015 19.8509929,17.5923077 20.3025092,17.2748127 C21.7290191,16.2717264 22.3406974,14.4597331 21.8139794,12.7973382 C21.2872615,11.1349434 19.7436971,10.0057751 17.9990169,10.0071395 L16.7397221,10.0071395 C16.2834193,10.0071395 15.8850546,9.69809885 15.7716435,9.25613014 C15.051322,6.44900198 12.6747279,4.37661086 9.79559235,4.04501091 C6.91645678,3.71341095 4.13093995,5.19126399 2.79128695,7.76113779 C1.45163396,10.3310116 1.83523632,13.4607824 3.75587207,15.6310851 C4.12166989,16.0444336 4.08311059,16.676046 3.66974746,17.0418309 C3.25638433,17.4076158 2.62474958,17.3690579 2.25895176,16.9557094 C-0.21043707,14.1653202 -0.703640106,10.1413292 1.01877089,6.83720575 C2.74118188,3.53308228 6.32256066,1.63298552 10.0243064,2.05932832 Z" id="path-3"></path>
    </defs>
    <g id="Index" stroke="none" stroke-width="1" fill="none" fill-rule="evenodd">
        <g id="Desktop-Index-Testpage" transform="translate(-208.000000, -1857.000000)">
            <rect fill="#FFFFFF" x="0" y="0" width="1400" height="4641"></rect>
            <g id="Services" transform="translate(0.000000, 1408.000000)">
                <g id="Backgrounds" fill="#0884C2" opacity="0.053272192">
                    <polygon id="Path-2" transform="translate(700.000000, 1168.000000) rotate(-180.000000) translate(-700.000000, -1168.000000) " points="2.27373675e-13 192 1400 192 1400 2144 4.54747351e-13 2144"></polygon>
                </g>
                <g id="List-Expanded" transform="translate(152.000000, 189.000000)">
                    <g id="Li01">
                        <g id="BG">
                            <rect id="Rectangle-2" fill="#FFFFFF" x="0" y="0" width="1096" height="324"></rect>
                            <g id="Pelvis-Stanmore">
                                <mask id="mask-2" fill="white">
                                    <use xlink:href="#path-1"></use>
                                </mask>
                                <use id="Mask" fill="#FFFFFF" xlink:href="#path-1"></use>
                            </g>
                        </g>
                        <g id="Content" transform="translate(56.000000, 28.000000)" opacity="0.83">
                            <g id="Desc" transform="translate(0.000000, 56.000000)">
                                <g id="PDF-Catalog" transform="translate(0.000000, 176.000000)">
                                    <g id="Group-9">
                                        <rect id="Rectangle-11" x="0" y="0" width="24" height="24"></rect>
                                        <mask id="mask-4" fill="white">
                                            <use xlink:href="#path-3"></use>
                                        </mask>
                                        <use id="Combined-Shape" fill="#0884C2" fill-rule="nonzero" xlink:href="#path-3"></use>
                                    </g>
                                </g>
                            </g>
                        </g>
                    </g>
                </g>
            </g>
        </g>
    </g>
</svg>