<?xml version="1.0" encoding="UTF-8"?>
<svg width="1400px" height="1408px" viewBox="0 0 1400 1408" version="1.1" xmlns="http://www.w3.org/2000/svg" xmlns:xlink="http://www.w3.org/1999/xlink">
    <!-- Generator: Sketch 49.3 (51167) - http://www.bohemiancoding.com/sketch -->
    <title>Group 5</title>
    <desc>Created with Sketch.</desc>
    <defs>
        <linearGradient x1="51.678735%" y1="-11.4514953%" x2="51.2909174%" y2="103.938731%" id="linearGradient-1">
            <stop stop-color="#9FDAD9" offset="0%"></stop>
            <stop stop-color="#0092C5" stop-opacity="0.0144927536" offset="15.1080169%"></stop>
            <stop stop-color="#0076B1" stop-opacity="0" offset="100%"></stop>
        </linearGradient>
        <linearGradient x1="51.2909174%" y1="1.15606936%" x2="51.290915%" y2="96.5317919%" id="linearGradient-2">
            <stop stop-color="#00AED9" stop-opacity="0.17" offset="0%"></stop>
            <stop stop-color="#0092C5" stop-opacity="0.0144927536" offset="50.2890173%"></stop>
            <stop stop-color="#0076B1" stop-opacity="0" offset="100%"></stop>
        </linearGradient>
        <linearGradient x1="49.0547911%" y1="2.23252687%" x2="53.888857%" y2="96.8012521%" id="linearGradient-3">
            <stop stop-color="#00AED9" stop-opacity="0.217391304" offset="0%"></stop>
            <stop stop-color="#0092C5" stop-opacity="0.0144927536" offset="61.5430327%"></stop>
            <stop stop-color="#0076B1" stop-opacity="0" offset="100%"></stop>
        </linearGradient>
        <path d="M863.786866,1363.88524 C810.422091,1368.43207 756.999578,1370.93328 703.519326,1371.38887 C662.541354,1371.73795 621.531685,1370.96404 580.490318,1369.06712 C387.32688,1348.92447 194.16344,1280.35221 1,1163.35036 L1,715 C66.207711,698.511464 156.549346,842.845766 281.517662,841.78118 C737.799675,837.894181 558.771376,438.530457 987.685062,426.396801 C1340.52659,416.415172 1262.60784,109.916287 1401,0 L1401,1163.35036 C1221.92896,1271.81625 1042.85791,1338.66121 863.786866,1363.88524 Z" id="path-4"></path>
        <linearGradient x1="22.6926728%" y1="122.269169%" x2="51.3916359%" y2="-22.7628773%" id="linearGradient-6">
            <stop stop-color="#00AED9" stop-opacity="0.217362998" offset="0%"></stop>
            <stop stop-color="#0092C5" stop-opacity="0.0144927536" offset="64.1585104%"></stop>
            <stop stop-color="#0076B1" stop-opacity="0" offset="100%"></stop>
        </linearGradient>
    </defs>
    <g id="Index" stroke="none" stroke-width="1" fill="none" fill-rule="evenodd">
        <g id="Desktop-Index-Testpage-Copy">
            <g id="Background-Copy" transform="translate(-1.000000, 0.000000)">
                <g id="Group-5">
                    <path d="M1,212 C234.333333,70.6666667 467.666667,3.5682568e-13 701,2.27373675e-13 C934.333333,1.76488453e-13 1167.66667,70.6666667 1401,212 L1401,1408 L1,1408 L1,212 Z" id="Path-2-Copy-3" fill="#FFFFFF" transform="translate(701.000000, 704.000000) rotate(-180.000000) translate(-701.000000, -704.000000) "></path>
                    <path d="M1,212 C234.333333,70.6666667 467.666667,3.5682568e-13 701,2.27373675e-13 C934.333333,1.76488453e-13 1167.66667,70.6666667 1401,212 L1401,1408 L1,1408 L1,212 Z" id="Path-2-Copy" fill="url(#linearGradient-1)" opacity="0.34057971" transform="translate(701.000000, 704.000000) rotate(-180.000000) translate(-701.000000, -704.000000) "></path>
                    <path d="M1,172 C234.333333,57.3333333 467.666667,2.4321864e-13 701,1.13686838e-13 C934.333333,6.30606678e-14 1167.66667,57.3333333 1401,172 L1399,1368 L2.79371152,1368 L1,172 Z" id="Path-2" fill="url(#linearGradient-2)" transform="translate(701.000000, 684.000000) rotate(-180.000000) translate(-701.000000, -684.000000) "></path>
                    <path d="M1,172 C234.333333,57.3333333 467.666667,2.4321864e-13 701,1.13686838e-13 C934.333333,6.30606678e-14 1167.66667,57.3333333 1401,172 L1399,1368 L2.79371152,1368 L1,172 Z" id="Path-2-Copy-2" fill="url(#linearGradient-2)" opacity="0.199671649" transform="translate(701.000000, 684.000000) rotate(-180.000000) translate(-701.000000, -684.000000) "></path>
                    <path d="M0.999999783,0 L1,536 C1,547.331681 1,559.003806 1,571.016375 L0.999999783,571.016375 C0.999999783,626.24485 45.7715249,671.016375 101,671.016375 C117.460745,671.016375 133.666955,666.952949 148.180447,659.186696 C226.902201,617.062232 325.842052,596 445,596 C762.992188,596 902.034068,864.5 1050.43187,864.5 C1207.24593,864.5 1221.84,702.195 1401,704.46 L1401,0 L0.999999783,0 Z" id="Fill-2" fill="#FFFFFF"></path>
                    <mask id="mask-5" fill="white">
                        <use xlink:href="#path-4"></use>
                    </mask>
                    <use id="Combined-Shape" fill="url(#linearGradient-3)" xlink:href="#path-4"></use>
                    <path d="M604.936182,-7.61701813e-12 C408.96732,-7.61701813e-12 455.741781,99.9155461 220.641082,99.9155461 C75.8236567,99.9155461 73.3503543,205.784002 0.485755448,248 L0.900471167,-7.61701813e-12 L604.936182,-7.61701813e-12 Z" id="Combined-Shape" fill="url(#linearGradient-6)" opacity="0.5"></path>
                </g>
            </g>
        </g>
    </g>
</svg>