<?xml version="1.0" encoding="utf-8"?>
<!-- Generator: Adobe Illustrator 21.1.0, SVG Export Plug-In . SVG Version: 6.00 Build 0)  -->
<svg version="1.1" id="Layer_1" xmlns="http://www.w3.org/2000/svg" xmlns:xlink="http://www.w3.org/1999/xlink" x="0px" y="0px"
	 viewBox="0 0 54 48" style="enable-background:new 0 0 54 48;" xml:space="preserve">
<style type="text/css">
	.st0{fill:none;stroke:#979797;stroke-opacity:0;}
	.st1{fill:url(#Shape_3_);}
	.st2{fill:#9FDAD9;}
	.st3{fill:#07BABE;}
	.st4{fill:#0884C2;}
</style>
<rect id="SafeField" y="0" class="st0" width="54" height="48"/>
<g>
	
		<linearGradient id="Shape_3_" gradientUnits="userSpaceOnUse" x1="72.0526" y1="2.0708" x2="73.0526" y2="2.0708" gradientTransform="matrix(38 0 0 23 -2730 -19)">
		<stop  offset="0" style="stop-color:#07BABE"/>
		<stop  offset="0.4913" style="stop-color:#0884C2"/>
		<stop  offset="0.9769" style="stop-color:#0884C2"/>
	</linearGradient>
	<path id="Shape_4_" class="st1" d="M27,31L8.5,17.4c-0.1-0.1-0.2-0.1-0.3,0c-0.1,0-0.2,0.1-0.2,0.2V39c0,0.6,0.4,1,1,1h36
		c0.6,0,1-0.4,1-1V17.6c0-0.1-0.1-0.2-0.2-0.3c-0.1-0.1-0.2,0-0.3,0L27,31z"/>
	<g>
		<polygon id="Shape" class="st2" points="21,8 27,20 33,8 		"/>
		<path id="Shape_1_" class="st3" d="M13.5,8c-0.2,0-0.4,0.1-0.5,0.3s0,0.4,0.2,0.6L27,20L21,8H13.5z"/>
		<path id="Shape_2_" class="st4" d="M41,8.3C40.9,8.1,40.7,8,40.5,8H33l-6,12L40.8,8.9C41,8.7,41,8.5,41,8.3z"/>
	</g>
</g>
</svg>
