<?xml version="1.0" encoding="utf-8"?>
<!-- Generator: Adobe Illustrator 21.1.0, SVG Export Plug-In . SVG Version: 6.00 Build 0)  -->
<svg version="1.1" id="Layer_1" xmlns="http://www.w3.org/2000/svg" xmlns:xlink="http://www.w3.org/1999/xlink" x="0px" y="0px"
	 viewBox="0 0 162 48" style="enable-background:new 0 0 162 48;" xml:space="preserve">
<style type="text/css">
	.st0{fill:none;stroke:#979797;stroke-opacity:0;}
	.st1{fill:url(#Shape_3_);}
	.st2{fill:#9FDAD9;}
	.st3{fill:#07BABE;}
	.st4{fill:#0884C2;}
</style>
<rect id="SafeField" y="0" class="st0" width="162" height="48"/>
<g>
	
		<linearGradient id="Shape_3_" gradientUnits="userSpaceOnUse" x1="36.0263" y1="67.111" x2="37.0263" y2="67.111" gradientTransform="matrix(38 0 0 -23 -1361 1572.2)">
		<stop  offset="0" style="stop-color:#07BABE"/>
		<stop  offset="0.4913" style="stop-color:#0884C2"/>
		<stop  offset="0.9769" style="stop-color:#0884C2"/>
	</linearGradient>
	<path id="Shape_4_" class="st1" d="M27,31L8.5,17.4c-0.1-0.1-0.2-0.1-0.3,0C8.1,17.4,8,17.5,8,17.6V39c0,0.6,0.4,1,1,1h36
		c0.6,0,1-0.4,1-1V17.6c0-0.1-0.1-0.2-0.2-0.3c-0.1-0.1-0.2,0-0.3,0L27,31z"/>
	<g>
		<polygon id="Shape" class="st2" points="21,8 27,20 33,8 		"/>
		<path id="Shape_1_" class="st3" d="M13.5,8c-0.2,0-0.4,0.1-0.5,0.3s0,0.4,0.2,0.6L27,20L21,8H13.5z"/>
		<path id="Shape_2_" class="st4" d="M41,8.3C40.9,8.1,40.7,8,40.5,8H33l-6,12L40.8,8.9C41,8.7,41,8.5,41,8.3z"/>
	</g>
</g>
<path class="st4" d="M107,32h-3V20h-3.5c-0.3,0-0.5-0.2-0.5-0.5v-2c0-0.3,0.2-0.5,0.5-0.5h10c0.3,0,0.5,0.2,0.5,0.5v2
	c0,0.3-0.2,0.5-0.5,0.5H107V32z M133.5,17c1.9,0,3.6,0.7,4.9,1.8l0,0l0,0c0.3,0.3,0.4,0.8,0.1,1.1c0,0,0,0-0.1,0.1l-0.7,0.7
	c-0.3,0.3-0.8,0.3-1.1,0.1l0,0c-0.9-0.6-1.9-1-3.1-1c-2.6,0-4.6,1.9-4.6,4.8c0,2.8,2,4.8,4.6,4.8c1.2,0,2.3-0.4,3.2-1l0,0l0,0
	c0.3-0.2,0.7-0.2,1,0l1,0.9c0.2,0.2,0.2,0.5,0,0.7c0,0,0,0,0,0l0,0c-1.4,1.3-3.2,2.1-5.2,2.1c-4.1,0-7.5-3.4-7.5-7.5
	S129.3,17,133.5,17z M152.5,32h-2c-0.3,0-0.5-0.2-0.5-0.5V26h-6v5.5c0,0.3-0.2,0.5-0.5,0.5h-2c-0.3,0-0.5-0.2-0.5-0.5v-14
	c0-0.3,0.2-0.5,0.5-0.5h2c0.3,0,0.5,0.2,0.5,0.5V23h6v-5.5c0-0.3,0.2-0.5,0.5-0.5h2c0.3,0,0.5,0.2,0.5,0.5v14
	C153,31.8,152.8,32,152.5,32z M81.5,23c0.3,0,0.5,0.2,0.5,0.5v2c0,0.3-0.2,0.5-0.5,0.5H76v3h6.5c0.3,0,0.5,0.2,0.5,0.5v2
	c0,0.3-0.2,0.5-0.5,0.5h-9c-0.3,0-0.5-0.2-0.5-0.5v-14c0-0.3,0.2-0.5,0.5-0.5h9c0.3,0,0.5,0.2,0.5,0.5v2c0,0.3-0.2,0.5-0.5,0.5H76v3
	H81.5z M67.5,32c-0.3,0-0.5-0.2-0.5-0.5V23l-4.1,4.6c-0.1,0.1-0.2,0.2-0.4,0.2s-0.3-0.1-0.4-0.2L58,23v8.5c0,0.3-0.2,0.5-0.5,0.5h-2
	c-0.3,0-0.5-0.2-0.5-0.5v-14c0-0.3,0.2-0.5,0.5-0.5h1.3c0.2,0,0.3,0.1,0.4,0.2l5.3,6.8l5.3-6.8c0.1-0.1,0.2-0.2,0.4-0.2h1.3
	c0.3,0,0.5,0.2,0.5,0.5v14c0,0.3-0.2,0.5-0.5,0.5H67.5z M87,17h4.3c4.3,0,7.7,3.1,7.7,7.5c0,4.4-3.5,7.5-7.7,7.5H87
	c-0.6,0-1-0.4-1-1V18C86,17.4,86.4,17,87,17z M89,29.2h2.3c2.6,0,4.7-1.7,4.7-4.7c0-3-2.1-4.7-4.7-4.7H89V29.2z M122.5,23
	c0.3,0,0.5,0.2,0.5,0.5v2c0,0.3-0.2,0.5-0.5,0.5H117v3h6.5c0.3,0,0.5,0.2,0.5,0.5v2c0,0.3-0.2,0.5-0.5,0.5h-9
	c-0.3,0-0.5-0.2-0.5-0.5v-14c0-0.3,0.2-0.5,0.5-0.5h9c0.3,0,0.5,0.2,0.5,0.5v2c0,0.3-0.2,0.5-0.5,0.5H117v3H122.5z"/>
</svg>
