<svg id="Assortment" xmlns="http://www.w3.org/2000/svg" xmlns:xlink="http://www.w3.org/1999/xlink" width="120" height="120" viewBox="0 0 120 120"><defs><style>.cls-1{fill:url(#linear-gradient);}.cls-2{fill:url(#linear-gradient-2);}.cls-3{fill:url(#linear-gradient-3);}.cls-4{fill:url(#linear-gradient-4);}.cls-5{fill:url(#linear-gradient-5);}.cls-6{fill:url(#linear-gradient-6);}.cls-7{fill:none;}.cls-8{fill:url(#linear-gradient-7);}.cls-9{fill:url(#linear-gradient-8);}.cls-10{fill:url(#linear-gradient-9);}.cls-11{fill:url(#linear-gradient-10);}.cls-12{fill:url(#linear-gradient-11);}.cls-13{fill:url(#linear-gradient-12);}.cls-14{fill:url(#linear-gradient-13);}.cls-15{fill:url(#linear-gradient-14);}.cls-16{fill:url(#linear-gradient-15);}.cls-17{fill:url(#linear-gradient-16);}.cls-18{fill:url(#linear-gradient-17);}.cls-19{fill:url(#linear-gradient-18);}.cls-20{fill:url(#linear-gradient-19);}.cls-21{fill:url(#linear-gradient-20);}.cls-22{fill:url(#linear-gradient-21);}.cls-23{fill:url(#linear-gradient-22);}.cls-24{fill:url(#linear-gradient-23);}</style><linearGradient id="linear-gradient" x1="566.24529" y1="528.99672" x2="537.86351" y2="509.25287" gradientUnits="userSpaceOnUse"><stop offset="0" stop-color="#0884c2"/><stop offset="0.08821" stop-color="#0884c2" stop-opacity="0.77047"/><stop offset="0.18228" stop-color="#0884c2" stop-opacity="0.56653"/><stop offset="0.28285" stop-color="#0884c2" stop-opacity="0.39109"/><stop offset="0.38946" stop-color="#0884c2" stop-opacity="0.24827"/><stop offset="0.50413" stop-color="#0884c2" stop-opacity="0.13798"/><stop offset="0.63081" stop-color="#0884c2" stop-opacity="0.05999"/><stop offset="0.77889" stop-color="#0884c2" stop-opacity="0.01411"/><stop offset="1" stop-color="#0884c2" stop-opacity="0"/></linearGradient><linearGradient id="linear-gradient-2" x1="523.66973" y1="445.85037" x2="526.12567" y2="503.97428" gradientUnits="userSpaceOnUse"><stop offset="0" stop-color="#0884c2"/><stop offset="0.06605" stop-color="#0884c2" stop-opacity="0.84552"/><stop offset="0.17563" stop-color="#0884c2" stop-opacity="0.62236"/><stop offset="0.29059" stop-color="#0884c2" stop-opacity="0.4304"/><stop offset="0.40978" stop-color="#0884c2" stop-opacity="0.27399"/><stop offset="0.53462" stop-color="#0884c2" stop-opacity="0.15287"/><stop offset="0.66743" stop-color="#0884c2" stop-opacity="0.06699"/><stop offset="0.81377" stop-color="#0884c2" stop-opacity="0.01613"/><stop offset="1" stop-color="#0884c2" stop-opacity="0"/></linearGradient><linearGradient id="linear-gradient-3" x1="491.0404" y1="545.33424" x2="525.02017" y2="502.24258" xlink:href="#linear-gradient-2"/><linearGradient id="linear-gradient-4" x1="60" y1="83.30192" x2="60" y2="145.0442" gradientUnits="userSpaceOnUse"><stop offset="0" stop-color="#9fdad9" stop-opacity="0"/><stop offset="0.2572" stop-color="#aae3e2" stop-opacity="0.2418"/><stop offset="0.84868" stop-color="#c5f9f7" stop-opacity="0.84237"/><stop offset="1" stop-color="#ccfffd"/></linearGradient><linearGradient id="linear-gradient-5" x1="527.99684" y1="508.56173" x2="537.89899" y2="534.85366" gradientUnits="userSpaceOnUse"><stop offset="0" stop-color="#07babe"/><stop offset="0.39116" stop-color="#44ccce"/><stop offset="0.99994" stop-color="#abebea"/></linearGradient><linearGradient id="linear-gradient-6" x1="525.65635" y1="504.01662" x2="556.90841" y2="480.72499" xlink:href="#linear-gradient-5"/><linearGradient id="linear-gradient-7" x1="505.72274" y1="474.83077" x2="501.45377" y2="470.42409" xlink:href="#linear-gradient-5"/><linearGradient id="linear-gradient-8" x1="516.69138" y1="501.90168" x2="490.0059" y2="497.14479" gradientUnits="userSpaceOnUse"><stop offset="0" stop-color="#07babe"/><stop offset="0.38229" stop-color="#44ced0"/><stop offset="1" stop-color="#aff0ef"/></linearGradient><linearGradient id="linear-gradient-9" x1="69.97808" y1="34.49213" x2="70.314" y2="31.36095" xlink:href="#linear-gradient-5"/><linearGradient id="linear-gradient-10" x1="69.97808" y1="34.49213" x2="70.314" y2="31.36095" gradientUnits="userSpaceOnUse"><stop offset="0" stop-color="#0884c2"/><stop offset="0.33348" stop-color="#0884c2" stop-opacity="0.68277"/><stop offset="1" stop-color="#0884c2" stop-opacity="0"/></linearGradient><linearGradient id="linear-gradient-11" x1="526.61423" y1="468.22307" x2="543.28089" y2="468.22307" xlink:href="#linear-gradient-5"/><linearGradient id="linear-gradient-12" x1="541.70424" y1="471.68391" x2="522.1209" y2="459.80891" gradientUnits="userSpaceOnUse"><stop offset="0" stop-color="#0884c2"/><stop offset="0.39351" stop-color="#45abd1"/><stop offset="1" stop-color="#abebea"/></linearGradient><linearGradient id="linear-gradient-13" x1="77.16107" y1="25.93055" x2="57.57773" y2="14.05555" gradientUnits="userSpaceOnUse"><stop offset="0" stop-color="#fff"/><stop offset="0.99992" stop-color="#fff"/></linearGradient><linearGradient id="linear-gradient-14" x1="32.3527" y1="61.38889" x2="32.68861" y2="58.25771" xlink:href="#linear-gradient-5"/><linearGradient id="linear-gradient-15" x1="32.3527" y1="61.38889" x2="32.68861" y2="58.25771" xlink:href="#linear-gradient-10"/><linearGradient id="linear-gradient-16" x1="488.98884" y1="495.11983" x2="505.65551" y2="495.11983" xlink:href="#linear-gradient-5"/><linearGradient id="linear-gradient-17" x1="504.07885" y1="498.58068" x2="484.49552" y2="486.70568" xlink:href="#linear-gradient-12"/><linearGradient id="linear-gradient-18" x1="39.53568" y1="52.82731" x2="19.95235" y2="40.95231" xlink:href="#linear-gradient-13"/><linearGradient id="linear-gradient-19" x1="89.59045" y1="57.92712" x2="89.92636" y2="54.79594" xlink:href="#linear-gradient-5"/><linearGradient id="linear-gradient-20" x1="89.59045" y1="57.92712" x2="89.92636" y2="54.79594" xlink:href="#linear-gradient-10"/><linearGradient id="linear-gradient-21" x1="546.2266" y1="491.65806" x2="562.89326" y2="491.65806" xlink:href="#linear-gradient-5"/><linearGradient id="linear-gradient-22" x1="561.31661" y1="495.11891" x2="541.73327" y2="483.24391" xlink:href="#linear-gradient-12"/><linearGradient id="linear-gradient-23" x1="96.77343" y1="49.36554" x2="77.1901" y2="37.49054" xlink:href="#linear-gradient-13"/></defs><title>Assortment</title><path class="cls-1" d="M526,461a40,40,0,1,0,40,40A40.04583,40.04583,0,0,0,526,461Z" transform="translate(-465 -445)"/><path class="cls-2" d="M526,461a40,40,0,1,0,40,40A40.04583,40.04583,0,0,0,526,461Z" transform="translate(-465 -445)"/><path class="cls-3" d="M526,461a40,40,0,1,0,40,40A40.04583,40.04583,0,0,0,526,461Z" transform="translate(-465 -445)"/><circle class="cls-4" cx="60" cy="60" r="60"/><path class="cls-5" d="M541.08234,536.49c-1.54634,0-2.72526-1.08946-3.23431-2.98937-0.32162-1.20022-3.17319-3.55381-8.62371-3.55381A4.25078,4.25078,0,0,1,525,525.58466v-3.33229a1.15826,1.15826,0,0,0-1.16763-1.02983c-2.68692,0-4.49172-1.50689-4.49172-4.15653A3.047,3.047,0,0,1,522.54334,514h4.36212a3.82839,3.82839,0,0,0,2.491-1.06395,6.396,6.396,0,0,1,4.11291-1.42548c2.59,0,3.50162.72923,4.42389,1.74947a5.24569,5.24569,0,0,0,.62514.59731,5.57592,5.57592,0,0,0,.868.40888c1.72206,0.737,4.92762,2.10328,4.92762,6.96274a7.96857,7.96857,0,0,1-.51971,2.6869,7.92363,7.92363,0,0,0-.51012,2.76093,8.55766,8.55766,0,0,0,.46752,2.95129,10.81016,10.81016,0,0,1,.5623,3.59068A3.27482,3.27482,0,0,1,541.08234,536.49Z" transform="translate(-465 -445)"/><path class="cls-6" d="M562.31409,484.91945a47.03322,47.03322,0,0,0-19.27979-21.719c-0.37712-.22141-0.75366-0.44367-1.13734-0.65473a1.76862,1.76862,0,0,0-1.0745.42633l-0.41314.404c-0.22961.222-.45373,0.44488-0.67042,0.67656a5.76229,5.76229,0,0,0-1.59613,4.42034,7.01962,7.01962,0,0,1-7.01195,7.01195,5.84329,5.84329,0,1,0,0,11.68658c3.078,0,4.37676-2.028,5.154-3.24006a7.32924,7.32924,0,0,1,.45537-0.66536,2.421,2.421,0,0,1,1.7507-.77606,3.05656,3.05656,0,0,1,2.30194.8628,2.92007,2.92007,0,0,1,.0388,4.09144c-3.68972,2.99925-3.87346,3.98531-3.85863,6.3717l0.00114,0.36749a5.85017,5.85017,0,0,0,5.84329,5.84329l0.74639-.00685c2.16955-.032,4.427-0.06163,6.54974,2.06a10.80815,10.80815,0,0,1,1.82945,2.97528c0.97122,2.02575,2.07254,4.32084,4.89832,4.32084a4.67926,4.67926,0,0,0,4.67463-4.67463,11.64472,11.64472,0,0,0-1.858-6.71636,10.31692,10.31692,0,0,1-1.648-6.13888,5.5554,5.5554,0,0,1,2.85324-4.30336,4.89331,4.89331,0,0,1,.98142-0.41806,2.46627,2.46627,0,0,0,1.07757-.72956C562.72623,485.89973,562.52643,485.40649,562.31409,484.91945Z" transform="translate(-465 -445)"/><path class="cls-7" d="M526,461a40,40,0,1,0,40,40A40.04583,40.04583,0,0,0,526,461Z" transform="translate(-465 -445)"/><path class="cls-8" d="M499.86914,476.93457a5.0433,5.0433,0,0,1-3.60742-1.25,1.0006,1.0006,0,0,1-.03809-1.377,40.068,40.068,0,0,1,10.27344-8.22949,1.00037,1.00037,0,0,1,1.40234.4668c1.01367,2.27832.03027,5.93945-2.19238,8.16211A8.69565,8.69565,0,0,1,499.86914,476.93457Z" transform="translate(-465 -445)"/><path class="cls-9" d="M491.98635,479.41532a43.36867,43.36867,0,0,0-5.29946,18.72532q-0.027.54345-.04049,1.09025c-0.00894.36254,0,.72591,0,1.09053,0,0.63379-.01407,1.20155.01322,1.82881,0.01387,0.13175.02774,0.31163,0.02774,0.41606a0.98654,0.98654,0,0,0,1.03505,1.02119c3.18,0,4.36212,1.18212,4.36212,4.36212,0,4.212,3.18426,4.99365,5.51016,5.56447,1.42706,0.35038,2.77531.68052,3.40684,1.59746,2.098,3.04475,6.24392,5.92443,8.53148,5.92443,3.59534,0,5.17895-2.27052,5.44306-4.21622a5.17113,5.17113,0,0,0,0-1.38127c-0.30139-2.2375-2.196-4.197-5.07032-5.24178-2.37808-.86476-3.64433-4.39407-3.64433-6.6092,0-4.98832,1.58042-6.88929,3.25348-8.90209a11.59512,11.59512,0,0,0,3.28756-7.38237,6.84864,6.84864,0,0,0-.55591-3.37809,7.11154,7.11154,0,0,0-3.77106-3.77106,7.12608,7.12608,0,0,0-5.51868,0,10.49959,10.49959,0,0,0-3.06072,2.12142c-1.07668.97658-1.85518,1.68265-3.44944,1.68265a2.374,2.374,0,0,1-1.87009-1.20235,3.00089,3.00089,0,0,1-.40043-2.72632,1.09184,1.09184,0,0,0-.56763-1.43451,1.11456,1.11456,0,0,0-1.463.54651Z" transform="translate(-465 -445)"/><path class="cls-7" d="M526,461a40,40,0,1,0,40,40A40.04583,40.04583,0,0,0,526,461Z" transform="translate(-465 -445)"/><ellipse class="cls-10" cx="70.11423" cy="33.22307" rx="3.5" ry="1"/><ellipse class="cls-11" cx="70.11423" cy="33.22307" rx="3.5" ry="1"/><path class="cls-12" d="M539.30252,474.73369a25.94374,25.94374,0,0,1-2.664,2.43555c-0.31815.25334-.61418,0.47725-0.88081,0.66983-0.16249.11735-.28088,0.19935-0.34793,0.244a0.83333,0.83333,0,0,1-.9245,0c-0.067-.04469-0.18543-0.12669-0.34793-0.244-0.26663-.19257-0.56266-0.41648-0.88081-0.66983a25.94339,25.94339,0,0,1-2.664-2.43555c-2.47637-2.61395-3.97837-5.36762-3.97837-8.17729a8.33333,8.33333,0,0,1,16.66667,0C543.28089,469.36607,541.77889,472.11974,539.30252,474.73369Z" transform="translate(-465 -445)"/><path class="cls-13" d="M539.30252,474.73369a25.94374,25.94374,0,0,1-2.664,2.43555c-0.31815.25334-.61418,0.47725-0.88081,0.66983-0.16249.11735-.28088,0.19935-0.34793,0.244a0.83333,0.83333,0,0,1-.9245,0c-0.067-.04469-0.18543-0.12669-0.34793-0.244-0.26663-.19257-0.56266-0.41648-0.88081-0.66983a25.94339,25.94339,0,0,1-2.664-2.43555c-2.47637-2.61395-3.97837-5.36762-3.97837-8.17729a8.33333,8.33333,0,0,1,16.66667,0C543.28089,469.36607,541.77889,472.11974,539.30252,474.73369Z" transform="translate(-465 -445)"/><circle class="cls-14" cx="69.94756" cy="21.5564" r="3.33333"/><ellipse class="cls-15" cx="32.48884" cy="60.11983" rx="3.5" ry="1"/><ellipse class="cls-16" cx="32.48884" cy="60.11983" rx="3.5" ry="1"/><path class="cls-17" d="M501.67713,501.63045a25.94374,25.94374,0,0,1-2.664,2.43555c-0.31815.25334-.61417,0.47725-0.88081,0.66983-0.16249.11735-.28088,0.19935-0.34793,0.244a0.83333,0.83333,0,0,1-.9245,0c-0.067-.04469-0.18543-0.12669-0.34792-0.244-0.26663-.19257-0.56266-0.41648-0.88081-0.66983a25.9434,25.9434,0,0,1-2.664-2.43555c-2.47637-2.61395-3.97837-5.36762-3.97837-8.17729a8.33333,8.33333,0,1,1,16.66667,0C505.65551,496.26283,504.15351,499.0165,501.67713,501.63045Z" transform="translate(-465 -445)"/><path class="cls-18" d="M501.67713,501.63045a25.94374,25.94374,0,0,1-2.664,2.43555c-0.31815.25334-.61417,0.47725-0.88081,0.66983-0.16249.11735-.28088,0.19935-0.34793,0.244a0.83333,0.83333,0,0,1-.9245,0c-0.067-.04469-0.18543-0.12669-0.34792-0.244-0.26663-.19257-0.56266-0.41648-0.88081-0.66983a25.9434,25.9434,0,0,1-2.664-2.43555c-2.47637-2.61395-3.97837-5.36762-3.97837-8.17729a8.33333,8.33333,0,1,1,16.66667,0C505.65551,496.26283,504.15351,499.0165,501.67713,501.63045Z" transform="translate(-465 -445)"/><circle class="cls-19" cx="32.32217" cy="48.45317" r="3.33333"/><ellipse class="cls-20" cx="89.7266" cy="56.65806" rx="3.5" ry="1"/><ellipse class="cls-21" cx="89.7266" cy="56.65806" rx="3.5" ry="1"/><path class="cls-22" d="M558.91489,498.16868a25.94374,25.94374,0,0,1-2.664,2.43555c-0.31815.25334-.61418,0.47725-0.88081,0.66982-0.16249.11735-.28088,0.19935-0.34793,0.244a0.83333,0.83333,0,0,1-.9245,0c-0.067-.04469-0.18543-0.12669-0.34793-0.244-0.26663-.19257-0.56266-0.41648-0.88081-0.66982a25.94341,25.94341,0,0,1-2.664-2.43555c-2.47637-2.61395-3.97837-5.36762-3.97837-8.17729a8.33333,8.33333,0,1,1,16.66667,0C562.89326,492.80106,561.39126,495.55473,558.91489,498.16868Z" transform="translate(-465 -445)"/><path class="cls-23" d="M558.91489,498.16868a25.94374,25.94374,0,0,1-2.664,2.43555c-0.31815.25334-.61418,0.47725-0.88081,0.66982-0.16249.11735-.28088,0.19935-0.34793,0.244a0.83333,0.83333,0,0,1-.9245,0c-0.067-.04469-0.18543-0.12669-0.34793-0.244-0.26663-.19257-0.56266-0.41648-0.88081-0.66982a25.94341,25.94341,0,0,1-2.664-2.43555c-2.47637-2.61395-3.97837-5.36762-3.97837-8.17729a8.33333,8.33333,0,1,1,16.66667,0C562.89326,492.80106,561.39126,495.55473,558.91489,498.16868Z" transform="translate(-465 -445)"/><circle class="cls-24" cx="89.55993" cy="44.99139" r="3.33333"/></svg>