<svg id="Reputation" xmlns="http://www.w3.org/2000/svg" xmlns:xlink="http://www.w3.org/1999/xlink" width="120" height="120" viewBox="0 0 120 120"><defs><style>.cls-1{fill:url(#linear-gradient);}.cls-2{fill:url(#linear-gradient-2);}.cls-3{fill:url(#linear-gradient-3);}.cls-4{fill:url(#linear-gradient-4);}.cls-5{fill:url(#linear-gradient-5);}.cls-6{fill:url(#linear-gradient-6);}.cls-7{fill:url(#linear-gradient-7);}.cls-8{fill:#fff;}.cls-9{fill:url(#linear-gradient-8);}.cls-10{fill:url(#linear-gradient-9);}.cls-11{fill:url(#linear-gradient-10);}.cls-12{fill:url(#linear-gradient-11);}.cls-13{fill:none;}.cls-14{fill:url(#linear-gradient-12);}.cls-15{fill:url(#linear-gradient-13);}.cls-16{fill:url(#linear-gradient-14);}.cls-17{fill:url(#linear-gradient-15);}.cls-18{fill:url(#linear-gradient-16);}.cls-19{fill:url(#linear-gradient-17);}</style><linearGradient id="linear-gradient" x1="29" y1="60" x2="-33.36541" y2="60" gradientUnits="userSpaceOnUse"><stop offset="0" stop-color="#9fdad9" stop-opacity="0"/><stop offset="0.2572" stop-color="#aae3e2" stop-opacity="0.2418"/><stop offset="0.84868" stop-color="#c5f9f7" stop-opacity="0.84237"/><stop offset="1" stop-color="#ccfffd"/></linearGradient><linearGradient id="linear-gradient-2" x1="245" y1="489.00391" x2="245" y2="465.34375" gradientUnits="userSpaceOnUse"><stop offset="0" stop-color="#a9e8e7"/><stop offset="1" stop-color="#07babe"/></linearGradient><linearGradient id="linear-gradient-3" x1="245" y1="465.02344" x2="245" y2="448.28045" gradientUnits="userSpaceOnUse"><stop offset="0" stop-color="#0884c2" stop-opacity="0"/><stop offset="1" stop-color="#0884c2"/></linearGradient><linearGradient id="linear-gradient-4" x1="245.13245" y1="479.52317" x2="245.06179" y2="494.71572" xlink:href="#linear-gradient-3"/><linearGradient id="linear-gradient-5" x1="239.375" y1="502" x2="255.66667" y2="502" xlink:href="#linear-gradient-2"/><linearGradient id="linear-gradient-6" x1="236.01448" y1="502.01904" x2="213.21824" y2="501.86128" xlink:href="#linear-gradient-3"/><linearGradient id="linear-gradient-7" x1="241.1527" y1="502.02164" x2="227.22523" y2="501.92526" gradientTransform="matrix(-1, 0, 0, 1, 494.40082, 0)" xlink:href="#linear-gradient-3"/><linearGradient id="linear-gradient-8" x1="223.29867" y1="416.37562" x2="230.02024" y2="424.65794" gradientUnits="userSpaceOnUse"><stop offset="0" stop-color="#a2e6e4"/><stop offset="1" stop-color="#07babe"/></linearGradient><linearGradient id="linear-gradient-9" x1="242.29867" y1="404.37562" x2="249.02024" y2="412.65794" xlink:href="#linear-gradient-8"/><linearGradient id="linear-gradient-10" x1="259.29867" y1="416.37562" x2="266.02024" y2="424.65794" xlink:href="#linear-gradient-8"/><linearGradient id="linear-gradient-11" x1="241.83333" y1="493" x2="251.83472" y2="493" gradientUnits="userSpaceOnUse"><stop offset="0" stop-color="#9fdad9"/><stop offset="1" stop-color="#07babe"/></linearGradient><linearGradient id="linear-gradient-12" x1="245.83333" y1="493" x2="256.67179" y2="493" xlink:href="#linear-gradient-3"/><linearGradient id="linear-gradient-13" x1="205.02283" y1="473.80693" x2="243.3059" y2="474.39894" gradientUnits="userSpaceOnUse"><stop offset="0.00512" stop-color="#0884c2" stop-opacity="0"/><stop offset="1" stop-color="#0884c2"/></linearGradient><linearGradient id="linear-gradient-14" x1="237.58605" y1="433.74588" x2="256.40863" y2="456.93909" gradientUnits="userSpaceOnUse"><stop offset="0" stop-color="#89e8e6"/><stop offset="1" stop-color="#07babe"/></linearGradient><linearGradient id="linear-gradient-15" x1="245.00884" y1="437.31176" x2="245.16333" y2="477.66914" gradientUnits="userSpaceOnUse"><stop offset="0" stop-color="#0884c2" stop-opacity="0"/><stop offset="0.99492" stop-color="#0884c2"/></linearGradient><linearGradient id="linear-gradient-16" x1="239.18215" y1="465.76798" x2="253.57164" y2="487.76843" gradientUnits="userSpaceOnUse"><stop offset="0" stop-color="#fff" stop-opacity="0"/><stop offset="0.48702" stop-color="#fff" stop-opacity="0.5"/><stop offset="1" stop-color="#fff" stop-opacity="0"/></linearGradient><linearGradient id="linear-gradient-17" x1="223.89783" y1="473.80693" x2="262.1809" y2="474.39894" gradientTransform="matrix(-1, 0, 0, 1, 509, 0)" xlink:href="#linear-gradient-13"/></defs><title>Reputation</title><circle class="cls-1" cx="60" cy="60" r="60"/><path class="cls-2" d="M255,508H235s7.03536-21.83724,7-34-5-29-5-29l8,5.35612L253,445s-4.96464,16.83724-5,29S255,508,255,508Z" transform="translate(-185 -397)"/><path class="cls-3" d="M255,508H235s7.03536-21.83724,7-34-5-29-5-29l8,5.35612L253,445s-4.96464,16.83724-5,29S255,508,255,508Z" transform="translate(-185 -397)"/><path class="cls-4" d="M255,508H235s7.03536-21.83724,7-34-5-29-5-29l8,5.35612L253,445s-4.96464,16.83724-5,29S255,508,255,508Z" transform="translate(-185 -397)"/><path class="cls-5" d="M265,509H225l2.75666-9.64833A6,6,0,0,1,233.52581,495h22.24588a6,6,0,0,1,5.65045,3.982Z" transform="translate(-185 -397)"/><path class="cls-6" d="M241.52582,495h-8a6,6,0,0,0-5.76917,4.35168L225,509h8l2.75665-9.64832A6,6,0,0,1,241.52582,495Z" transform="translate(-185 -397)"/><path class="cls-7" d="M247.75,495h8a6,6,0,0,1,5.76916,4.35168L265,509h-8.72418l-2.75665-9.64832A6,6,0,0,0,247.75,495Z" transform="translate(-185 -397)"/><path class="cls-8" d="M228.67229,420.85469l0.47985,2.93654a0.17658,0.17658,0,0,1-.06735.17381,0.15885,0.15885,0,0,1-.17833.0135l-2.5125-1.38642a0.81131,0.81131,0,0,0-.78794,0l-2.51247,1.38639a0.15882,0.15882,0,0,1-.17833-0.0135,0.17653,0.17653,0,0,1-.06735-0.17381l0.47985-2.93648a0.91608,0.91608,0,0,0-.2435-0.78655l-2.03265-2.07964a0.17948,0.17948,0,0,1-.04283-0.1822,0.16818,0.16818,0,0,1,.13668-0.121l2.809-.42843a0.85063,0.85063,0,0,0,.63749-0.48612l1.25625-2.67172a0.1659,0.1659,0,0,1,.30368,0v0l1.25625,2.67172a0.85051,0.85051,0,0,0,.63744.48612l2.809,0.42843a0.16822,0.16822,0,0,1,.13668.121,0.17948,0.17948,0,0,1-.04285.1822l-2.03265,2.07964A0.91607,0.91607,0,0,0,228.67229,420.85469Z" transform="translate(-185 -397)"/><path class="cls-8" d="M247.67229,408.85469l0.47985,2.93654a0.17658,0.17658,0,0,1-.06735.17381,0.15885,0.15885,0,0,1-.17833.0135l-2.5125-1.38642a0.81131,0.81131,0,0,0-.78794,0l-2.51247,1.38639a0.15882,0.15882,0,0,1-.17833-0.0135,0.17653,0.17653,0,0,1-.06735-0.17381l0.47985-2.93648a0.91608,0.91608,0,0,0-.2435-0.78655l-2.03265-2.07964a0.17948,0.17948,0,0,1-.04283-0.1822,0.16818,0.16818,0,0,1,.13668-0.121l2.809-.42843a0.85063,0.85063,0,0,0,.63749-0.48612l1.25625-2.67172a0.1659,0.1659,0,0,1,.30368,0v0l1.25625,2.67172a0.85051,0.85051,0,0,0,.63744.48612l2.809,0.42843a0.16822,0.16822,0,0,1,.13668.121,0.17948,0.17948,0,0,1-.04285.1822l-2.03265,2.07964A0.91607,0.91607,0,0,0,247.67229,408.85469Z" transform="translate(-185 -397)"/><path class="cls-9" d="M228.67229,420.85469l0.47985,2.93654a0.17658,0.17658,0,0,1-.06735.17381,0.15885,0.15885,0,0,1-.17833.0135l-2.5125-1.38642a0.81131,0.81131,0,0,0-.78794,0l-2.51247,1.38639a0.15882,0.15882,0,0,1-.17833-0.0135,0.17653,0.17653,0,0,1-.06735-0.17381l0.47985-2.93648a0.91608,0.91608,0,0,0-.2435-0.78655l-2.03265-2.07964a0.17948,0.17948,0,0,1-.04283-0.1822,0.16818,0.16818,0,0,1,.13668-0.121l2.809-.42843a0.85063,0.85063,0,0,0,.63749-0.48612l1.25625-2.67172a0.1659,0.1659,0,0,1,.30368,0v0l1.25625,2.67172a0.85051,0.85051,0,0,0,.63744.48612l2.809,0.42843a0.16822,0.16822,0,0,1,.13668.121,0.17948,0.17948,0,0,1-.04285.1822l-2.03265,2.07964A0.91607,0.91607,0,0,0,228.67229,420.85469Z" transform="translate(-185 -397)"/><path class="cls-10" d="M247.67229,408.85469l0.47985,2.93654a0.17658,0.17658,0,0,1-.06735.17381,0.15885,0.15885,0,0,1-.17833.0135l-2.5125-1.38642a0.81131,0.81131,0,0,0-.78794,0l-2.51247,1.38639a0.15882,0.15882,0,0,1-.17833-0.0135,0.17653,0.17653,0,0,1-.06735-0.17381l0.47985-2.93648a0.91608,0.91608,0,0,0-.2435-0.78655l-2.03265-2.07964a0.17948,0.17948,0,0,1-.04283-0.1822,0.16818,0.16818,0,0,1,.13668-0.121l2.809-.42843a0.85063,0.85063,0,0,0,.63749-0.48612l1.25625-2.67172a0.1659,0.1659,0,0,1,.30368,0v0l1.25625,2.67172a0.85051,0.85051,0,0,0,.63744.48612l2.809,0.42843a0.16822,0.16822,0,0,1,.13668.121,0.17948,0.17948,0,0,1-.04285.1822l-2.03265,2.07964A0.91607,0.91607,0,0,0,247.67229,408.85469Z" transform="translate(-185 -397)"/><path class="cls-8" d="M264.67229,420.85469l0.47985,2.93654a0.17658,0.17658,0,0,1-.06735.17381,0.15885,0.15885,0,0,1-.17833.0135l-2.5125-1.38642a0.81131,0.81131,0,0,0-.78794,0l-2.51247,1.38639a0.15882,0.15882,0,0,1-.17833-0.0135,0.17653,0.17653,0,0,1-.06735-0.17381l0.47985-2.93648a0.91608,0.91608,0,0,0-.2435-0.78655l-2.03265-2.07964a0.17948,0.17948,0,0,1-.04283-0.1822,0.16818,0.16818,0,0,1,.13668-0.121l2.809-.42843a0.85063,0.85063,0,0,0,.63749-0.48612l1.25625-2.67172a0.1659,0.1659,0,0,1,.30368,0v0l1.25625,2.67172a0.85051,0.85051,0,0,0,.63744.48612l2.809,0.42843a0.16822,0.16822,0,0,1,.13668.121,0.17948,0.17948,0,0,1-.04285.1822l-2.03265,2.07964A0.91607,0.91607,0,0,0,264.67229,420.85469Z" transform="translate(-185 -397)"/><path class="cls-11" d="M264.67229,420.85469l0.47985,2.93654a0.17658,0.17658,0,0,1-.06735.17381,0.15885,0.15885,0,0,1-.17833.0135l-2.5125-1.38642a0.81131,0.81131,0,0,0-.78794,0l-2.51247,1.38639a0.15882,0.15882,0,0,1-.17833-0.0135,0.17653,0.17653,0,0,1-.06735-0.17381l0.47985-2.93648a0.91608,0.91608,0,0,0-.2435-0.78655l-2.03265-2.07964a0.17948,0.17948,0,0,1-.04283-0.1822,0.16818,0.16818,0,0,1,.13668-0.121l2.809-.42843a0.85063,0.85063,0,0,0,.63749-0.48612l1.25625-2.67172a0.1659,0.1659,0,0,1,.30368,0v0l1.25625,2.67172a0.85051,0.85051,0,0,0,.63744.48612l2.809,0.42843a0.16822,0.16822,0,0,1,.13668.121,0.17948,0.17948,0,0,1-.04285.1822l-2.03265,2.07964A0.91607,0.91607,0,0,0,264.67229,420.85469Z" transform="translate(-185 -397)"/><path class="cls-12" d="M255,495H235a3.9996,3.9996,0,0,1,4-4h12A4,4,0,0,1,255,495Z" transform="translate(-185 -397)"/><path class="cls-13" d="M255,495H235a3.9996,3.9996,0,0,1,4-4h12A4,4,0,0,1,255,495Z" transform="translate(-185 -397)"/><path class="cls-14" d="M255,495H235a3.9996,3.9996,0,0,1,4-4h12A4,4,0,0,1,255,495Z" transform="translate(-185 -397)"/><path class="cls-8" d="M226,476a2,2,0,0,1-2,2H211l4-4-4-4h13a2,2,0,0,1,2,2v4Z" transform="translate(-185 -397)"/><path class="cls-15" d="M226,476a2,2,0,0,1-2,2H211l4-4-4-4h13a2,2,0,0,1,2,2v4Z" transform="translate(-185 -397)"/><path class="cls-16" d="M257.26929,448.16064l2.20312,12.92076a0.76366,0.76366,0,0,1-.30922.76475,0.75449,0.75449,0,0,1-.81876.05941l-11.53563-6.10024a3.867,3.867,0,0,0-3.61765-.00012l-11.53552,6.10013a0.75436,0.75436,0,0,1-.81876-0.05941,0.76345,0.76345,0,0,1-.30922-0.76475l2.20312-12.92053a3.9231,3.9231,0,0,0-1.118-3.46081l-9.33251-9.15042a0.78331,0.78331,0,0,1,.43091-1.3339l12.897-1.88511a3.88821,3.88821,0,0,0,2.92691-2.13895l5.76782-11.75558a0.77543,0.77543,0,0,1,1.39426,0V418.436l5.76782,11.75558a3.88764,3.88764,0,0,0,2.92668,2.13895l12.8972,1.88511a0.78324,0.78324,0,0,1,.43079,1.3339L258.38714,444.7A3.923,3.923,0,0,0,257.26929,448.16064Z" transform="translate(-185 -397)"/><path class="cls-17" d="M257.26929,448.16064l2.20312,12.92076a0.76366,0.76366,0,0,1-.30922.76475,0.75449,0.75449,0,0,1-.81876.05941l-11.53563-6.10024a3.867,3.867,0,0,0-3.61765-.00012l-11.53552,6.10013a0.75436,0.75436,0,0,1-.81876-0.05941,0.76345,0.76345,0,0,1-.30922-0.76475l2.20312-12.92053a3.9231,3.9231,0,0,0-1.118-3.46081l-9.33251-9.15042a0.78331,0.78331,0,0,1,.43091-1.3339l12.897-1.88511a3.88821,3.88821,0,0,0,2.92691-2.13895l5.76782-11.75558a0.77543,0.77543,0,0,1,1.39426,0V418.436l5.76782,11.75558a3.88764,3.88764,0,0,0,2.92668,2.13895l12.8972,1.88511a0.78324,0.78324,0,0,1,.43079,1.3339L258.38714,444.7A3.923,3.923,0,0,0,257.26929,448.16064Z" transform="translate(-185 -397)"/><path class="cls-18" d="M248.04865,475.85913l-1.04309-1.77722-5.82971-9.93243a73.76682,73.76682,0,0,1,.81573,9.29205l1.56427,2.66516,5.80566,9.89148A76.41676,76.41676,0,0,1,248.04865,475.85913Z" transform="translate(-185 -397)"/><path class="cls-8" d="M264.125,476a2,2,0,0,0,2,2h13l-4-4,4-4h-13a2,2,0,0,0-2,2v4Z" transform="translate(-185 -397)"/><path class="cls-19" d="M264.125,476a2,2,0,0,0,2,2h13l-4-4,4-4h-13a2,2,0,0,0-2,2v4Z" transform="translate(-185 -397)"/></svg>