<svg id="Innovation" xmlns="http://www.w3.org/2000/svg" xmlns:xlink="http://www.w3.org/1999/xlink" width="120" height="120" viewBox="0 0 120 120"><defs><style>.cls-1{fill:url(#linear-gradient);}.cls-2{fill:#fff;}.cls-3{fill:url(#linear-gradient-2);}.cls-4{fill:url(#linear-gradient-3);}.cls-5{fill:url(#linear-gradient-4);}.cls-6{fill:url(#linear-gradient-5);}.cls-7{fill:url(#linear-gradient-6);}.cls-8{fill:url(#linear-gradient-7);}.cls-9{fill:url(#linear-gradient-8);}.cls-10{fill:url(#linear-gradient-9);}.cls-11{fill:url(#linear-gradient-10);}.cls-12{fill:url(#linear-gradient-11);}.cls-13{fill:url(#linear-gradient-12);}.cls-14{fill:url(#linear-gradient-13);}.cls-15{fill:url(#linear-gradient-14);}.cls-16{fill:url(#linear-gradient-15);}.cls-17{fill:url(#linear-gradient-16);}.cls-18{fill:url(#linear-gradient-17);}.cls-19{fill:url(#linear-gradient-18);}.cls-20{fill:url(#linear-gradient-19);}.cls-21{fill:url(#linear-gradient-20);}.cls-22{fill:url(#linear-gradient-21);}.cls-23{fill:url(#linear-gradient-22);}.cls-24{fill:url(#linear-gradient-23);}.cls-25{fill:url(#linear-gradient-24);}.cls-26{fill:url(#linear-gradient-25);}.cls-27{fill:url(#linear-gradient-26);}.cls-28{fill:url(#linear-gradient-27);}.cls-29{fill:url(#linear-gradient-28);}.cls-30{fill:url(#linear-gradient-29);}.cls-31{fill:url(#linear-gradient-30);}.cls-32{fill:url(#linear-gradient-31);}.cls-33{fill:url(#linear-gradient-32);}.cls-34{fill:url(#linear-gradient-33);}</style><linearGradient id="linear-gradient" x1="60" y1="33.57848" x2="60" y2="-19.73974" gradientUnits="userSpaceOnUse"><stop offset="0" stop-color="#9fdad9" stop-opacity="0"/><stop offset="0.2572" stop-color="#aae3e2" stop-opacity="0.2418"/><stop offset="0.84868" stop-color="#c5f9f7" stop-opacity="0.84237"/><stop offset="1" stop-color="#ccfffd"/></linearGradient><linearGradient id="linear-gradient-2" x1="60" y1="77.17743" x2="60" y2="114.14036" gradientUnits="userSpaceOnUse"><stop offset="0.189" stop-color="#0884c2" stop-opacity="0"/><stop offset="0.33529" stop-color="#0884c2" stop-opacity="0.26739"/><stop offset="0.49739" stop-color="#0884c2" stop-opacity="0.52685"/><stop offset="0.65042" stop-color="#0884c2" stop-opacity="0.73186"/><stop offset="0.78972" stop-color="#0884c2" stop-opacity="0.87892"/><stop offset="0.91079" stop-color="#0884c2" stop-opacity="0.96833"/><stop offset="0.99998" stop-color="#0884c2"/></linearGradient><linearGradient id="linear-gradient-3" x1="795.92596" y1="539.98935" x2="796.2401" y2="552.86915" gradientUnits="userSpaceOnUse"><stop offset="0" stop-color="#9fdad9" stop-opacity="0"/><stop offset="0.00237" stop-color="#9fdad9" stop-opacity="0.00885"/><stop offset="0.0629" stop-color="#9fdad9" stop-opacity="0.21565"/><stop offset="0.12722" stop-color="#9fdad9" stop-opacity="0.39878"/><stop offset="0.19791" stop-color="#9fdad9" stop-opacity="0.56159"/><stop offset="0.27424" stop-color="#9fdad9" stop-opacity="0.69835"/><stop offset="0.35807" stop-color="#9fdad9" stop-opacity="0.80938"/><stop offset="0.45253" stop-color="#9fdad9" stop-opacity="0.89488"/><stop offset="0.56359" stop-color="#9fdad9" stop-opacity="0.95497"/><stop offset="0.70712" stop-color="#9fdad9" stop-opacity="0.98986"/><stop offset="1" stop-color="#9fdad9"/></linearGradient><linearGradient id="linear-gradient-4" x1="814.03953" y1="538.76037" x2="813.85146" y2="558.97738" gradientUnits="userSpaceOnUse"><stop offset="0" stop-color="#9fdad9" stop-opacity="0"/><stop offset="0.01567" stop-color="#9fdad9" stop-opacity="0.07247"/><stop offset="0.06675" stop-color="#9fdad9" stop-opacity="0.28484"/><stop offset="0.12112" stop-color="#9fdad9" stop-opacity="0.47314"/><stop offset="0.17794" stop-color="#9fdad9" stop-opacity="0.63167"/><stop offset="0.23792" stop-color="#9fdad9" stop-opacity="0.76071"/><stop offset="0.30214" stop-color="#9fdad9" stop-opacity="0.86044"/><stop offset="0.37266" stop-color="#9fdad9" stop-opacity="0.93103"/><stop offset="0.45423" stop-color="#9fdad9" stop-opacity="0.9726"/><stop offset="0.5725" stop-color="#9fdad9" stop-opacity="0.98544"/><stop offset="0.61545" stop-color="#9fdad9" stop-opacity="0.99141"/><stop offset="1" stop-color="#9fdad9"/></linearGradient><linearGradient id="linear-gradient-5" x1="805" y1="547.15117" x2="805" y2="561.177" gradientUnits="userSpaceOnUse"><stop offset="0.28931" stop-color="#0884c2" stop-opacity="0"/><stop offset="0.41751" stop-color="#0884c2" stop-opacity="0.26739"/><stop offset="0.55956" stop-color="#0884c2" stop-opacity="0.52685"/><stop offset="0.69366" stop-color="#0884c2" stop-opacity="0.73186"/><stop offset="0.81573" stop-color="#0884c2" stop-opacity="0.87892"/><stop offset="0.92182" stop-color="#0884c2" stop-opacity="0.96833"/><stop offset="0.99998" stop-color="#0884c2"/></linearGradient><linearGradient id="linear-gradient-6" x1="41.90121" y1="46.76763" x2="51.14589" y2="32.73898" gradientUnits="userSpaceOnUse"><stop offset="0" stop-color="#aff0ef"/><stop offset="0.28482" stop-color="#83e2e2"/><stop offset="0.92651" stop-color="#14bec2"/><stop offset="1" stop-color="#07babe"/></linearGradient><linearGradient id="linear-gradient-7" x1="37.27852" y1="28.85192" x2="42.9236" y2="20.2856" gradientUnits="userSpaceOnUse"><stop offset="0" stop-color="#adedec"/><stop offset="0.28801" stop-color="#81dfe0"/><stop offset="0.93696" stop-color="#12bdc1"/><stop offset="1" stop-color="#07babe"/></linearGradient><linearGradient id="linear-gradient-8" x1="83.66006" y1="35.40677" x2="93.41134" y2="35.40677" xlink:href="#linear-gradient-7"/><linearGradient id="linear-gradient-9" x1="47.11422" y1="85.44289" x2="52" y2="85.44289" xlink:href="#linear-gradient-7"/><linearGradient id="linear-gradient-10" x1="43.40647" y1="80.92037" x2="51.73525" y2="87.04446" gradientUnits="userSpaceOnUse"><stop offset="0" stop-color="#07babe" stop-opacity="0"/><stop offset="0.25381" stop-color="#07babe" stop-opacity="0.23252"/><stop offset="0.82519" stop-color="#07babe" stop-opacity="0.81512"/><stop offset="1" stop-color="#07babe"/></linearGradient><linearGradient id="linear-gradient-11" x1="818.11118" y1="472.62819" x2="807.52426" y2="517.39573" xlink:href="#linear-gradient-7"/><linearGradient id="linear-gradient-12" x1="69.76364" y1="39.71268" x2="65.90216" y2="56.33568" gradientUnits="userSpaceOnUse"><stop offset="0" stop-color="#07babe" stop-opacity="0"/><stop offset="0.24895" stop-color="#07aebf" stop-opacity="0.22779"/><stop offset="0.80917" stop-color="#088fc1" stop-opacity="0.7983"/><stop offset="1" stop-color="#0884c2"/></linearGradient><linearGradient id="linear-gradient-13" x1="89.63303" y1="50.0266" x2="98.21485" y2="49.93017" xlink:href="#linear-gradient-12"/><linearGradient id="linear-gradient-14" x1="818.90673" y1="464.41583" x2="815.26727" y2="479.03643" xlink:href="#linear-gradient-7"/><linearGradient id="linear-gradient-15" x1="72.0484" y1="19.9724" x2="59.35055" y2="15.01138" xlink:href="#linear-gradient-12"/><linearGradient id="linear-gradient-16" x1="54.1121" y1="22.12122" x2="48.44041" y2="13.73972" xlink:href="#linear-gradient-12"/><linearGradient id="linear-gradient-17" x1="74.43127" y1="21.70241" x2="87.24263" y2="26.98822" xlink:href="#linear-gradient-12"/><linearGradient id="linear-gradient-18" x1="769.12146" y1="512.67931" x2="787.3245" y2="485.05651" gradientUnits="userSpaceOnUse"><stop offset="0" stop-color="#abebea"/><stop offset="0.29126" stop-color="#7fdede"/><stop offset="0.94775" stop-color="#10bdc0"/><stop offset="1" stop-color="#07babe"/></linearGradient><linearGradient id="linear-gradient-19" x1="29.10468" y1="54.31403" x2="26.01413" y2="45.04239" xlink:href="#linear-gradient-12"/><linearGradient id="linear-gradient-20" x1="31.7213" y1="61.74058" x2="34.86439" y2="69.75238" xlink:href="#linear-gradient-12"/><linearGradient id="linear-gradient-21" x1="792.16317" y1="502.0227" x2="798.26188" y2="523.80382" gradientUnits="userSpaceOnUse"><stop offset="0.0051" stop-color="#aff0ef"/><stop offset="0.28847" stop-color="#83e2e2"/><stop offset="0.92689" stop-color="#14bec2"/><stop offset="1" stop-color="#07babe"/></linearGradient><linearGradient id="linear-gradient-22" x1="48.78484" y1="65.2582" x2="61.28484" y2="50.2582" xlink:href="#linear-gradient-12"/><linearGradient id="linear-gradient-23" x1="43.58573" y1="72.81868" x2="37.84379" y2="79.8832" xlink:href="#linear-gradient-12"/><linearGradient id="linear-gradient-24" x1="777.16481" y1="493.35261" x2="782.47126" y2="485.20608" xlink:href="#linear-gradient-18"/><linearGradient id="linear-gradient-25" x1="37.66075" y1="48.31744" x2="43.52075" y2="55.03744" xlink:href="#linear-gradient-12"/><linearGradient id="linear-gradient-26" x1="31.10468" y1="40.31403" x2="28.01413" y2="31.04239" xlink:href="#linear-gradient-12"/><linearGradient id="linear-gradient-27" x1="825.99118" y1="505.06039" x2="832.56165" y2="527.90769" gradientUnits="userSpaceOnUse"><stop offset="0.0051" stop-color="#b1f2f1"/><stop offset="0.28528" stop-color="#85e3e4"/><stop offset="0.91657" stop-color="#16bfc3"/><stop offset="1" stop-color="#07babe"/></linearGradient><linearGradient id="linear-gradient-28" x1="86.49776" y1="64" x2="93.55828" y2="64" xlink:href="#linear-gradient-12"/><linearGradient id="linear-gradient-29" x1="78.24197" y1="72.57429" x2="80.34903" y2="79.31691" xlink:href="#linear-gradient-12"/><linearGradient id="linear-gradient-30" x1="78.45873" y1="64.88091" x2="72.08796" y2="59.96632" xlink:href="#linear-gradient-12"/><linearGradient id="linear-gradient-31" x1="813.92244" y1="519.69567" x2="805.35005" y2="531.31729" gradientUnits="userSpaceOnUse"><stop offset="0" stop-color="#aef0ee"/><stop offset="0.2864" stop-color="#82e2e1"/><stop offset="0.93176" stop-color="#13bec1"/><stop offset="1" stop-color="#07babe"/></linearGradient><linearGradient id="linear-gradient-32" x1="63.03555" y1="76.55959" x2="54.0668" y2="68.99709" xlink:href="#linear-gradient-12"/><linearGradient id="linear-gradient-33" x1="69.80638" y1="83.15959" x2="77.89084" y2="89.94232" xlink:href="#linear-gradient-12"/></defs><title>Innovation</title><circle class="cls-1" cx="60" cy="60" r="60"/><rect class="cls-2" x="46" y="93" width="28" height="14" rx="4" ry="4"/><rect class="cls-3" x="46" y="93" width="28" height="14" rx="4" ry="4"/><path class="cls-4" d="M797,548v-6a4,4,0,0,1,4-4h-6a4,4,0,0,0-4,4v6a4,4,0,0,0,4,4h6A4,4,0,0,1,797,548Z" transform="translate(-745 -445)"/><path class="cls-5" d="M813,548v-6a4,4,0,0,0-4-4h6a4,4,0,0,1,4,4v6a4,4,0,0,1-4,4h-6A4,4,0,0,0,813,548Z" transform="translate(-745 -445)"/><path class="cls-2" d="M816,554a5,5,0,0,1-5,5H799a5,5,0,0,1-5-5h22Z" transform="translate(-745 -445)"/><path class="cls-6" d="M816,554a5,5,0,0,1-5,5H799a5,5,0,0,1-5-5h22Z" transform="translate(-745 -445)"/><circle class="cls-2" cx="47.54167" cy="38.20833" r="7.125"/><circle class="cls-7" cx="47.54167" cy="38.20833" r="7.125"/><circle class="cls-2" cx="39.62467" cy="25.29167" r="4.875"/><circle class="cls-8" cx="39.62467" cy="25.29167" r="4.875"/><circle class="cls-9" cx="88.5357" cy="35.40677" r="4.87564"/><circle class="cls-10" cx="49.55711" cy="85.44289" r="2.44289"/><circle class="cls-11" cx="49.55711" cy="85.44289" r="2.44289"/><path class="cls-2" d="M823.71441,485.53926C822.57988,481.12822,818.71435,477.6978,814,478a10.71967,10.71967,0,0,1-9.9239-5.05171A13.352,13.352,0,0,1,802,464a4.8799,4.8799,0,0,0-5-5,5,5,0,0,0-5,5,5.255,5.255,0,0,0,3.74726,4.83217,16.97654,16.97654,0,0,1,6.675,5.17531c1.74649,2.33807,2.39019,8.43,1.89019,11.055A14.21017,14.21017,0,0,0,804,488.25a10.071,10.071,0,0,0,9.81248,9.75,9.75924,9.75924,0,0,0,7.10206-2.797,8.685,8.685,0,0,1,5.34614-2.07066,8.4757,8.4757,0,0,1,7.086,3.82965A4.294,4.294,0,0,0,837,499a4,4,0,0,0,0-8,4.82585,4.82585,0,0,0-1.91187.40515,8.46711,8.46711,0,0,1-3.32812.68079A8.253,8.253,0,0,1,823.71441,485.53926Z" transform="translate(-745 -445)"/><path class="cls-12" d="M823.71441,485.53926C822.57988,481.12822,818.71435,477.6978,814,478a10.71967,10.71967,0,0,1-9.9239-5.05171A13.352,13.352,0,0,1,802,464a4.8799,4.8799,0,0,0-5-5,5,5,0,0,0-5,5,5.255,5.255,0,0,0,3.74726,4.83217,16.97654,16.97654,0,0,1,6.675,5.17531c1.74649,2.33807,2.39019,8.43,1.89019,11.055A14.21017,14.21017,0,0,0,804,488.25a10.071,10.071,0,0,0,9.81248,9.75,9.75924,9.75924,0,0,0,7.10206-2.797,8.685,8.685,0,0,1,5.34614-2.07066,8.4757,8.4757,0,0,1,7.086,3.82965A4.294,4.294,0,0,0,837,499a4,4,0,0,0,0-8,4.82585,4.82585,0,0,0-1.91187.40515,8.46711,8.46711,0,0,1-3.32812.68079A8.253,8.253,0,0,1,823.71441,485.53926Z" transform="translate(-745 -445)"/><circle class="cls-13" cx="69" cy="43" r="10"/><circle class="cls-14" cx="92" cy="50" r="4"/><path class="cls-15" d="M825,464c-2.72978,0-2.79554,1.62469-4.6944,1.62469A3.29337,3.29337,0,0,1,817,463a5,5,0,0,0-5-5,4.38473,4.38473,0,0,0-1.87866.37195c-0.10852.04413-.20776,0.10254-0.31232,0.15387-0.07379.03876-.14777,0.07672-0.2196,0.1192a4.96807,4.96807,0,0,0-2.52606,3.72644,4.80647,4.80647,0,0,0-.05145.51031C807.01093,462.92206,807,462.95953,807,463c0,0.01257.0036,0.02411,0.00372,0.03668-0.00037.02338-.00372,0.04645-0.00372,0.06982a4.872,4.872,0,0,0,3.96667,4.784A5.01193,5.01193,0,0,0,812,468a4.83123,4.83123,0,0,0,1.2811-.1723c1.75207-.4808,1.48265-1.21057,3.19375-1.21057a3.68405,3.68405,0,0,1,3.41345,2.3031c0.40382,1.00007.10037,2.16335,1.65774,3.68A4.86621,4.86621,0,0,0,824.93567,474c0.01068,0,.02075-0.00323.03143-0.0033C824.97833,473.99677,824.98871,474,825,474A5,5,0,0,0,825,464Z" transform="translate(-745 -445)"/><circle class="cls-16" cx="67" cy="18" r="5"/><circle class="cls-17" cx="52" cy="19" r="5"/><circle class="cls-18" cx="80" cy="24" r="5"/><path class="cls-2" d="M775.90173,500.79205c0-.38542.00071-0.78244,0.034-1.16511C776.08734,497.882,777,497.88915,777,496a4,4,0,0,0-8,0,3.85735,3.85735,0,0,0,1.837,3.343,9.33962,9.33962,0,0,1,2.0355,1.38629,6.47218,6.47218,0,0,1,2.15524,4.56744,7.31571,7.31571,0,0,1-.20937,2.07368c-0.29755,1.00034-.71417,1.088-0.81834,2.62962a3.91091,3.91091,0,0,0,4,4,3.98895,3.98895,0,0,0,1.67655-7.61355C777.40851,505.292,775.90173,503.70465,775.90173,500.79205Z" transform="translate(-745 -445)"/><path class="cls-19" d="M775.90173,500.79205c0-.38542.00071-0.78244,0.034-1.16511C776.08734,497.882,777,497.88915,777,496a4,4,0,0,0-8,0,3.85735,3.85735,0,0,0,1.837,3.343,9.33962,9.33962,0,0,1,2.0355,1.38629,6.47218,6.47218,0,0,1,2.15524,4.56744,7.31571,7.31571,0,0,1-.20937,2.07368c-0.29755,1.00034-.71417,1.088-0.81834,2.62962a3.91091,3.91091,0,0,0,4,4,3.98895,3.98895,0,0,0,1.67655-7.61355C777.40851,505.292,775.90173,503.70465,775.90173,500.79205Z" transform="translate(-745 -445)"/><circle class="cls-20" cx="28" cy="51" r="4"/><circle class="cls-21" cx="33" cy="65" r="4"/><path class="cls-2" d="M799,496a8,8,0,0,0-8,8,7.85773,7.85773,0,0,0,.16566,1.604c1.06942,5.13528.59116,9.38176-5.3447,12.28394-0.104.05086-.5184,0.20312-0.6403,0.23763a2.995,2.995,0,1,0,3.7798,3.36266c0.00419-.02561.03248-0.55378,0.10435-1.04617,1.39288-9.54242,10.62356-8.40572,11.62361-8.62057A8.00094,8.00094,0,0,0,799,496Z" transform="translate(-745 -445)"/><path class="cls-22" d="M799,496a8,8,0,0,0-8,8,7.85773,7.85773,0,0,0,.16566,1.604c1.06942,5.13528.59116,9.38176-5.3447,12.28394-0.104.05086-.5184,0.20312-0.6403,0.23763a2.995,2.995,0,1,0,3.7798,3.36266c0.00419-.02561.03248-0.55378,0.10435-1.04617,1.39288-9.54242,10.62356-8.40572,11.62361-8.62057A8.00094,8.00094,0,0,0,799,496Z" transform="translate(-745 -445)"/><circle class="cls-23" cx="54" cy="59" r="8"/><circle class="cls-24" cx="41" cy="76" r="3"/><path class="cls-25" d="M775.53078,486.32732a7.04847,7.04847,0,0,1,.67944.31788,8.9851,8.9851,0,0,1,4.85295,7.97943c0,0.3893-.06317,1.13092-0.06317,1.37537a4,4,0,1,0,4.68579-3.93091,8.994,8.994,0,0,1-6.81134-8.71887c0-.63674.12555-0.72693,0.12555-1.35022a4,4,0,1,0-5.0713,3.85492A11.32725,11.32725,0,0,1,775.53078,486.32732Z" transform="translate(-745 -445)"/><circle class="cls-26" cx="40" cy="51" r="4"/><circle class="cls-27" cx="30" cy="37" r="4"/><path class="cls-28" d="M834,506a2.95212,2.95212,0,0,0-1.5327.42823,7.11387,7.11387,0,0,1-1.34574.80827,5.89185,5.89185,0,0,1-2.34842.47676,6.06042,6.06042,0,0,1-4.81416-2.39244,3.99017,3.99017,0,1,0-4.54247,6.33275,4.97223,4.97223,0,0,1,2.66119,4.41089,4.7223,4.7223,0,0,1-.56793,2.27051A2.96727,2.96727,0,0,0,821,520a3,3,0,1,0,4.48022-2.59717,1.54315,1.54315,0,0,1-.39716-0.26227,4.98438,4.98438,0,0,1-1.86951-3.89c0-2.4141,1.89732-4.25061,4.78644-4.25061,1.684,0,2.5929.77856,3.686,1.88788A2.99435,2.99435,0,1,0,834,506Z" transform="translate(-745 -445)"/><circle class="cls-29" cx="89" cy="64" r="3"/><circle class="cls-30" cx="79" cy="75" r="3"/><circle class="cls-31" cx="76.02051" cy="63" r="4"/><path class="cls-32" d="M808.95832,518.42941a3.88041,3.88041,0,0,0-1.31528-2.44333,4.00406,4.00406,0,1,0-3.17381,6.978c0.04394,0.00583.21612,0.01522,0.4438,0.03234s0.51086,0.042.77681,0.07873a10.10276,10.10276,0,0,1,8.36125,7.4314,3.00665,3.00665,0,0,0,1.00889,1.77709,2.99833,2.99833,0,0,0,4.41241-3.98339,3.01016,3.01016,0,0,0-1.35536-1.08544c-1.00006-.40146-3.57609-0.08085-6.50187-3.16a10.06219,10.06219,0,0,1-2.48544-4.54537,5.84069,5.84069,0,0,1-.11085-0.58723C808.99412,518.745,808.97776,518.58356,808.95832,518.42941Z" transform="translate(-745 -445)"/><circle class="cls-33" cx="60" cy="74" r="4"/><circle class="cls-34" cx="72" cy="85" r="3"/></svg>