<svg id="Support" xmlns="http://www.w3.org/2000/svg" xmlns:xlink="http://www.w3.org/1999/xlink" width="120" height="120" viewBox="0 0 120 120"><defs><style>.cls-1{fill:url(#linear-gradient);}.cls-2{fill:#fff;}.cls-3{fill:url(#linear-gradient-2);}.cls-4{fill:url(#linear-gradient-3);}.cls-5{fill:url(#linear-gradient-4);}.cls-6{fill:url(#linear-gradient-5);}.cls-7{fill:url(#linear-gradient-6);}.cls-8{fill:url(#linear-gradient-7);}.cls-9{fill:url(#linear-gradient-8);}.cls-10{fill:url(#linear-gradient-9);}.cls-11{fill:url(#linear-gradient-10);}.cls-12{fill:url(#linear-gradient-11);}.cls-13{fill:url(#linear-gradient-12);}.cls-14{fill:url(#linear-gradient-13);}</style><linearGradient id="linear-gradient" x1="73" y1="60" x2="154.00617" y2="60" gradientUnits="userSpaceOnUse"><stop offset="0" stop-color="#9fdad9" stop-opacity="0"/><stop offset="0.2572" stop-color="#aae3e2" stop-opacity="0.2418"/><stop offset="0.84868" stop-color="#c5f9f7" stop-opacity="0.84237"/><stop offset="1" stop-color="#ccfffd"/></linearGradient><linearGradient id="linear-gradient-2" x1="1116.23511" y1="504.24629" x2="1093.09995" y2="481.09551" gradientUnits="userSpaceOnUse"><stop offset="0" stop-color="#0884c2" stop-opacity="0.2"/><stop offset="0.98275" stop-color="#0079b8"/></linearGradient><linearGradient id="linear-gradient-3" x1="1099.39334" y1="487.07997" x2="1077.44725" y2="465.55338" gradientUnits="userSpaceOnUse"><stop offset="0" stop-color="#0884c2"/><stop offset="1" stop-color="#9fdad9"/></linearGradient><linearGradient id="linear-gradient-4" x1="1088.61471" y1="476.39479" x2="1103.63799" y2="490.82969" gradientUnits="userSpaceOnUse"><stop offset="0" stop-color="#0884c2" stop-opacity="0"/><stop offset="0.38659" stop-color="#0884c2" stop-opacity="0.00977"/><stop offset="0.5291" stop-color="#0884c2" stop-opacity="0.04503"/><stop offset="0.63129" stop-color="#0884c2" stop-opacity="0.10642"/><stop offset="0.71415" stop-color="#0884c2" stop-opacity="0.19404"/><stop offset="0.78529" stop-color="#0884c2" stop-opacity="0.30813"/><stop offset="0.84841" stop-color="#0884c2" stop-opacity="0.44902"/><stop offset="0.90564" stop-color="#0884c2" stop-opacity="0.61708"/><stop offset="0.95652" stop-color="#0884c2" stop-opacity="0.80533"/><stop offset="1" stop-color="#0884c2"/></linearGradient><linearGradient id="linear-gradient-5" x1="1077.55515" y1="484.12387" x2="1065.8244" y2="472.61736" xlink:href="#linear-gradient-3"/><linearGradient id="linear-gradient-6" x1="1071.78847" y1="478.40975" x2="1079.75627" y2="486.06549" xlink:href="#linear-gradient-4"/><linearGradient id="linear-gradient-7" x1="1080.78835" y1="468.76546" x2="1088.87168" y2="477.01546" gradientUnits="userSpaceOnUse"><stop offset="0" stop-color="#07babe"/><stop offset="1" stop-color="#9fdad9"/></linearGradient><linearGradient id="linear-gradient-8" x1="1082.42713" y1="470.45655" x2="1092.29386" y2="481.3468" gradientUnits="userSpaceOnUse"><stop offset="0" stop-color="#0884c2"/><stop offset="0.04348" stop-color="#0884c2" stop-opacity="0.80533"/><stop offset="0.09436" stop-color="#0884c2" stop-opacity="0.61708"/><stop offset="0.15159" stop-color="#0884c2" stop-opacity="0.44902"/><stop offset="0.21471" stop-color="#0884c2" stop-opacity="0.30813"/><stop offset="0.28585" stop-color="#0884c2" stop-opacity="0.19404"/><stop offset="0.36871" stop-color="#0884c2" stop-opacity="0.10642"/><stop offset="0.4709" stop-color="#0884c2" stop-opacity="0.04503"/><stop offset="0.61341" stop-color="#0884c2" stop-opacity="0.00977"/><stop offset="1" stop-color="#0884c2" stop-opacity="0"/></linearGradient><linearGradient id="linear-gradient-9" x1="1096.34421" y1="465.49153" x2="1084.51102" y2="453.88453" xlink:href="#linear-gradient-3"/><linearGradient id="linear-gradient-10" x1="1090.53607" y1="459.78041" x2="1098.64847" y2="467.57508" xlink:href="#linear-gradient-4"/><linearGradient id="linear-gradient-11" x1="1055.11444" y1="495.54664" x2="1109.23361" y2="442.75555" gradientUnits="userSpaceOnUse"><stop offset="0.0051" stop-color="#07babe" stop-opacity="0.7"/><stop offset="0.10123" stop-color="#05bdc1" stop-opacity="0.63961"/><stop offset="0.31517" stop-color="#01c1c5" stop-opacity="0.53661"/><stop offset="0.47326" stop-color="#00c3c7" stop-opacity="0.5"/><stop offset="0.73532" stop-color="#03bfc3" stop-opacity="0.58605"/><stop offset="0.99998" stop-color="#07babe" stop-opacity="0.7"/></linearGradient><linearGradient id="linear-gradient-12" x1="1079.29056" y1="467.00169" x2="1129.26452" y2="520.80702" gradientUnits="userSpaceOnUse"><stop offset="0.0051" stop-color="#0884c2" stop-opacity="0"/><stop offset="0.18457" stop-color="#0884c2" stop-opacity="0.26739"/><stop offset="0.38342" stop-color="#0884c2" stop-opacity="0.52685"/><stop offset="0.57115" stop-color="#0884c2" stop-opacity="0.73186"/><stop offset="0.74204" stop-color="#0884c2" stop-opacity="0.87892"/><stop offset="0.89056" stop-color="#0884c2" stop-opacity="0.96833"/><stop offset="0.99998" stop-color="#0884c2"/></linearGradient><linearGradient id="linear-gradient-13" x1="1064.4153" y1="454.62281" x2="1102.49454" y2="488.22214" gradientUnits="userSpaceOnUse"><stop offset="0" stop-color="#c2f2f2"/><stop offset="1" stop-color="#07babe"/></linearGradient></defs><title>Support</title><circle class="cls-1" cx="60" cy="60" r="60"/><g id="Layer_5" data-name="Layer 5"><path class="cls-2" d="M1109.7706,501.76492l-25-16,13-13,15,26a2.51509,2.51509,0,0,1-1,2A2.73828,2.73828,0,0,1,1109.7706,501.76492Z" transform="translate(-1025 -414)"/><path class="cls-3" d="M1109.7706,501.76492l-25-16,13-13,15,26a2.51509,2.51509,0,0,1-1,2A2.73828,2.73828,0,0,1,1109.7706,501.76492Z" transform="translate(-1025 -414)"/><path class="cls-4" d="M1101,471a17.96941,17.96941,0,0,0-18-18,21.793,21.793,0,0,0-2.84289.17455,1.29936,1.29936,0,0,0-.74991,2.20644l7.00947,7.03366A1.99989,1.99989,0,0,1,1087,463.82638v4.34519a2,2,0,0,1-.58578,1.41421l-4.82843,4.82843a2,2,0,0,1-1.41419.58579h-4.34481a1.99993,1.99993,0,0,1-1.41223-.58383l-7.031-7.01153a1.30006,1.30006,0,0,0-2.20655.74813A21.64031,21.64031,0,0,0,1065,471,18,18,0,0,0,1101,471Z" transform="translate(-1025 -414)"/><path class="cls-5" d="M1101,471a17.96941,17.96941,0,0,0-18-18,21.793,21.793,0,0,0-2.84289.17455,1.29936,1.29936,0,0,0-.74991,2.20644l7.00947,7.03366A1.99989,1.99989,0,0,1,1087,463.82638v4.34519a2,2,0,0,1-.58578,1.41421l-4.82843,4.82843a2,2,0,0,1-1.41419.58579h-4.34481a1.99993,1.99993,0,0,1-1.41223-.58383l-7.031-7.01153a1.30006,1.30006,0,0,0-2.20655.74813A21.64031,21.64031,0,0,0,1065,471,18,18,0,0,0,1101,471Z" transform="translate(-1025 -414)"/><path class="cls-6" d="M1069.177,472.15277a1.30008,1.30008,0,0,1,2.20654-.74817l0.41382,0.41266,0.007-.00415-4.42078-4.40851a1.30008,1.30008,0,0,0-2.20654.74817A21.63733,21.63733,0,0,0,1065,471a17.93924,17.93924,0,0,0,7.43457,14.56537A17.91771,17.91771,0,0,1,1069,475,21.63733,21.63733,0,0,1,1069.177,472.15277Z" transform="translate(-1025 -414)"/><path class="cls-7" d="M1069.177,472.15277a1.30008,1.30008,0,0,1,2.20654-.74817l0.41382,0.41266,0.007-.00415-4.42078-4.40851a1.30008,1.30008,0,0,0-2.20654.74817A21.63733,21.63733,0,0,0,1065,471a17.93924,17.93924,0,0,0,7.43457,14.56537A17.91771,17.91771,0,0,1,1069,475,21.63733,21.63733,0,0,1,1069.177,472.15277Z" transform="translate(-1025 -414)"/><path class="cls-8" d="M1086.33752,462.32135l-0.00568.00812,0.08484,0.08514A2.00011,2.00011,0,0,1,1087,463.82636v4.34521a1.9998,1.9998,0,0,1-.58581,1.41418l-4.82837,4.82843a2.0002,2.0002,0,0,1-1.41424.58582h-4.34479a1.9999,1.9999,0,0,1-1.41223-.58386l-0.45837-.45715-0.00348.00769,4.46185,4.44946a1.9999,1.9999,0,0,0,1.41223.58386h4.34479a2.0002,2.0002,0,0,0,1.41424-.58582l4.82837-4.82843A1.99969,1.99969,0,0,0,1091,472.17157v-4.34521a2.00011,2.00011,0,0,0-.58331-1.41174Z" transform="translate(-1025 -414)"/><path class="cls-9" d="M1086.33752,462.32135l-0.00568.00812,0.08484,0.08514A2.00011,2.00011,0,0,1,1087,463.82636v4.34521a1.9998,1.9998,0,0,1-.58581,1.41418l-4.82837,4.82843a2.0002,2.0002,0,0,1-1.41424.58582h-4.34479a1.9999,1.9999,0,0,1-1.41223-.58386l-0.45837-.45715-0.00348.00769,4.46185,4.44946a1.9999,1.9999,0,0,0,1.41223.58386h4.34479a2.0002,2.0002,0,0,0,1.41424-.58582l4.82837-4.82843A1.99969,1.99969,0,0,0,1091,472.17157v-4.34521a2.00011,2.00011,0,0,0-.58331-1.41174Z" transform="translate(-1025 -414)"/><path class="cls-10" d="M1084.155,460.14508l0.00867-.00513-0.75641-.759a1.2993,1.2993,0,0,1,.74988-2.20642A21.79012,21.79012,0,0,1,1087,457a17.91793,17.91793,0,0,1,10.56549,3.43457A17.93983,17.93983,0,0,0,1083,453a21.79012,21.79012,0,0,0-2.8429.17456,1.2993,1.2993,0,0,0-.74988,2.20642Z" transform="translate(-1025 -414)"/><path class="cls-11" d="M1084.155,460.14508l0.00867-.00513-0.75641-.759a1.2993,1.2993,0,0,1,.74988-2.20642A21.79012,21.79012,0,0,1,1087,457a17.91793,17.91793,0,0,1,10.56549,3.43457A17.93983,17.93983,0,0,0,1083,453a21.79012,21.79012,0,0,0-2.8429.17456,1.2993,1.2993,0,0,0-.74988,2.20642Z" transform="translate(-1025 -414)"/><path class="cls-2" d="M1089.99164,493.96827a25.131,25.131,0,0,1-7,1,24,24,0,1,1,24-24c0,2.36531-1.34,5.56915-1.99164,7.03173l7,7,6-1a1.75759,1.75759,0,0,0,1.70754-1.19241l1.00318-3.74389a2,2,0,0,0-.64721-2.05052l-4.0281-3.37579v-5.94193l3.85956-2.70651a2,2,0,0,0,.78355-2.15515l-0.99148-3.70017a2,2,0,0,0-1.58323-1.45173l-4.98474-.88239-2.74771-4.7592,1.72821-4.75806a2,2,0,0,0-.46563-2.097l-2.798-2.798a2,2,0,0,0-2.097-.46563l-4.75806,1.72821-4.7592-2.74778-0.88239-4.98473a2,2,0,0,0-1.45176-1.58324l-3.89546-1.04375a2,2,0,0,0-1.97585.56307l-3.87888,4.13237h-4.75354l-3.4085-4.06707a2,2,0,0,0-2.0505-.6472l-3.77881,1.01252a2,2,0,0,0-1.45175,1.58326l-0.89118,5.03476-4.75927,2.74778-4.75806-1.72821a2,2,0,0,0-2.097.46563l-2.798,2.798a2,2,0,0,0-.46563,2.097l1.7282,4.75806-2.74771,4.7592-4.98474.88239a2,2,0,0,0-1.58323,1.45173l-1.04477,3.899a2,2,0,0,0,.559,1.97207l3.13966,2.96351v6l-3.15871,3.04544a2,2,0,0,0-.54369,1.95744l1.04848,3.91293a2,2,0,0,0,1.58326,1.45174l4.98472,0.88233,2.74771,4.7592-1.72821,4.75813a2,2,0,0,0,.46563,2.097l2.798,2.798a2,2,0,0,0,2.097.46563l4.75806-1.7282,4.75927,2.74771,0.88233,4.98472a2,2,0,0,0,1.45174,1.58326l3.89256,1.043a2,2,0,0,0,1.97888-.56628l2.983-3.192h6l3.02482,3.2018a2,2,0,0,0,1.97147.55839l3.62248-.97065A1.69526,1.69526,0,0,0,1096,506l1-5Z" transform="translate(-1025 -414)"/><path class="cls-12" d="M1089.99164,493.96827a25.131,25.131,0,0,1-7,1,24,24,0,1,1,24-24c0,2.36531-1.34,5.56915-1.99164,7.03173l7,7,6-1a1.75759,1.75759,0,0,0,1.70754-1.19241l1.00318-3.74389a2,2,0,0,0-.64721-2.05052l-4.0281-3.37579v-5.94193l3.85956-2.70651a2,2,0,0,0,.78355-2.15515l-0.99148-3.70017a2,2,0,0,0-1.58323-1.45173l-4.98474-.88239-2.74771-4.7592,1.72821-4.75806a2,2,0,0,0-.46563-2.097l-2.798-2.798a2,2,0,0,0-2.097-.46563l-4.75806,1.72821-4.7592-2.74778-0.88239-4.98473a2,2,0,0,0-1.45176-1.58324l-3.89546-1.04375a2,2,0,0,0-1.97585.56307l-3.87888,4.13237h-4.75354l-3.4085-4.06707a2,2,0,0,0-2.0505-.6472l-3.77881,1.01252a2,2,0,0,0-1.45175,1.58326l-0.89118,5.03476-4.75927,2.74778-4.75806-1.72821a2,2,0,0,0-2.097.46563l-2.798,2.798a2,2,0,0,0-.46563,2.097l1.7282,4.75806-2.74771,4.7592-4.98474.88239a2,2,0,0,0-1.58323,1.45173l-1.04477,3.899a2,2,0,0,0,.559,1.97207l3.13966,2.96351v6l-3.15871,3.04544a2,2,0,0,0-.54369,1.95744l1.04848,3.91293a2,2,0,0,0,1.58326,1.45174l4.98472,0.88233,2.74771,4.7592-1.72821,4.75813a2,2,0,0,0,.46563,2.097l2.798,2.798a2,2,0,0,0,2.097.46563l4.75806-1.7282,4.75927,2.74771,0.88233,4.98472a2,2,0,0,0,1.45174,1.58326l3.89256,1.043a2,2,0,0,0,1.97888-.56628l2.983-3.192h6l3.02482,3.2018a2,2,0,0,0,1.97147.55839l3.62248-.97065A1.69526,1.69526,0,0,0,1096,506l1-5Z" transform="translate(-1025 -414)"/><path class="cls-13" d="M1089.99164,493.96827a25.131,25.131,0,0,1-7,1,24,24,0,1,1,24-24c0,2.36531-1.34,5.56915-1.99164,7.03173l7,7,6-1a1.75759,1.75759,0,0,0,1.70754-1.19241l1.00318-3.74389a2,2,0,0,0-.64721-2.05052l-4.0281-3.37579v-5.94193l3.85956-2.70651a2,2,0,0,0,.78355-2.15515l-0.99148-3.70017a2,2,0,0,0-1.58323-1.45173l-4.98474-.88239-2.74771-4.7592,1.72821-4.75806a2,2,0,0,0-.46563-2.097l-2.798-2.798a2,2,0,0,0-2.097-.46563l-4.75806,1.72821-4.7592-2.74778-0.88239-4.98473a2,2,0,0,0-1.45176-1.58324l-3.89546-1.04375a2,2,0,0,0-1.97585.56307l-3.87888,4.13237h-4.75354l-3.4085-4.06707a2,2,0,0,0-2.0505-.6472l-3.77881,1.01252a2,2,0,0,0-1.45175,1.58326l-0.89118,5.03476-4.75927,2.74778-4.75806-1.72821a2,2,0,0,0-2.097.46563l-2.798,2.798a2,2,0,0,0-.46563,2.097l1.7282,4.75806-2.74771,4.7592-4.98474.88239a2,2,0,0,0-1.58323,1.45173l-1.04477,3.899a2,2,0,0,0,.559,1.97207l3.13966,2.96351v6l-3.15871,3.04544a2,2,0,0,0-.54369,1.95744l1.04848,3.91293a2,2,0,0,0,1.58326,1.45174l4.98472,0.88233,2.74771,4.7592-1.72821,4.75813a2,2,0,0,0,.46563,2.097l2.798,2.798a2,2,0,0,0,2.097.46563l4.75806-1.7282,4.75927,2.74771,0.88233,4.98472a2,2,0,0,0,1.45174,1.58326l3.89256,1.043a2,2,0,0,0,1.97888-.56628l2.983-3.192h6l3.02482,3.2018a2,2,0,0,0,1.97147.55839l3.62248-.97065A1.69526,1.69526,0,0,0,1096,506l1-5Z" transform="translate(-1025 -414)"/><path class="cls-14" d="M1083.01029,442.01a29,29,0,0,0-29,29c0,20.66935,20.87532,34.44313,39.88165,26.88129l-3.9003-3.923a25.154,25.154,0,0,1-7.0021,1.02064,24,24,0,1,1,24-24c0,2.3653-1.33787,5.54851-1.98954,7.0111l4.5,4.5C1117.56705,463.50015,1103.95338,442.01,1083.01029,442.01Z" transform="translate(-1025 -414)"/></g></svg>