<svg xmlns="http://www.w3.org/2000/svg" xmlns:xlink="http://www.w3.org/1999/xlink" width="324" height="324" viewBox="0 0 324 324">
  <defs>
    <style>
      .cls-1 {
        fill: none;
      }

      .cls-2 {
        clip-path: url(#clip-path);
      }

      .cls-10, .cls-11, .cls-12, .cls-13, .cls-14, .cls-15, .cls-16, .cls-3, .cls-4, .cls-5, .cls-6, .cls-7, .cls-8, .cls-9 {
        fill-opacity: 0.46;
      }

      .cls-10, .cls-12, .cls-13, .cls-14, .cls-15, .cls-16, .cls-3, .cls-4, .cls-5, .cls-6, .cls-7, .cls-8, .cls-9 {
        opacity: 0.8;
      }

      .cls-3 {
        fill: url(#linear-gradient);
      }

      .cls-4 {
        fill: url(#linear-gradient-2);
      }

      .cls-5 {
        fill: url(#linear-gradient-3);
      }

      .cls-6 {
        fill: url(#linear-gradient-4);
      }

      .cls-7 {
        fill: url(#linear-gradient-5);
      }

      .cls-8 {
        fill: url(#linear-gradient-10);
      }

      .cls-9 {
        fill: url(#linear-gradient-11);
      }

      .cls-10 {
        fill: url(#linear-gradient-12);
      }

      .cls-11 {
        opacity: 0.7;
        fill: url(#linear-gradient-13);
      }

      .cls-12 {
        fill: url(#linear-gradient-14);
      }

      .cls-13 {
        fill: url(#linear-gradient-15);
      }

      .cls-14 {
        fill: url(#linear-gradient-16);
      }

      .cls-15 {
        fill: url(#linear-gradient-17);
      }

      .cls-16 {
        fill: url(#linear-gradient-18);
      }

      .cls-17 {
        fill: url(#linear-gradient-19);
      }

      .cls-18 {
        fill: url(#linear-gradient-20);
      }

      .cls-19 {
        fill: url(#linear-gradient-21);
      }

      .cls-20 {
        fill: url(#linear-gradient-22);
      }
    </style>
    <clipPath id="clip-path">
      <rect class="cls-1" width="324" height="324"/>
    </clipPath>
    <linearGradient id="linear-gradient" x1="226.83954" y1="179.64629" x2="226.82882" y2="179.68079" gradientUnits="userSpaceOnUse">
      <stop offset="0" stop-color="#0884c2" stop-opacity="0"/>
      <stop offset="0.25761" stop-color="#0884c2" stop-opacity="0.23705"/>
      <stop offset="0.83931" stop-color="#0884c2" stop-opacity="0.83034"/>
      <stop offset="1" stop-color="#0884c2"/>
    </linearGradient>
    <linearGradient id="linear-gradient-2" x1="225.263" y1="178.30115" x2="225.16575" y2="178.61423" xlink:href="#linear-gradient"/>
    <linearGradient id="linear-gradient-3" x1="131.92747" y1="116.88124" x2="131.85033" y2="117.1296" xlink:href="#linear-gradient"/>
    <linearGradient id="linear-gradient-4" x1="245.67594" y1="-1.20535" x2="188.06424" y2="156.85417" xlink:href="#linear-gradient"/>
    <linearGradient id="linear-gradient-5" x1="228.95444" y1="181.72257" x2="228.92599" y2="181.81415" xlink:href="#linear-gradient"/>
    <linearGradient id="linear-gradient-10" x1="247.51631" y1="179.64629" x2="247.50559" y2="179.68079" xlink:href="#linear-gradient"/>
    <linearGradient id="linear-gradient-11" x1="245.93977" y1="178.30115" x2="245.84252" y2="178.61423" xlink:href="#linear-gradient"/>
    <linearGradient id="linear-gradient-12" x1="152.60424" y1="116.88124" x2="152.52709" y2="117.1296" xlink:href="#linear-gradient"/>
    <linearGradient id="linear-gradient-13" x1="184.12339" y1="55.56145" x2="165.08221" y2="44.8124" gradientUnits="userSpaceOnUse">
      <stop offset="0" stop-color="#9fdad9" stop-opacity="0"/>
      <stop offset="0.26265" stop-color="#7ad2d2" stop-opacity="0.24198"/>
      <stop offset="0.85587" stop-color="#1ebfc2" stop-opacity="0.84774"/>
      <stop offset="1" stop-color="#07babe"/>
    </linearGradient>
    <linearGradient id="linear-gradient-14" x1="249.16031" y1="133.13186" x2="271.67495" y2="128.58564" xlink:href="#linear-gradient-13"/>
    <linearGradient id="linear-gradient-15" x1="249.63121" y1="181.72257" x2="249.60276" y2="181.81415" xlink:href="#linear-gradient"/>
    <linearGradient id="linear-gradient-16" x1="105.75448" y1="308.4208" x2="199.05378" y2="76.39373" xlink:href="#linear-gradient"/>
    <linearGradient id="linear-gradient-17" x1="87.86207" y1="245.91343" x2="70.6104" y2="231.58523" xlink:href="#linear-gradient-13"/>
    <linearGradient id="linear-gradient-18" x1="156.92661" y1="260.33442" x2="154.39212" y2="233.1792" xlink:href="#linear-gradient-13"/>
    <linearGradient id="linear-gradient-19" x1="86.45427" y1="208.30504" x2="178.10497" y2="227.88092" gradientUnits="userSpaceOnUse">
      <stop offset="0" stop-color="#be5db3" stop-opacity="0"/>
      <stop offset="0.9949" stop-color="#be5db3" stop-opacity="0.80777"/>
    </linearGradient>
    <linearGradient id="linear-gradient-20" x1="119.51441" y1="89.1375" x2="230.39703" y2="126.73784" xlink:href="#linear-gradient-19"/>
    <linearGradient id="linear-gradient-21" x1="191.84424" y1="124.76028" x2="175.18914" y2="166.5121" xlink:href="#linear-gradient-19"/>
    <linearGradient id="linear-gradient-22" x1="258.6071" y1="4.28523" x2="233.55018" y2="91.26455" xlink:href="#linear-gradient-19"/>
  </defs>
  <title>finalArtboard 5</title>
  <g id="Layer_10" data-name="Layer 10">
    <g class="cls-2">
      <g>
        <g>
          <path class="cls-3" d="M226.88564,179.69757c-.03168-.02826-.06671-.05377-.09863-.08185C226.81893,179.6438,226.8539,179.66931,226.88564,179.69757Z"/>
          <path class="cls-4" d="M225.81136,178.80689q-.55765-.42947-1.15509-.82355Q225.25384,178.37683,225.81136,178.80689Z"/>
          <path class="cls-5" d="M131.22652,116.56091a15.66074,15.66074,0,0,1,1.35559.78973A15.16313,15.16313,0,0,0,131.22652,116.56091Z"/>
          <g>
            <path class="cls-1" d="M272.60351,84.37568c-23.17407,35.19086,12.15161,46.41162-18.11865,83.49786-8.22754,10.08026-20.57007,13.10278-24.28369,13.80884,25.09692-33.03857,27.66577-78.4198,20.3894-88.656-8.61963-12.12646-18.21289-3.85559-23.88135-3.44434a11.22285,11.22285,0,0,1-10.6123-6.98853c-1.82861-5.275,1.88672-17.46283-12.59839-20.57825-12.08447-2.59912-52.99756,17.51733-73.51074,53.961.1748.07379.34473.16467.51782.24438-.313-.14459-.62354-.29852-.94189-.42224-.70947-2.97211-3.30444-16.13855,2.98779-28.22058C154.63036,45.182,178.27319,72.675,201.43163,37.50764c5.14551-7.8136,14.66113-22.26355,24.74219-37.57245H-772V324.06477H324V6.32722C308.5808,29.74214,281.56176,70.7721,272.60351,84.37568Z"/>
            <path class="cls-6" d="M132.55151,87.57783c-6.29224,12.082-3.69727,25.24847-2.98779,28.22058.31836.12372.62891.27765.94189.42224-.1731-.07971-.343-.17059-.51782-.24438,20.51318-36.44366,61.42627-56.56012,73.51074-53.961,14.48511,3.11542,10.76978,15.30328,12.59839,20.57825a11.22285,11.22285,0,0,0,10.6123,6.98853c5.66846-.41125,15.26172-8.68213,23.88135,3.44434,7.27637,10.23621,4.70752,55.61743-20.3894,88.656,3.71362-.70605,16.05615-3.72858,24.28369-13.80884,30.27026-37.08624-5.05542-48.307,18.11865-83.49786C281.56176,70.7721,308.5808,29.74214,324,6.32722v-6.392H226.17382c-10.08105,15.3089-19.59668,29.75885-24.74219,37.57245C178.27319,72.675,154.63036,45.182,132.55151,87.57783Z"/>
          </g>
          <path class="cls-7" d="M228.8041,181.65955l-.0274-.03c.01611.0188.03412.03625.05017.05511l.2771.1825.01276-.00171Z"/>
        </g>
        <path class="cls-3" d="M226.88564,179.69757c-.03168-.02826-.06671-.05377-.09863-.08185C226.81893,179.6438,226.8539,179.66931,226.88564,179.69757Z"/>
        <path class="cls-4" d="M225.81136,178.80689q-.55765-.42947-1.15509-.82355Q225.25384,178.37683,225.81136,178.80689Z"/>
        <path class="cls-5" d="M131.22652,116.56091a15.66074,15.66074,0,0,1,1.35559.78973A15.16313,15.16313,0,0,0,131.22652,116.56091Z"/>
        <path class="cls-7" d="M228.8041,181.65955l-.0274-.03c.01611.0188.03412.03625.05017.05511l.2771.1825.01276-.00171Z"/>
        <path class="cls-8" d="M247.56241,179.69757c-.03168-.02826-.06671-.05377-.09863-.08185C247.4957,179.6438,247.53067,179.66931,247.56241,179.69757Z"/>
        <path class="cls-9" d="M246.48813,178.80689q-.55765-.42947-1.15509-.82355Q245.9306,178.37683,246.48813,178.80689Z"/>
        <path class="cls-10" d="M151.90329,116.56091a15.66071,15.66071,0,0,1,1.35559.78973A15.16311,15.16311,0,0,0,151.90329,116.56091Z"/>
        <g>
          <path class="cls-1" d="M246.85058-.06481C236.77026,15.24287,227.2539,29.694,222.10839,37.50764c-23.02563,34.9657-46.52979,7.99921-68.5,49.35944a116.74237,116.74237,0,0,0-23.62061,29.10919c.1748.07379.34473.16467.51782.24438-.313-.14459-.62354-.29852-.94189-.42224-.70947-2.97211-3.30444-16.13855,2.98779-28.22058C154.63036,45.182,178.27319,72.675,201.43163,37.50764c5.14551-7.8136,14.66113-22.26355,24.74219-37.57245H-772V324.06477H324V-.06481Z"/>
          <path class="cls-11" d="M132.55151,87.57783c-6.29224,12.082-3.69727,25.24847-2.98779,28.22058.31836.12372.62891.27765.94189.42224-.1731-.07971-.343-.17059-.51782-.24438a116.74237,116.74237,0,0,1,23.62061-29.10919c21.97021-41.36023,45.47437-14.39374,68.5-49.35944C227.2539,29.694,236.77026,15.24287,246.85058-.06481H226.17382c-10.08105,15.3089-19.59668,29.75885-24.74219,37.57245C178.27319,72.675,154.63036,45.182,132.55151,87.57783Z"/>
        </g>
        <path class="cls-12" d="M254.48488,167.87354c28.47388-34.88531-1.0874-46.8866,14.591-77.478-7.94275-8.07751-16.34589-1.31635-21.54932-.82922a20.01214,20.01214,0,0,1,3.06415,3.46c7.27631,10.23621,4.70734,55.61743-20.38947,88.656C233.91488,180.97632,246.25728,177.9538,254.48488,167.87354Z"/>
        <path class="cls-13" d="M249.48086,181.65955l-.0274-.03c.01611.0188.03412.03625.05017.05511l.2771.1825.01276-.00171Z"/>
        <g>
          <path class="cls-1" d="M-772-.06481V324.06477H30.77538l-9.6377-6.34662s52.521-77.59967,57.71509-89.80011,9.56665-33.93561,8.84961-44.34814c-.7168-10.4126-4.26-16.53284.28174-27.74274s15.11523-22.23462,15.11523-22.23462L122.727,146.56812l-15.53833,95.1098-37.293,56.63153a9.4686,9.4686,0,1,0,15.81592,10.4151l37.26514-56.58917.13086.08618,81.15527-52.01086,20.46313,13.4754S218.7749,227.75483,210.271,236.3556s-15.52612,7.76331-25.375,11.21814-28.08887,16.05811-37.24487,25.64935c-4.79761,5.02551-20.95557,29.07874-35.25293,50.84167H324V-.06481Z"/>
          <path class="cls-14" d="M184.896,247.57374c9.84888-3.45483,16.87109-2.61743,25.375-11.21814s14.45508-22.66949,14.45508-22.66949l-20.46313-13.4754-81.15527,52.01086-.13086-.08618L85.71166,308.72456a9.4686,9.4686,0,1,1-15.81592-10.4151l37.293-56.63153,15.53833-95.1098-19.62769-12.97559s-10.57349,11.02472-15.11523,22.23462-.99854,17.33014-.28174,27.74274c.717,10.41254-3.65552,32.14777-8.84961,44.34814s-57.71509,89.80011-57.71509,89.80011l9.6377,6.34662h81.6228c14.29736-21.76294,30.45532-45.81616,35.25293-50.84167C156.80712,263.63185,175.04711,251.02863,184.896,247.57374Z"/>
        </g>
        <path class="cls-15" d="M41.63766,317.71814S94.15871,240.11847,99.35274,227.918s9.56665-33.93561,8.84979-44.34814-4.26019-16.53284.28156-27.74274a65.02694,65.02694,0,0,1,7.86877-13.473l-13.25348-8.76166s-10.57349,11.02472-15.1153,22.23462-.99835,17.33014-.28156,27.74274-3.6557,32.14777-8.84979,44.34814-57.71509,89.80011-57.71509,89.80011Z"/>
        <path class="cls-16" d="M122.97689,252.13538,88.85457,303.952a9.46091,9.46091,0,0,0,17.35718,4.77258l37.26514-56.58917.13092.08618s36.90057-27.96994,48.54452-32.35489,32.5737-6.18057,32.5737-6.18057l-20.4632-13.4754-81.155,52.01086Z"/>
        <path class="cls-17" d="M224.726,213.6861l5.557-8.37421a19.72955,19.72955,0,0,0-5.62677-27.32855l-31.29968-20.61151,6.17993-9.38458a15.99452,15.99452,0,0,0-4.56152-22.15491,15.56766,15.56766,0,0,0-21.5636,4.43982l-6.41473,9.74115-34.41455-22.66266a15.99991,15.99991,0,0,0-22.16248,4.56311l-7.32025,11.67877,19.62769,12.97559-15.53827,95.1098-37.293,56.63153a9.46863,9.46863,0,0,0,15.816,10.4151l37.26514-56.58917.13092.08618,81.155-52.01086Z"/>
        <path class="cls-18" d="M132.58211,117.35065l34.41455,22.66266,6.41473-9.74115a15.56766,15.56766,0,0,1,21.5636-4.43982,15.99452,15.99452,0,0,1,4.56152,22.15491l-6.17993,9.38458,31.29968,20.61151a19.70359,19.70359,0,0,1,4.14783,3.67621l.9502.62573c25.52283-33.0863,28.15668-78.96088,20.83643-89.25891-8.61987-12.12646-18.213-3.85559-23.88135-3.44434a11.22317,11.22317,0,0,1-10.61249-6.98853c-1.82855-5.275,1.8869-17.46283-12.59827-20.57825-12.08459-2.59912-52.99762,17.51733-73.51074,53.961A16.04909,16.04909,0,0,1,132.58211,117.35065Z"/>
        <path class="cls-19" d="M132.58211,117.35065l34.41455,22.66266,6.41473-9.74115a15.56766,15.56766,0,0,1,21.5636-4.43982,15.99452,15.99452,0,0,1,4.56152,22.15491l-6.17993,9.38458,31.29968,20.61151a19.70359,19.70359,0,0,1,4.14783,3.67621l.9502.62573c25.52283-33.0863,28.15668-78.96088,20.83643-89.25891-8.61987-12.12646-18.213-3.85559-23.88135-3.44434a11.22317,11.22317,0,0,1-10.61249-6.98853c-1.82855-5.275,1.8869-17.46283-12.59827-20.57825-12.08459-2.59912-52.99762,17.51733-73.51074,53.961A16.04909,16.04909,0,0,1,132.58211,117.35065Z"/>
        <g>
          <path class="cls-1" d="M288.68969-.06481A9.59135,9.59135,0,0,1,287.532,2.40565s-36.01855,54.663-36.01343,54.68835c.02246.10962-4.23437,15.61578-8.18457,29.96411-6.35962-2.186-12.52075,2.2262-16.62476,2.52393a11.22285,11.22285,0,0,1-10.6123-6.98853c-1.31836-3.80341.24292-11.19977-4.21167-16.19885C223.18163,56.83253,235.40112,46.492,235.41747,46.491,235.54565,46.48335,256.175,15.142,266.177-.06481H-772V324.06477H324V-.06481Z"/>
          <path class="cls-20" d="M211.88525,66.39466c4.45459,4.99908,2.89331,12.39545,4.21167,16.19885a11.22285,11.22285,0,0,0,10.6123,6.98853c4.104-.29773,10.26514-4.71,16.62476-2.52393,3.9502-14.34833,8.207-29.85449,8.18457-29.96411C251.51342,57.06861,287.532,2.40565,287.532,2.40565a9.59135,9.59135,0,0,0,1.15771-2.47046H266.177C256.175,15.142,235.54565,46.48335,235.41747,46.491,235.40112,46.492,223.18163,56.83253,211.88525,66.39466Z"/>
        </g>
      </g>
    </g>
  </g>
</svg>
