<svg xmlns="http://www.w3.org/2000/svg" xmlns:xlink="http://www.w3.org/1999/xlink" width="324" height="324" viewBox="0 0 324 324">
  <defs>
    <style>
      .cls-1 {
        fill: none;
      }

      .cls-2 {
        clip-path: url(#clip-path);
      }

      .cls-10, .cls-11, .cls-12, .cls-22, .cls-23, .cls-3, .cls-32, .cls-4, .cls-8 {
        fill-opacity: 0.72;
      }

      .cls-10, .cls-11, .cls-12, .cls-22, .cls-23, .cls-3, .cls-32, .cls-34, .cls-4, .cls-5, .cls-6, .cls-7, .cls-8, .cls-9 {
        opacity: 0.8;
      }

      .cls-3 {
        fill: url(#linear-gradient);
      }

      .cls-4 {
        fill: url(#linear-gradient-2);
      }

      .cls-5, .cls-6, .cls-7, .cls-9 {
        fill-opacity: 0.46;
      }

      .cls-5 {
        fill: url(#linear-gradient-3);
      }

      .cls-6 {
        fill: url(#linear-gradient-4);
      }

      .cls-7 {
        fill: url(#linear-gradient-5);
      }

      .cls-8 {
        fill: url(#linear-gradient-6);
      }

      .cls-9 {
        fill: url(#linear-gradient-7);
      }

      .cls-10 {
        fill: url(#linear-gradient-8);
      }

      .cls-11 {
        fill: url(#linear-gradient-9);
      }

      .cls-12 {
        fill: url(#linear-gradient-10);
      }

      .cls-13 {
        fill: url(#linear-gradient-11);
      }

      .cls-14 {
        fill: url(#linear-gradient-12);
      }

      .cls-15 {
        fill: url(#linear-gradient-13);
      }

      .cls-16 {
        fill: url(#linear-gradient-14);
      }

      .cls-17 {
        fill: url(#linear-gradient-15);
      }

      .cls-18 {
        fill: url(#linear-gradient-16);
      }

      .cls-19 {
        fill: url(#linear-gradient-17);
      }

      .cls-20 {
        fill: url(#linear-gradient-18);
      }

      .cls-21 {
        fill: url(#linear-gradient-19);
      }

      .cls-22 {
        fill: url(#linear-gradient-20);
      }

      .cls-23 {
        fill: url(#linear-gradient-21);
      }

      .cls-24 {
        fill: #fff;
      }

      .cls-25 {
        fill: url(#linear-gradient-22);
      }

      .cls-26 {
        fill: url(#linear-gradient-23);
      }

      .cls-27 {
        fill: url(#linear-gradient-24);
      }

      .cls-28 {
        fill: url(#linear-gradient-25);
      }

      .cls-29 {
        fill: url(#linear-gradient-26);
      }

      .cls-30 {
        fill: url(#linear-gradient-27);
      }

      .cls-31 {
        fill: url(#linear-gradient-28);
      }

      .cls-32 {
        fill: url(#linear-gradient-29);
      }

      .cls-33 {
        fill: url(#linear-gradient-30);
      }

      .cls-35 {
        opacity: 0.72;
        fill: url(#linear-gradient-31);
      }

      .cls-36 {
        fill: url(#linear-gradient-39);
      }
    </style>
    <clipPath id="clip-path">
      <rect class="cls-1" x="-724" y="-0.78601" width="1096" height="324.1296"/>
    </clipPath>
    <linearGradient id="linear-gradient" x1="36.70733" y1="275.30623" x2="194.43728" y2="164.45219" gradientUnits="userSpaceOnUse">
      <stop offset="0" stop-color="#0884c2" stop-opacity="0"/>
      <stop offset="0.25761" stop-color="#0884c2" stop-opacity="0.23705"/>
      <stop offset="0.83931" stop-color="#0884c2" stop-opacity="0.83034"/>
      <stop offset="1" stop-color="#0884c2"/>
    </linearGradient>
    <linearGradient id="linear-gradient-2" x1="133.21691" y1="220.64978" x2="179.70533" y2="187.9773" gradientUnits="userSpaceOnUse">
      <stop offset="0" stop-color="#9fdad9" stop-opacity="0"/>
      <stop offset="0.55339" stop-color="#49c8ca" stop-opacity="0.56536"/>
      <stop offset="1" stop-color="#07babe"/>
    </linearGradient>
    <linearGradient id="linear-gradient-3" x1="115.67011" y1="236.7704" x2="95.45056" y2="240.65877" gradientUnits="userSpaceOnUse">
      <stop offset="0" stop-color="#9fdad9" stop-opacity="0"/>
      <stop offset="0.26265" stop-color="#7ad2d2" stop-opacity="0.24198"/>
      <stop offset="0.85587" stop-color="#1ebfc2" stop-opacity="0.84774"/>
      <stop offset="1" stop-color="#07babe"/>
    </linearGradient>
    <linearGradient id="linear-gradient-4" x1="158.18823" y1="236.3396" x2="134.0803" y2="240.4224" xlink:href="#linear-gradient-3"/>
    <linearGradient id="linear-gradient-5" x1="81.13016" y1="236.51978" x2="52.74501" y2="240.60257" xlink:href="#linear-gradient-3"/>
    <linearGradient id="linear-gradient-6" x1="255.11945" y1="500.20326" x2="255.11945" y2="-257.03998" xlink:href="#linear-gradient"/>
    <linearGradient id="linear-gradient-7" x1="152.25655" y1="181.42565" x2="72.25024" y2="279.10208" xlink:href="#linear-gradient-3"/>
    <linearGradient id="linear-gradient-8" x1="405.29779" y1="61.35627" x2="131.29201" y2="237.40143" xlink:href="#linear-gradient"/>
    <linearGradient id="linear-gradient-9" x1="280.96681" y1="53.91509" x2="259.79674" y2="85.20998" xlink:href="#linear-gradient-3"/>
    <linearGradient id="linear-gradient-10" x1="274.29881" y1="131.73604" x2="263.89306" y2="114.56656" xlink:href="#linear-gradient-3"/>
    <linearGradient id="linear-gradient-11" x1="68.47184" y1="229.37871" x2="83.52154" y2="242.63678" gradientUnits="userSpaceOnUse">
      <stop offset="0" stop-color="#be5db3" stop-opacity="0"/>
      <stop offset="0.9949" stop-color="#be5db3" stop-opacity="0.80777"/>
    </linearGradient>
    <linearGradient id="linear-gradient-12" x1="69.11927" y1="229.94906" x2="77.99669" y2="237.76964" xlink:href="#linear-gradient-11"/>
    <linearGradient id="linear-gradient-13" x1="108.41166" y1="229.94906" x2="117.28908" y2="237.76964" xlink:href="#linear-gradient-11"/>
    <linearGradient id="linear-gradient-14" x1="241.31558" y1="93.26675" x2="265.58936" y2="110.71353" xlink:href="#linear-gradient-11"/>
    <linearGradient id="linear-gradient-15" x1="233.37588" y1="86.13511" x2="259.2976" y2="107.11936" xlink:href="#linear-gradient-11"/>
    <linearGradient id="linear-gradient-16" x1="220.21847" y1="139.80033" x2="266.92596" y2="159.94636" xlink:href="#linear-gradient-11"/>
    <linearGradient id="linear-gradient-17" x1="102.70635" y1="231.82551" x2="127.50635" y2="242.33398" xlink:href="#linear-gradient-11"/>
    <linearGradient id="linear-gradient-18" x1="138.66727" y1="230.56814" x2="163.46727" y2="241.07661" xlink:href="#linear-gradient-11"/>
    <linearGradient id="linear-gradient-19" x1="147.23991" y1="229.90665" x2="156.11733" y2="237.72724" xlink:href="#linear-gradient-11"/>
    <linearGradient id="linear-gradient-20" x1="219.39679" y1="118.09113" x2="187.15324" y2="137.64307" xlink:href="#linear-gradient-2"/>
    <linearGradient id="linear-gradient-21" x1="89.83094" y1="142.75192" x2="240.63792" y2="177.83391" xlink:href="#linear-gradient-3"/>
    <linearGradient id="linear-gradient-22" x1="-280.0996" y1="2156.55898" x2="-267.8481" y2="2156.55898" gradientTransform="matrix(0.85701, -0.51529, 0.51529, 0.85701, -648.67627, -1727.45277)" gradientUnits="userSpaceOnUse">
      <stop offset="0" stop-color="#be5db3" stop-opacity="0"/>
      <stop offset="0.25588" stop-color="#be5db3" stop-opacity="0.1863"/>
      <stop offset="0.82057" stop-color="#be5db3" stop-opacity="0.65601"/>
      <stop offset="0.9949" stop-color="#be5db3" stop-opacity="0.80777"/>
    </linearGradient>
    <linearGradient id="linear-gradient-23" x1="-274.87378" y1="2200.38796" x2="-268.3976" y2="2200.38796" xlink:href="#linear-gradient-22"/>
    <linearGradient id="linear-gradient-24" x1="51.29709" y1="14.89936" x2="112.61172" y2="31.40715" xlink:href="#linear-gradient-11"/>
    <linearGradient id="linear-gradient-25" x1="-298.84692" y1="3243.08458" x2="-238.67673" y2="3242.45833" gradientTransform="matrix(0.85846, -0.5129, 0.33519, 0.56103, -730.91887, -1842.39855)" xlink:href="#linear-gradient-11"/>
    <linearGradient id="linear-gradient-26" x1="-289.42086" y1="2234.25641" x2="-235.48525" y2="2237.28259" gradientTransform="translate(-825.34195 -2000.48581) rotate(-30.85677)" xlink:href="#linear-gradient-11"/>
    <linearGradient id="linear-gradient-27" x1="-288.76116" y1="2093.53086" x2="-263.26689" y2="2093.53086" gradientTransform="matrix(0.85701, -0.51529, 0.51529, 0.85701, -648.67627, -1727.45277)" xlink:href="#linear-gradient-11"/>
    <linearGradient id="linear-gradient-28" x1="-287.38766" y1="2358.29809" x2="-238.79951" y2="2366.48136" gradientTransform="translate(-825.34195 -2000.48581) rotate(-30.85677)" xlink:href="#linear-gradient-11"/>
    <linearGradient id="linear-gradient-29" x1="123.42336" y1="269.078" x2="157.99292" y2="140.12806" xlink:href="#linear-gradient-3"/>
    <linearGradient id="linear-gradient-30" x1="136.36125" y1="252.03619" x2="95.75574" y2="63.82415" gradientUnits="userSpaceOnUse">
      <stop offset="0" stop-color="#be5db3" stop-opacity="0"/>
      <stop offset="1" stop-color="#be5db3" stop-opacity="0.80777"/>
    </linearGradient>
    <linearGradient id="linear-gradient-31" x1="57.86832" y1="201.42238" x2="57.86832" y2="-64.11631" xlink:href="#linear-gradient-3"/>
    <linearGradient id="linear-gradient-39" x1="92.43426" y1="-120.14145" x2="131.64102" y2="324.20184" xlink:href="#linear-gradient-11"/>
  </defs>
  <title>finalArtboard 5</title>
  <g id="Oscar3_system_copy" data-name="Oscar3_system copy">
    <g class="cls-2">
      <g>
        <path class="cls-3" d="M143.93244,156.05306a57.13585,57.13585,0,0,0-48.59082-27.07869H26.57626V279.88891A13.71256,13.71256,0,0,0,40.28885,293.6015H229.01672ZM78.51062,249.64955a11.42716,11.42716,0,1,1,11.42716-11.42716A11.42719,11.42719,0,0,1,78.51062,249.64955Zm39.29244,0a11.42716,11.42716,0,1,1,11.42716-11.42716A11.42714,11.42714,0,0,1,117.80306,249.64955Zm38.833,0a11.42716,11.42716,0,1,1,11.42716-11.42716A11.42719,11.42719,0,0,1,156.63608,249.64955Z"/>
        <path class="cls-4" d="M144.0381,156.05306a57.13585,57.13585,0,0,0-48.59082-27.07869H63.95264a57.13585,57.13585,0,0,1,48.59082,27.07869L197.62774,293.6015h31.49464Z"/>
        <path class="cls-5" d="M112.96765,227.87985a11.42718,11.42718,0,1,0,0,20.68508,11.40967,11.40967,0,0,1,0-20.68508Z"/>
        <path class="cls-6" d="M151.91763,227.87985a11.42718,11.42718,0,1,0,0,20.68508,11.40967,11.40967,0,0,1,0-20.68508Z"/>
        <path class="cls-7" d="M73.905,227.76923a11.42716,11.42716,0,1,0,0,20.90632,11.41988,11.41988,0,0,1,0-20.90632Z"/>
        <path class="cls-8" d="M40.28885,40.06962A13.71256,13.71256,0,0,0,26.57626,53.78222v75.19216H95.34162a57.13585,57.13585,0,0,1,48.59082,27.07869L229.01672,293.6015H469.95006a13.71256,13.71256,0,0,0,13.71259-13.71259V204.69856H265.05971a57.13594,57.13594,0,0,1-48.59082-27.07862L131.38461,40.07144Z"/>
        <path class="cls-9" d="M61.76611,267.7025A13.7126,13.7126,0,0,1,48.05352,253.9899V128.97438H26.57626V279.88891A13.71256,13.71256,0,0,0,40.28885,293.6015H229.01672l-16.02055-25.899Z"/>
        <path class="cls-10" d="M489.23445,53.784a13.71256,13.71256,0,0,0-13.71259-13.71259H131.38461L216.4689,177.61994a57.13594,57.13594,0,0,0,48.59082,27.07862H489.23445ZM249.07362,163.67343a11.42716,11.42716,0,1,1,11.42716-11.42716A11.42719,11.42719,0,0,1,249.07362,163.67343Zm0-37.27281a27.55777,27.55777,0,1,1,27.55777-27.55777A27.55778,27.55778,0,0,1,249.07362,126.40062Z"/>
        <path class="cls-11" d="M297.20027,70.65583a27.55777,27.55777,0,0,0-55.11554,0c0,.508.016,1.01222.0431,1.51348a27.57584,27.57584,0,0,1,34.46045,25.16A27.56829,27.56829,0,0,0,297.20027,70.65583Z"/>
        <path class="cls-12" d="M269.6425,135.48641a11.42157,11.42157,0,0,0,3.044-22.43159,27.63756,27.63756,0,0,1-14.4323,11.77331A11.41881,11.41881,0,0,0,269.6425,135.48641Z"/>
        <circle class="cls-13" cx="78.51064" cy="238.22241" r="11.42716"/>
        <circle class="cls-14" cx="78.51064" cy="238.22241" r="6.74058"/>
        <circle class="cls-15" cx="117.80304" cy="238.22241" r="6.74058"/>
        <circle class="cls-16" cx="249.07362" cy="98.84285" r="27.55777"/>
        <circle class="cls-17" cx="249.07364" cy="98.84282" r="20.56889"/>
        <circle class="cls-18" cx="249.07364" cy="152.24624" r="11.42716"/>
        <circle class="cls-19" cx="117.80304" cy="238.22241" r="11.42716"/>
        <circle class="cls-20" cx="156.63128" cy="238.18001" r="11.42716"/>
        <circle class="cls-21" cx="156.63128" cy="238.18001" r="6.74058"/>
        <path class="cls-22" d="M293.24673,204.69856a57.13594,57.13594,0,0,1-48.59082-27.07862L159.57163,40.07144h-28.187L216.4689,177.61994a57.13594,57.13594,0,0,0,48.59082,27.07862Z"/>
        <path class="cls-23" d="M253.027,274.188l1.39045-.836a1.62243,1.62243,0,0,0,.55441-2.22643L232.37708,233.547l1.76429-3.67484a3.24471,3.24471,0,0,0-.1443-3.07642l-40.342-67.095-1.7569-12.79481L125.81281,40.07144l-13.76065-.00028,15.3007,15.61937.00474-.00286L179.186,141.897l3.36168,24.48212,40.34211,67.095a3.24509,3.24509,0,0,1,.1443,3.07642l-.95859,1.99661,2.41718.13761-.39867-.02267,22.53523,37.47947a1.62236,1.62236,0,0,0,2.22643.55441l1.39045-.836,10.66742,17.74153h3.78615Z"/>
        <g>
          <g>
            <path class="cls-24" d="M221.8894,241.41651a3.24482,3.24482,0,0,1-3.1094,1.83508l-3.503-.19928h0l22.53524,37.47948a1.62241,1.62241,0,0,0,2.22645.55441l5.56171-3.34408a1.62241,1.62241,0,0,0,.55441-2.22645L223.56,237.93715h0Z"/>
            <path class="cls-24" d="M241.4291,280.25019l2.78085-1.672,20.90047,34.76068a1.72929,1.72929,0,0,1,.20828,1.243,1.557,1.557,0,0,1-.71175.95821l-.05627.03362a1.62235,1.62235,0,0,1-2.22111-.56279Z"/>
            <path class="cls-24" d="M79.80758,20.89448a3.24482,3.24482,0,0,1,1.10881-4.45289l5.56171-3.34408A3.24482,3.24482,0,0,1,90.931,14.20632l10.03224,16.68512L89.83983,37.5796Z"/>
            <polygon class="cls-24" points="96.258 73.432 129.648 53.399 181.476 139.609 148.106 159.673 96.258 73.432"/>
            <path class="cls-24" d="M86.44454,42.53031A3.24482,3.24482,0,0,1,87.865,38.767l15.073-9.06293a3.24482,3.24482,0,0,1,3.99.51018l22.715,23.188L96.27282,73.46672Z"/>
            <path class="cls-24" d="M168.15287,174.123l16.685-10.0322,40.34217,67.09505a3.24482,3.24482,0,0,1,.1443,3.07643l-3.43477,7.15415a3.24482,3.24482,0,0,1-3.10959,1.83518l-7.671-.43671a3.24482,3.24482,0,0,1-2.59642-1.56754Z"/>
            <polygon class="cls-24" points="148.106 159.673 181.476 139.609 184.838 164.091 168.153 174.123 148.106 159.673"/>
          </g>
          <g>
            <path class="cls-25" d="M221.8894,241.41651a3.24482,3.24482,0,0,1-3.1094,1.83508l-3.503-.19928h0l22.53524,37.47948a1.62241,1.62241,0,0,0,2.22645.55441l5.56171-3.34408a1.62241,1.62241,0,0,0,.55441-2.22645L223.56,237.93715h0Z"/>
            <path class="cls-26" d="M241.4291,280.25019l2.78085-1.672,20.90047,34.76068a1.72929,1.72929,0,0,1,.20828,1.243,1.557,1.557,0,0,1-.71175.95821l-.05627.03362a1.62235,1.62235,0,0,1-2.22111-.56279Z"/>
            <path class="cls-27" d="M79.80758,20.89448a3.24482,3.24482,0,0,1,1.10881-4.45289l5.56171-3.34408A3.24482,3.24482,0,0,1,90.931,14.20632l10.03224,16.68512L89.83983,37.5796Z"/>
            <polygon class="cls-28" points="96.258 73.432 129.648 53.399 181.476 139.609 148.106 159.673 96.258 73.432"/>
            <path class="cls-29" d="M86.44454,42.53031A3.24482,3.24482,0,0,1,87.865,38.767l15.073-9.06293a3.24482,3.24482,0,0,1,3.99.51018l22.715,23.188L96.27282,73.46672Z"/>
            <path class="cls-30" d="M168.15287,174.123l16.685-10.0322,40.34217,67.09505a3.24482,3.24482,0,0,1,.1443,3.07643l-3.43477,7.15415a3.24482,3.24482,0,0,1-3.10959,1.83518l-7.671-.43671a3.24482,3.24482,0,0,1-2.59642-1.56754Z"/>
            <polygon class="cls-31" points="148.106 159.673 181.476 139.609 184.838 164.091 168.153 174.123 148.106 159.673"/>
          </g>
        </g>
        <path class="cls-32" d="M185.187,202.4789a36.2266,36.2266,0,0,1-3.91393,1.994c-9.84142,4.65812-22.28031,6.31967-36.81967,2.02479-12.67526-3.74458-24.06936-3.14128-34.05474,1.74134a53.26732,53.26732,0,0,0-7.49614,4.68776c-.168.12931-.33848.25129-.50552.38346q-.30057.22943-.59647.46207a53.04112,53.04112,0,0,0-4.83792,4.49289,68.08576,68.08576,0,0,0-13.89114,22.29189,4.55578,4.55578,0,0,1-3.20977,2.95639c-.49031,1.18728-.73673,1.893-.75723,1.95358a4.571,4.571,0,1,0,8.66188,2.92375A68.08576,68.08576,0,0,1,101.65752,226.099c12.72834-13.35772,28.70962-17.31594,47.49079-11.76752,16.52419,4.88123,30.339,2.07285,40.7064-4.08948Z"/>
        <path class="cls-33" d="M180.49216,194.64518c-9.35892,5.52917-21.04693,6.74889-33.44753,3.08577-53.17981-15.70677-72.44641,39.34447-72.635,39.90244a4.571,4.571,0,1,0,8.66188,2.92375,68.08576,68.08576,0,0,1,13.89114-22.29189c12.72834-13.35772,28.70962-17.31594,47.49079-11.76752,16.52419,4.88123,30.339,2.07285,40.7064-4.08948Z"/>
        <g class="cls-34">
          <g>
            <g class="cls-34">
              <path class="cls-35" d="M37.75345,81.74807c-2.53575-14.43314,2.021-29.9624,11.62789-41.67824l-9.09249-.00021a13.74006,13.74006,0,0,0-2.305.20861C29.76532,53.10456,26.17578,68.68,28.7501,83.3299c3.92125,22.31993,19.98435,36.64545,36.36946,45.64447H87.80746C59.10872,119.1746,41.406,102.53735,37.75345,81.74807Z"/>
            </g>
            <g>
              <g>
                <path class="cls-24" d="M221.8894,241.41651a3.24482,3.24482,0,0,1-3.1094,1.83508l-3.503-.19928h0l22.53524,37.47948a1.62241,1.62241,0,0,0,2.22645.55441l5.56171-3.34408a1.62241,1.62241,0,0,0,.55441-2.22645L223.56,237.93715h0Z"/>
                <path class="cls-24" d="M241.4291,280.25019l2.78085-1.672,20.90047,34.76068a1.72929,1.72929,0,0,1,.20828,1.243,1.557,1.557,0,0,1-.71175.95821l-.05627.03362a1.62235,1.62235,0,0,1-2.22111-.56279Z"/>
                <path class="cls-24" d="M79.80758,20.89448a3.24482,3.24482,0,0,1,1.10881-4.45289l5.56171-3.34408A3.24482,3.24482,0,0,1,90.931,14.20632l10.03224,16.68512L89.83983,37.5796Z"/>
                <polygon class="cls-24" points="96.258 73.432 129.648 53.399 181.476 139.609 148.106 159.673 96.258 73.432"/>
                <path class="cls-24" d="M86.44454,42.53031A3.24482,3.24482,0,0,1,87.865,38.767l15.073-9.06293a3.24482,3.24482,0,0,1,3.99.51018l22.715,23.188L96.27282,73.46672Z"/>
                <path class="cls-24" d="M168.15287,174.123l16.685-10.0322,40.34217,67.09505a3.24482,3.24482,0,0,1,.1443,3.07643l-3.43477,7.15415a3.24482,3.24482,0,0,1-3.10959,1.83518l-7.671-.43671a3.24482,3.24482,0,0,1-2.59642-1.56754Z"/>
                <polygon class="cls-24" points="148.106 159.673 181.476 139.609 184.838 164.091 168.153 174.123 148.106 159.673"/>
              </g>
              <g>
                <path class="cls-25" d="M221.8894,241.41651a3.24482,3.24482,0,0,1-3.1094,1.83508l-3.503-.19928h0l22.53524,37.47948a1.62241,1.62241,0,0,0,2.22645.55441l5.56171-3.34408a1.62241,1.62241,0,0,0,.55441-2.22645L223.56,237.93715h0Z"/>
                <path class="cls-26" d="M241.4291,280.25019l2.78085-1.672,20.90047,34.76068a1.72929,1.72929,0,0,1,.20828,1.243,1.557,1.557,0,0,1-.71175.95821l-.05627.03362a1.62235,1.62235,0,0,1-2.22111-.56279Z"/>
                <path class="cls-27" d="M79.80758,20.89448a3.24482,3.24482,0,0,1,1.10881-4.45289l5.56171-3.34408A3.24482,3.24482,0,0,1,90.931,14.20632l10.03224,16.68512L89.83983,37.5796Z"/>
                <polygon class="cls-28" points="96.258 73.432 129.648 53.399 181.476 139.609 148.106 159.673 96.258 73.432"/>
                <path class="cls-29" d="M86.44454,42.53031A3.24482,3.24482,0,0,1,87.865,38.767l15.073-9.06293a3.24482,3.24482,0,0,1,3.99.51018l22.715,23.188L96.27282,73.46672Z"/>
                <path class="cls-30" d="M168.15287,174.123l16.685-10.0322,40.34217,67.09505a3.24482,3.24482,0,0,1,.1443,3.07643l-3.43477,7.15415a3.24482,3.24482,0,0,1-3.10959,1.83518l-7.671-.43671a3.24482,3.24482,0,0,1-2.59642-1.56754Z"/>
                <polygon class="cls-31" points="148.106 159.673 181.476 139.609 184.838 164.091 168.153 174.123 148.106 159.673"/>
              </g>
            </g>
          </g>
        </g>
        <g>
          <path class="cls-24" d="M199.96444,137.64685c-17.66634-22.56194-43.23127-16.47732-67.95477-10.593-16.51247,3.92864-33.58737,7.99287-48.27975,3.59386-31.76951-9.51166-51.39655-26.87838-55.26549-48.89965C25.207,63.20739,33.65016,42.85555,49.473,31.10589c10.20821-7.57956,21.643-10.00169,32.23423-7.05207l-1.8996-3.15935a3.24472,3.24472,0,0,1,1.10875-4.45285l2.41537-1.45225c-13.06479-3.39606-26.97539-.38-39.309,8.777C25.49045,37.52808,15.61891,61.46486,19.46107,83.3299c6.06956,34.54819,41.22817,49.96258,61.6464,56.07566,17.04589,5.10316,35.33269.74991,53.018-3.45828,23.929-5.69461,44.59047-10.60918,58.64119,7.335,7.94154,10.14244,8.48193,24.54614,1.694,36.81263l5.28729,8.79356c.125-.17841.25555-.3557.37719-.53474C211.11484,172.18277,211.05012,151.8047,199.96444,137.64685Z"/>
          <path class="cls-36" d="M199.96444,137.64685c-17.66634-22.56194-43.23127-16.47732-67.95477-10.593-16.51247,3.92864-33.58737,7.99287-48.27975,3.59386-31.76951-9.51166-51.39655-26.87838-55.26549-48.89965C25.207,63.20739,33.65016,42.85555,49.473,31.10589c10.20821-7.57956,21.643-10.00169,32.23423-7.05207l-1.8996-3.15935a3.24472,3.24472,0,0,1,1.10875-4.45285l2.41537-1.45225c-13.06479-3.39606-26.97539-.38-39.309,8.777C25.49045,37.52808,15.61891,61.46486,19.46107,83.3299c6.06956,34.54819,41.22817,49.96258,61.6464,56.07566,17.04589,5.10316,35.33269.74991,53.018-3.45828,23.929-5.69461,44.59047-10.60918,58.64119,7.335,7.94154,10.14244,8.48193,24.54614,1.694,36.81263l5.28729,8.79356c.125-.17841.25555-.3557.37719-.53474C211.11484,172.18277,211.05012,151.8047,199.96444,137.64685Z"/>
        </g>
      </g>
    </g>
  </g>
</svg>
