<svg xmlns="http://www.w3.org/2000/svg" xmlns:xlink="http://www.w3.org/1999/xlink" width="324" height="324" viewBox="0 0 324 324">
  <defs>
    <style>
      .cls-1 {
        fill: none;
      }

      .cls-2 {
        clip-path: url(#clip-path);
      }

      .cls-10, .cls-11, .cls-18, .cls-19, .cls-25, .cls-26, .cls-27, .cls-28, .cls-29, .cls-3, .cls-30, .cls-31, .cls-32, .cls-33, .cls-34, .cls-35, .cls-36, .cls-48, .cls-49, .cls-6, .cls-7, .cls-8, .cls-9 {
        opacity: 0.8;
      }

      .cls-13, .cls-14, .cls-15, .cls-16, .cls-4, .cls-51, .cls-52 {
        opacity: 0.72;
      }

      .cls-5 {
        fill: url(#linear-gradient);
      }

      .cls-10, .cls-11, .cls-18, .cls-19, .cls-25, .cls-26, .cls-27, .cls-28, .cls-29, .cls-30, .cls-31, .cls-32, .cls-33, .cls-34, .cls-35, .cls-36, .cls-48, .cls-49, .cls-6, .cls-7, .cls-8, .cls-9 {
        fill-opacity: 0.72;
      }

      .cls-6 {
        fill: url(#linear-gradient-2);
      }

      .cls-7 {
        fill: url(#linear-gradient-3);
      }

      .cls-8 {
        fill: url(#linear-gradient-4);
      }

      .cls-9 {
        fill: url(#linear-gradient-5);
      }

      .cls-10 {
        fill: url(#linear-gradient-6);
      }

      .cls-11 {
        fill: url(#linear-gradient-7);
      }

      .cls-12 {
        opacity: 0.7;
      }

      .cls-13 {
        fill: url(#linear-gradient-8);
      }

      .cls-14 {
        fill: url(#linear-gradient-9);
      }

      .cls-15 {
        fill: url(#linear-gradient-10);
      }

      .cls-16 {
        fill: url(#linear-gradient-11);
      }

      .cls-17 {
        fill: url(#linear-gradient-12);
      }

      .cls-18 {
        fill: url(#linear-gradient-13);
      }

      .cls-19 {
        fill: url(#linear-gradient-14);
      }

      .cls-20, .cls-52 {
        fill: #fff;
      }

      .cls-21 {
        fill: url(#linear-gradient-15);
      }

      .cls-22 {
        fill: url(#linear-gradient-16);
      }

      .cls-23 {
        fill: url(#linear-gradient-17);
      }

      .cls-24 {
        fill: url(#linear-gradient-18);
      }

      .cls-25 {
        fill: url(#linear-gradient-19);
      }

      .cls-26 {
        fill: url(#linear-gradient-20);
      }

      .cls-27 {
        fill: url(#linear-gradient-21);
      }

      .cls-28 {
        fill: url(#linear-gradient-22);
      }

      .cls-29 {
        fill: url(#linear-gradient-23);
      }

      .cls-30 {
        fill: url(#linear-gradient-24);
      }

      .cls-31 {
        fill: url(#linear-gradient-25);
      }

      .cls-32 {
        fill: url(#linear-gradient-26);
      }

      .cls-33 {
        fill: url(#linear-gradient-27);
      }

      .cls-34 {
        fill: url(#linear-gradient-28);
      }

      .cls-35 {
        fill: url(#linear-gradient-29);
      }

      .cls-36 {
        fill: url(#linear-gradient-30);
      }

      .cls-37 {
        fill: url(#linear-gradient-31);
      }

      .cls-38 {
        fill: url(#linear-gradient-32);
      }

      .cls-39 {
        fill: #9fdad9;
      }

      .cls-40 {
        fill: url(#linear-gradient-33);
      }

      .cls-41 {
        fill: url(#linear-gradient-34);
      }

      .cls-42 {
        fill: url(#linear-gradient-35);
      }

      .cls-43 {
        fill: url(#linear-gradient-36);
      }

      .cls-44 {
        fill: url(#linear-gradient-37);
      }

      .cls-45 {
        fill: url(#linear-gradient-38);
      }

      .cls-46 {
        fill: url(#linear-gradient-39);
      }

      .cls-47 {
        fill: url(#linear-gradient-40);
      }

      .cls-48 {
        fill: url(#linear-gradient-41);
      }

      .cls-49 {
        fill: url(#linear-gradient-42);
      }

      .cls-50 {
        fill: url(#linear-gradient-43);
      }

      .cls-51 {
        fill: url(#linear-gradient-44);
      }

      .cls-53 {
        fill: url(#linear-gradient-45);
      }

      .cls-54 {
        fill: #07babe;
        opacity: 0.32;
      }
    </style>
    <clipPath id="clip-path">
      <rect class="cls-1" x="-765.95424" y="-0.56815" width="1096" height="324.1296"/>
    </clipPath>
    <linearGradient id="linear-gradient" x1="32.86547" y1="412.15227" x2="292.42293" y2="-29.79692" gradientUnits="userSpaceOnUse">
      <stop offset="0" stop-color="#0884c2" stop-opacity="0"/>
      <stop offset="0.17355" stop-color="#0884c2" stop-opacity="0.01714"/>
      <stop offset="0.31908" stop-color="#0884c2" stop-opacity="0.07048"/>
      <stop offset="0.45455" stop-color="#0884c2" stop-opacity="0.1603"/>
      <stop offset="0.58391" stop-color="#0884c2" stop-opacity="0.28672"/>
      <stop offset="0.70897" stop-color="#0884c2" stop-opacity="0.44996"/>
      <stop offset="0.83074" stop-color="#0884c2" stop-opacity="0.65014"/>
      <stop offset="0.94778" stop-color="#0884c2" stop-opacity="0.88291"/>
      <stop offset="1" stop-color="#0884c2"/>
    </linearGradient>
    <linearGradient id="linear-gradient-2" x1="146.93272" y1="226.75265" x2="214.32449" y2="274.52403" gradientUnits="userSpaceOnUse">
      <stop offset="0" stop-color="#9fdad9" stop-opacity="0"/>
      <stop offset="0.26265" stop-color="#7ad2d2" stop-opacity="0.24198"/>
      <stop offset="0.85587" stop-color="#1ebfc2" stop-opacity="0.84774"/>
      <stop offset="1" stop-color="#07babe"/>
    </linearGradient>
    <linearGradient id="linear-gradient-3" x1="191.8271" y1="-410.69835" x2="169.28829" y2="-370.62935" gradientTransform="translate(10.5001 549.53189) rotate(9.19196)" xlink:href="#linear-gradient-2"/>
    <linearGradient id="linear-gradient-4" x1="201.86322" y1="-463.79794" x2="210.78181" y2="-464.50292" gradientTransform="translate(10.5001 549.53189) rotate(9.19196)" xlink:href="#linear-gradient-2"/>
    <linearGradient id="linear-gradient-5" x1="123.07512" y1="-482.07656" x2="84.809" y2="-426.29883" gradientTransform="translate(10.5001 549.53189) rotate(9.19196)" xlink:href="#linear-gradient-2"/>
    <linearGradient id="linear-gradient-6" x1="150.26099" y1="-437.39836" x2="133.3263" y2="-402.75921" gradientTransform="translate(10.5001 549.53189) rotate(9.19196)" gradientUnits="userSpaceOnUse">
      <stop offset="0" stop-color="#9fdad9" stop-opacity="0"/>
      <stop offset="0.2423" stop-color="#7dd3d3" stop-opacity="0.22213"/>
      <stop offset="0.46142" stop-color="#5ccccd" stop-opacity="0.44005"/>
      <stop offset="1" stop-color="#07babe"/>
    </linearGradient>
    <linearGradient id="linear-gradient-7" x1="49.95599" y1="-448.8406" x2="15.53352" y2="-448.49637" gradientTransform="translate(10.5001 549.53189) rotate(9.19196)" xlink:href="#linear-gradient-2"/>
    <linearGradient id="linear-gradient-8" x1="170.69152" y1="-455.55477" x2="148.80171" y2="-496.41577" gradientTransform="translate(10.5001 549.53189) rotate(9.19196)" xlink:href="#linear-gradient-2"/>
    <linearGradient id="linear-gradient-9" x1="195.10428" y1="-419.40153" x2="185.37993" y2="-453.63124" gradientTransform="translate(10.5001 549.53189) rotate(9.19196)" xlink:href="#linear-gradient-2"/>
    <linearGradient id="linear-gradient-10" x1="219.5761" y1="-388.23921" x2="202.10735" y2="-440.88475" gradientTransform="translate(10.5001 549.53189) rotate(9.19196)" xlink:href="#linear-gradient-2"/>
    <linearGradient id="linear-gradient-11" x1="116.14475" y1="-468.8854" x2="95.67705" y2="-487.01393" gradientTransform="translate(10.5001 549.53189) rotate(9.19196)" xlink:href="#linear-gradient-2"/>
    <linearGradient id="linear-gradient-12" x1="31.23546" y1="-358.60759" x2="2.31269" y2="-365.28207" gradientTransform="translate(10.5001 549.53189) rotate(9.19196)" xlink:href="#linear-gradient-2"/>
    <linearGradient id="linear-gradient-13" x1="14.42245" y1="-214.35158" x2="29.59244" y2="-242.35771" gradientTransform="translate(10.5001 549.53189) rotate(9.19196)" xlink:href="#linear-gradient-2"/>
    <linearGradient id="linear-gradient-14" x1="135.1365" y1="264.8174" x2="177.80317" y2="201.15074" xlink:href="#linear-gradient-2"/>
    <linearGradient id="linear-gradient-15" x1="149.29999" y1="236.91409" x2="180.45292" y2="176.15728" gradientUnits="userSpaceOnUse">
      <stop offset="0" stop-color="#be5db3" stop-opacity="0"/>
      <stop offset="0.9949" stop-color="#be5db3" stop-opacity="0.80777"/>
    </linearGradient>
    <linearGradient id="linear-gradient-16" x1="205.9286" y1="157.40243" x2="128.16701" y2="248.72355" gradientUnits="userSpaceOnUse">
      <stop offset="0" stop-color="#9fdad9" stop-opacity="0"/>
      <stop offset="0.10658" stop-color="#99d9d8" stop-opacity="0.03843"/>
      <stop offset="0.26518" stop-color="#89d5d5" stop-opacity="0.14484"/>
      <stop offset="0.45634" stop-color="#6ed0d0" stop-opacity="0.31919"/>
      <stop offset="0.67278" stop-color="#4ac8ca" stop-opacity="0.56163"/>
      <stop offset="0.90754" stop-color="#1bbec2" stop-opacity="0.86829"/>
      <stop offset="1" stop-color="#07babe"/>
    </linearGradient>
    <linearGradient id="linear-gradient-17" x1="295.33547" y1="440.75612" x2="183.44418" y2="153.43034" xlink:href="#linear-gradient"/>
    <linearGradient id="linear-gradient-18" x1="223.41812" y1="321.48668" x2="291.66295" y2="202.48476" xlink:href="#linear-gradient-16"/>
    <linearGradient id="linear-gradient-19" x1="181.9427" y1="232.29117" x2="196.23749" y2="250.08673" gradientUnits="userSpaceOnUse">
      <stop offset="0" stop-color="#fff" stop-opacity="0"/>
      <stop offset="0.19944" stop-color="#fff" stop-opacity="0.18067"/>
      <stop offset="0.6485" stop-color="#fff" stop-opacity="0.6315"/>
      <stop offset="1" stop-color="#fff"/>
    </linearGradient>
    <linearGradient id="linear-gradient-20" x1="213.4988" y1="298.55155" x2="308.12007" y2="298.55155" xlink:href="#linear-gradient-19"/>
    <linearGradient id="linear-gradient-21" x1="169.89606" y1="245.45301" x2="194.10969" y2="263.5403" xlink:href="#linear-gradient-19"/>
    <linearGradient id="linear-gradient-22" x1="215.45474" y1="298.29264" x2="302.83235" y2="298.29264" xlink:href="#linear-gradient-19"/>
    <linearGradient id="linear-gradient-23" x1="181.08621" y1="262.02824" x2="193.04716" y2="269.02977" xlink:href="#linear-gradient-19"/>
    <linearGradient id="linear-gradient-24" x1="217.8709" y1="297.97282" x2="296.30046" y2="297.97282" xlink:href="#linear-gradient-19"/>
    <linearGradient id="linear-gradient-25" x1="188.1415" y1="255.88339" x2="200.68591" y2="266.09396" xlink:href="#linear-gradient-19"/>
    <linearGradient id="linear-gradient-26" x1="220.05694" y1="297.68346" x2="290.39066" y2="297.68346" xlink:href="#linear-gradient-19"/>
    <linearGradient id="linear-gradient-27" x1="188.40136" y1="267.34227" x2="209.69768" y2="279.30322" xlink:href="#linear-gradient-19"/>
    <linearGradient id="linear-gradient-28" x1="222.44678" y1="297.36712" x2="283.92993" y2="297.36712" xlink:href="#linear-gradient-19"/>
    <linearGradient id="linear-gradient-29" x1="195.40454" y1="266.88173" x2="217.57605" y2="281.75999" xlink:href="#linear-gradient-19"/>
    <linearGradient id="linear-gradient-30" x1="278.52279" y1="314.19073" x2="264.95732" y2="307.62679" xlink:href="#linear-gradient-19"/>
    <linearGradient id="linear-gradient-31" x1="200.84623" y1="252.48398" x2="250.73214" y2="308.2045" xlink:href="#linear-gradient-15"/>
    <linearGradient id="linear-gradient-32" x1="-0.59824" y1="-60.00321" x2="27.99134" y2="-136.4366" gradientTransform="matrix(0.99667, 0.08155, -0.08155, 0.99667, 9.20372, 283.70585)" xlink:href="#linear-gradient-15"/>
    <linearGradient id="linear-gradient-33" x1="108.57317" y1="-267.53054" x2="129.25464" y2="-252.75806" gradientTransform="matrix(0.99667, 0.08155, -0.08155, 0.99667, 9.20372, 283.70585)" xlink:href="#linear-gradient-2"/>
    <linearGradient id="linear-gradient-34" x1="111.52951" y1="-264.49482" x2="117.73242" y2="-260.30858" gradientTransform="translate(-138.72045 73.54251) rotate(57.99238)" xlink:href="#linear-gradient-16"/>
    <linearGradient id="linear-gradient-35" x1="111.52951" y1="-264.49482" x2="117.73242" y2="-260.30858" gradientTransform="translate(-138.72045 73.54251) rotate(57.99238)" gradientUnits="userSpaceOnUse">
      <stop offset="0" stop-color="#9fdad9" stop-opacity="0"/>
      <stop offset="0.10549" stop-color="#99d9d8" stop-opacity="0.03843"/>
      <stop offset="0.26248" stop-color="#89d5d5" stop-opacity="0.14484"/>
      <stop offset="0.45169" stop-color="#6ed0d0" stop-opacity="0.31919"/>
      <stop offset="0.66593" stop-color="#4ac8ca" stop-opacity="0.56163"/>
      <stop offset="0.89829" stop-color="#1bbec2" stop-opacity="0.86829"/>
      <stop offset="0.98982" stop-color="#07babe"/>
    </linearGradient>
    <linearGradient id="linear-gradient-36" x1="40.10599" y1="-134.74911" x2="42.98234" y2="-139.9067" gradientTransform="matrix(0.53003, 0.84798, -0.84798, 0.53003, -76.85178, 187.44784)" xlink:href="#linear-gradient-2"/>
    <linearGradient id="linear-gradient-37" x1="40.95722" y1="-134.90269" x2="45.7427" y2="-145.29402" gradientTransform="matrix(0.99667, 0.08155, -0.08155, 0.99667, 9.20372, 283.70585)" xlink:href="#linear-gradient-15"/>
    <linearGradient id="linear-gradient-38" x1="33.64602" y1="-132.58995" x2="43.44286" y2="-137.05868" gradientTransform="matrix(0.53003, 0.84798, -0.84798, 0.53003, -75.91222, 189.31941)" xlink:href="#linear-gradient-2"/>
    <linearGradient id="linear-gradient-39" x1="19.66308" y1="-122.92421" x2="42.38786" y2="-131.00109" gradientTransform="matrix(0.53003, 0.84798, -0.84798, 0.53003, -72.62376, 195.86993)" xlink:href="#linear-gradient-16"/>
    <linearGradient id="linear-gradient-40" x1="16.79433" y1="-115.70761" x2="38.96326" y2="-121.06921" gradientTransform="translate(11.22084 50.91883) rotate(147.99238)" xlink:href="#linear-gradient-16"/>
    <linearGradient id="linear-gradient-41" x1="14.31803" y1="-116.03727" x2="29.43499" y2="-112.1577" gradientTransform="translate(-65.10729 210.84254) rotate(57.99238)" xlink:href="#linear-gradient"/>
    <linearGradient id="linear-gradient-42" x1="31.95432" y1="-259.20046" x2="104.8735" y2="-212.5144" gradientTransform="matrix(0.99667, 0.08155, -0.08155, 0.99667, 9.20372, 283.70585)" xlink:href="#linear-gradient"/>
    <linearGradient id="linear-gradient-43" x1="32.71423" y1="-180.86341" x2="66.5624" y2="-160.78016" gradientTransform="matrix(0.99667, 0.08155, -0.08155, 0.99667, 9.20372, 283.70585)" xlink:href="#linear-gradient-15"/>
    <linearGradient id="linear-gradient-44" x1="83.9718" y1="-205.18924" x2="74.96394" y2="-190.81716" gradientTransform="matrix(0.99667, 0.08155, -0.08155, 0.99667, 9.20372, 283.70585)" xlink:href="#linear-gradient-2"/>
    <linearGradient id="linear-gradient-45" x1="101.91942" y1="-230.25772" x2="117.98629" y2="-260.71782" gradientTransform="matrix(0.99667, 0.08155, -0.08155, 0.99667, 9.20372, 283.70585)" xlink:href="#linear-gradient"/>
  </defs>
  <title>finalArtboard 5</title>
  <g id="Expandables">
    <g class="cls-2">
      <g>
        <g class="cls-3">
          <g class="cls-4">
            <path class="cls-5" d="M317.97632,131.97362c-2.19409-2.5249-8.03662-3.29114-10.95386-.76123-8.79761,7.62909-17.24145,15.66455-25.88647,23.4715-13.07861,11.81073-26.12866,23.65546-39.3606,35.29272-5.18921,4.56378-5.53516,4.40753-8.92822-1.32312a5.026,5.026,0,0,1,.54517-4.61432c3.99438-4.6001,8.38037-8.85724,12.55249-13.30615,56.7312-60.49231,35.85156-39.15662,61.57275-67.66071a18.18785,18.18785,0,0,0,3.2356-5.8089,10.73832,10.73832,0,0,0-3.5188-13.55652c-3.94873-2.94128-9.96606-2.63342-14.1084,1.0788-2.97388,2.665-43.14648,42.44574-50.54321,49.5874q-14.15149,13.66315-28.58789,27.02869c-1.86865,1.73749-9.27783-3.70911-5.69507-7.805,3.86475-4.41833,7.60889-8.9425,11.40088-13.42432,14.90527-17.61542,29.87109-35.17981,44.68848-52.86884,6.93262-8.27618,13.76367-16.65247,20.27539-25.25989,3.28345-4.34009,3.21118-10.70325.741-13.54919-4.1001-4.72357-12.58862-4.89172-17.96606.18341-4.55225,4.29639-73.31982,77.758-81.99365,86.74524-.604.626-3.08765-.05719-4.33618-.76648-.64233-.36487-1.04565-2.459-.60352-3.21057C194.18652,108.20055,227.532,62.78288,238.603,43.94432c2.7124-4.61523,4.2688-9.99884.59521-14.86981-4.06592-5.39166-13.207-4.76691-18.33984,1.18347-35.64648,41.32294-66.86645,97.45856-93.23462,114.64771-1.89038,1.23236-5.08057,2.9682-7.0603,1.56641-1.81982-1.28851-1.2583-4.56683-.79419-6.60083,1.80859-7.92609,4.41577-15.67706,6.06763-23.62994,1.96338-9.45178,4.23-19.0097,4.56787-28.585.37939-10.765-9.09448-20.94775-18.32007-21.42554-1.53345-.07941-3.8811,3.0318-3.93555,4.07275-.7937,15.11584-6.4043,27.88318-11.00659,42.0238-8.43359,25.91217-17.65723,51.67432-19.97705,79.02234-1.03906,12.248.37939,24.69086.32324,37.04352-.01855,4.07947-.02637,8.85767-2.02563,12.08655-4.42407,7.14526-10.11646,13.504-15.25879,20.2085l-6.386,6.86987c-6.29,5.56909-12.1333,11.647-18.012,17.66626a2.63809,2.63809,0,0,0,.15869,2.57251c12.86255,9.98169,25.80469,19.86133,38.73315,29.75806q19.3927,14.84473,38.81421,29.65125c.45264.34387,1.78418.39856,1.94653.12952,3.74683-6.2052,7.187-12.60278,11.09155-18.70386,7.6355-11.93054,14.16479-24.95911,23.66577-35.201,10.387-11.19666,23.33423-20.13416,35.67822-29.371,16.61475-12.43225,34.61157-23.02637,49.08716-38.24329.50073-.52637,1.00854-1.046,1.5105-1.57141-45.48022,2.65479-59.00562,8.77148-86.63379-14.16333-14.22705-11.80994-8.63257-34.442-64.59888-25.38428,60.71436-44.58685,61.9939,7.02325,94.6189,25.27173,15.45972,8.64746,43.23413,11.97278,57.68506,13.16138,10.42163-10.88208,21.04565-21.57251,31.62573-32.30249C318.74707,140.56914,323.83838,138.72008,317.97632,131.97362Z"/>
          </g>
        </g>
        <path class="cls-6" d="M236.41186,224.32858a57.91065,57.91065,0,1,0-89.45033,72.8548c1.04873-1.28476,2.12956-2.53958,3.25486-3.75264,10.38686-11.1967,23.33409-20.1342,35.6783-29.371,16.61455-12.43228,34.6113-23.02647,49.087-38.24331C235.45587,225.318,235.93677,224.82608,236.41186,224.32858Z"/>
        <path class="cls-7" d="M241.77534,189.97659c-5.18922,4.56379-5.535,4.40755-8.9282-1.32312a4.662,4.662,0,0,1-.12971-3.17466c-2.72678,2.81177-5.45271,5.62317-8.01678,8.5762a5.02581,5.02581,0,0,0-.54524,4.61427c3.3932,5.73067,3.739,5.88691,8.9282,1.32312,13.232-11.63723,26.28209-23.482,39.36065-35.29272,8.645-7.80693,17.08888-15.84238,25.88638-23.47146,2.91725-2.52994,8.76-1.76368,10.95391.76117,2.18943,2.51973,2.84944,4.35726.23705,8.28789,11.5426-11.97547,11.96518-14.26364,8.45468-18.30371-2.19394-2.52486-8.03666-3.29111-10.9539-.76124-8.79751,7.62916-17.24136,15.6646-25.88639,23.47153C268.05743,166.49463,255.00735,178.33937,241.77534,189.97659Z"/>
        <path class="cls-8" d="M291.69717,121.04911c-2.5079,2.82886-4.28994,4.87857-5.75685,6.58419C288.47419,124.80359,290.08683,122.93353,291.69717,121.04911Z"/>
        <path class="cls-9" d="M187.83874,132.91715c-1.01627,1.06988-1.83717,1.93026-2.3929,2.50606-.60412.626-3.08762-.05722-4.33626-.76649-.6424-.36485-1.04572-2.459-.60341-3.21054,13.68048-23.24563,47.02577-68.6633,58.097-87.50182-10.92923,12.5942-60.23159,86.37581-66.78873,97.51764-.44232.75151-.039,2.8457.6034,3.21062,1.24865.7092,3.73216,1.39246,4.33628.76642,1.73359-1.79623,5.87235-6.173,11.41432-12.05308A4.92947,4.92947,0,0,1,187.83874,132.91715Z"/>
        <path class="cls-10" d="M255.77021,121.51717c.00652-.03358.01616-.06643.02275-.1-6.04317,5.95034-11.04073,10.86131-13.21027,12.956q-14.15139,13.66308-28.58776,27.02868c-1.85412,1.724-9.28568-3.7-5.695-7.805,1.83737-2.1005,3.64512-4.227,5.446-6.35945-.04421-.04157-.08571-.08515-.12849-.128q-1.30373,1.53989-2.60833,3.079c-3.79226,4.48177-7.53612,9.006-11.40093,13.42429-1.53011,1.74929-2.16054,3.21523-.02021,4.93394.98595.79172,1.62291,2.09212,2.68373,2.69271.81773.46292,2.49748.67492,3.03151.17837Q219.7093,158.02369,233.891,144.389c3.145-3.03651,12.21736-11.97559,21.83411-21.45139A4.76873,4.76873,0,0,1,255.77021,121.51717Z"/>
        <path class="cls-11" d="M121.71291,97.67214c-.33765,9.57526-2.60438,19.13323-4.56764,28.585-1.65187,7.95286-4.25917,15.70385-6.06774,23.62991-.46406,2.034-1.02558,5.3123.79419,6.60078,1.97971,1.40181,5.17-.334,7.06036-1.56635,7.85322-5.11942,16.14033-13.71024,24.84306-24.31879-5.569,5.99973-10.9558,10.9161-16.15132,14.303-1.89046,1.23232-5.08072,2.96815-7.06036,1.56635-1.81977-1.28848-1.25825-4.56679-.79419-6.60078,1.80857-7.92606,4.41587-15.67705,6.06774-23.62991,1.96326-9.45181,4.23-19.00979,4.56764-28.585.37967-10.765-9.09436-20.94776-18.31989-21.42557-1.53354-.0794-3.881,3.03179-3.93563,4.07274-.13914,2.65085-1.03235,3.94141-1.405,6.5352C114.77235,79.21013,122.04646,88.21361,121.71291,97.67214Z"/>
        <g class="cls-12">
          <g>
            <path class="cls-13" d="M194.24912,133.67011c-.44225.75152-.039,2.84563.60348,3.21056,1.24857.70926,3.73209,1.39245,4.33619.76648,8.6737-8.98728,77.44143-82.44885,81.99373-86.74528a13.735,13.735,0,0,1,4.0139-2.61986c-4.17049-4.50487-12.46546-4.59818-17.75686.396-3.03969,2.86878-34.70708,36.572-58.00037,61.33049C203.44865,118.91961,198.07814,127.16386,194.24912,133.67011Z"/>
            <g class="cls-3">
              <path class="cls-14" d="M293.12589,84.78571c-2.97388,2.665-43.14629,42.44575-50.5432,49.58741q-6.03689,5.8286-12.141,11.58767c-2.7788,3.30486-5.55665,6.6106-8.39884,9.86-1.53017,1.7492-2.1606,3.21515-.02026,4.93386.986.79173,1.623,2.0922,2.6838,2.69273.81766.4629,2.49741.67491,3.03144.17836q14.40621-13.39393,28.58783-27.02867c7.39691-7.14166,47.56932-46.92241,50.54313-49.58742a12.06758,12.06758,0,0,1,2.236-1.57785,12.36324,12.36324,0,0,0-1.87052-1.72483C303.28577,80.76559,297.26837,81.07345,293.12589,84.78571Z"/>
            </g>
            <g class="cls-3">
              <path class="cls-15" d="M255.5183,192.20047c13.232-11.63723,26.28209-23.482,39.36072-35.29271,8.26708-7.46564,16.35825-15.131,24.74267-22.45936a8.82018,8.82018,0,0,0-1.64541-2.47477c-2.19393-2.52493-8.03665-3.29118-10.9539-.76124-8.79751,7.62916-17.24135,15.66453-25.88638,23.47146-9.58812,8.65864-19.16231,17.33412-28.80272,25.93423-1.7697,1.84948-3.52152,3.71425-5.19794,5.645a5.0258,5.0258,0,0,0-.54517,4.61428C249.98337,196.608,250.32908,196.76426,255.5183,192.20047Z"/>
            </g>
            <g class="cls-3">
              <path class="cls-16" d="M133.51229,142.09517c-.46413,2.034-1.02558,5.3123.79411,6.60084,1.97973,1.40174,5.17-.334,7.06045-1.56641C167.735,129.94048,198.955,73.80484,234.60128,32.48185a14.17923,14.17923,0,0,1,4.5301-3.48416c-4.09662-5.30294-13.1664-4.65966-18.27312,1.26026C188.041,68.30143,158.97872,118.87451,133.99664,140.0789,133.83243,140.75037,133.666,141.42143,133.51229,142.09517Z"/>
            </g>
            <g class="cls-3">
              <g class="cls-4">
                <path class="cls-17" d="M110.88574,114.55119C115.48779,100.41063,120.48,86.3159,121.27344,71.2a1.65778,1.65778,0,0,1,.59326-.94342,17.519,17.519,0,0,0-9.782-4.02576c-1.53345-.07947-4.06128,2.83008-4.116,3.871-.79346,15.11584-6.22388,28.085-10.82617,42.22552-8.43359,25.91217-17.65723,51.67432-19.97705,79.02234-1.03906,12.248.37939,24.69073.32324,37.04352-.01855,4.07935-.02637,8.85767-2.02563,12.08655-4.42407,7.14514-10.11646,13.504-15.25879,20.2085l-6.386,6.86987c-6.29,5.56909-12.1333,11.647-18.012,17.66626a2.63809,2.63809,0,0,0,.15869,2.57251c12.86255,9.98169,25.80469,19.86133,38.73315,29.75806q19.3927,14.84473,38.81421,29.65125c.45264.34387,1.78418.39856,1.94653.12952.9519-1.57642,1.88379-3.16541,2.80884-4.75867q-14.92712-11.3811-29.82642-22.79822c-12.92871-9.89673-25.87085-19.77637-38.7334-29.75806a2.6387,2.6387,0,0,1-.15869-2.57251c5.87891-6.01929,11.72217-12.09717,18.012-17.66626l6.386-6.86987c5.14258-6.70447,10.835-13.06323,15.259-20.2085,1.999-3.22876,2.00684-8.00708,2.02539-12.08655.05615-12.35266-1.3623-24.79553-.32324-37.04352C93.22852,166.22557,102.45215,140.46342,110.88574,114.55119Z"/>
              </g>
            </g>
          </g>
        </g>
        <path class="cls-18" d="M73.594,321.34291c14.99993,11.48477,29.96978,23.00933,45.04,34.40118,2.00059,1.51226,2.1981,2.88108,1.31758,4.99156-1.97572,4.73558-5.32356,5.78845-9.25842,2.77629q-44.58757-34.1321-89.196-68.237c-3.37039-2.57185-1.37333-4.867.20724-6.92423,1.54864-2.01571,3.21974-4.36018,6.50236-1.81619C43.27689,298.21334,58.45557,309.75213,73.594,321.34291Z"/>
      </g>
      <path class="cls-19" d="M246.53287,225.43183s-44.56651,6.72759-67.76417-1.02188c-35.13344-11.73676-45.91621-61.74444-96.78434-7.11827,52.81122-19.16,51.547,3.90681,67.57968,12.7752C182.95072,248.5346,194.37077,237.47855,246.53287,225.43183Z"/>
      <g>
        <g>
          <path class="cls-20" d="M246.87181,223.73525s-45.45226-1.717-66.99354-13.766c-32.62482-18.2485-33.90441-69.85865-94.61873-25.27176,55.96631-9.0577,50.37187,13.57431,64.59872,25.38427C179.48449,234.67507,192.88776,225.86257,246.87181,223.73525Z"/>
          <path class="cls-21" d="M246.87181,223.73525s-45.45226-1.717-66.99354-13.766c-32.62482-18.2485-33.90441-69.85865-94.61873-25.27176,55.96631-9.0577,50.37187,13.57431,64.59872,25.38427C179.48449,234.67507,192.88776,225.86257,246.87181,223.73525Z"/>
        </g>
        <path class="cls-22" d="M179.87824,209.96926c10.86871,6.07935,27.82281,9.52753,41.95636,11.45294,7.29669-.57,15.5363,2.68743,25.03721,2.313,0,0-46.68847-3.57231-66.99357-17.60473C150.6,185.897,140.2,131.697,85.25954,184.69752c2.42664-.3927,4.73-4.56084,6.93181-4.83788C146.11432,144.16433,148.546,192.44375,179.87824,209.96926Z"/>
        <g>
          <path class="cls-20" d="M268.61883,229.87628a71.74546,71.74546,0,1,0,35.1271,95.18881A71.74549,71.74549,0,0,0,268.61883,229.87628Zm-39.48416,87.004a23.84161,23.84161,0,1,1,31.63206-11.673A23.84164,23.84164,0,0,1,229.13467,316.88024Z"/>
          <g class="cls-4">
            <path class="cls-23" d="M268.61883,229.87628a71.74546,71.74546,0,1,0,35.1271,95.18881A71.74549,71.74549,0,0,0,268.61883,229.87628Zm-39.48416,87.004a23.84161,23.84161,0,1,1,31.63206-11.673A23.84164,23.84164,0,0,1,229.13467,316.88024Z"/>
          </g>
          <path class="cls-24" d="M268.61883,229.87628a71.74546,71.74546,0,1,0,35.1271,95.18881A71.74549,71.74549,0,0,0,268.61883,229.87628Zm-39.48416,87.004a23.84161,23.84161,0,1,1,31.63206-11.673A23.84164,23.84164,0,0,1,229.13467,316.88024Z"/>
        </g>
        <path class="cls-25" d="M209.67043,356.9251c.09654-.20043.19231-.40125.28962-.60133-.57485-.24426-1.14831-.49533-1.71921-.75848-32.26131-14.869-45.77076-54.35527-30.17426-88.195,15.38673-33.38465,53.35307-48.799,85.34868-34.93043.08435-.187.16825-.37434.25481-.56052A68.10856,68.10856,0,0,0,209.67043,356.9251Z"/>
        <path class="cls-26" d="M213.4988,358.275c.08053-.20738.16188-.41446.24162-.62217.57095.25325,1.14593.50083,1.728.73829,32.89048,13.42,70.96478-3.66852,85.04137-38.16822,13.8873-34.03571-.77167-72.30005-32.74976-86.209.079-.1893.15864-.37851.23557-.56887A68.10856,68.10856,0,0,1,213.4988,358.275Z"/>
        <path class="cls-27" d="M211.86478,352.19764c.08915-.18509.17759-.37053.26745-.55529-.53085-.22556-1.06041-.45741-1.5876-.70042-29.79157-13.73073-42.26682-50.19415-27.86429-81.44332,14.20881-30.82892,49.26867-45.06324,78.81488-32.25636.07789-.17268.15537-.34568.23531-.51761a62.89456,62.89456,0,0,0-49.86574,115.473Z"/>
        <path class="cls-28" d="M215.45474,353.444c.07437-.19151.14949-.38274.22313-.57454.52724.23387,1.0582.46249,1.59569.68177,30.37257,12.39264,65.53213-3.38768,78.53109-35.24628,12.82417-31.43013-.71259-66.76518-30.24263-79.6093.073-.17481.1465-.34954.21754-.52532A62.89456,62.89456,0,0,1,215.45474,353.444Z"/>
        <path class="cls-29" d="M214.57546,346.35783c.08-.16613.1594-.33259.24006-.49843-.47648-.20246-.95181-.41057-1.425-.62869-26.74072-12.32461-37.93841-45.05394-25.0108-73.103,12.75373-27.67183,44.22323-40.44847,70.74371-28.9531.06991-.155.13946-.31028.21121-.4646a56.45374,56.45374,0,0,0-44.75916,103.6478Z"/>
        <path class="cls-30" d="M217.8709,347.47632c.06675-.1719.13418-.34354.20028-.5157.47325.20992.94983.41513,1.43228.612,27.26222,11.12355,58.82121-3.04076,70.489-31.63683,11.51089-28.21148-.63962-59.928-27.14559-71.45678.06551-.15691.1315-.31374.19526-.47153A56.45374,56.45374,0,0,1,217.8709,347.47632Z"/>
        <path class="cls-31" d="M217.028,341.0742c.07176-.149.14295-.29826.21528-.447-.4273-.18156-.85356-.36819-1.27792-.56379-23.98042-11.05241-34.02224-40.40327-22.42907-65.557,11.43723-24.81542,39.65831-36.27319,63.44123-25.96443.0627-.139.12506-.27825.18941-.41664A50.62633,50.62633,0,0,0,217.028,341.0742Z"/>
        <path class="cls-32" d="M220.05694,342.077c.05986-.15415.12033-.30808.1796-.46247.4244.18825.85179.37228,1.28444.54879,24.44809,9.97533,52.74942-2.72688,63.2128-28.37113,10.32268-25.29936-.5736-53.74195-24.3435-64.08069.05875-.14071.11792-.28135.1751-.42285A50.62633,50.62633,0,0,1,220.05694,342.077Z"/>
        <path class="cls-33" d="M219.70912,335.298c.06273-.13024.125-.26073.18819-.39073-.37353-.15871-.74615-.32186-1.11711-.49285-20.9628-9.66161-29.741-35.31905-19.60667-57.30749,9.998-21.69273,34.66784-31.70869,55.458-22.69715.05481-.12151.10932-.24324.16557-.36421a44.25568,44.25568,0,0,0-35.088,81.25244Z"/>
        <path class="cls-34" d="M222.44678,336.17432c.05233-.13475.10519-.26931.157-.40427.371.16456.7446.32543,1.12281.47973,21.37163,8.72006,46.1116-2.38374,55.25831-24.801,9.02371-22.11577-.50142-46.97924-21.28019-56.017.05136-.123.10308-.246.15307-.36964a44.25568,44.25568,0,0,1-35.411,81.11218Z"/>
        <path class="cls-35" d="M222.70748,328.83841c.05263-.10927.10484-.21875.15789-.32783-.3134-.13316-.626-.27-.93728-.41351-17.58816-8.10626-24.95321-29.6333-16.45034-48.082,8.3885-18.20058,29.08692-26.60414,46.53022-19.0433.046-.10195.09172-.20408.13892-.30558a37.13128,37.13128,0,0,0-29.43942,68.17221Z"/>
        <path class="cls-36" d="M225.11936,329.57327c.0439-.11306.08825-.226.13173-.33919.31127.13807.62473.273.94205.4025,17.93116,7.31628,38.68843-2,46.36268-20.80847,7.571-18.55552-.4207-39.4164-17.85445-46.99922.04309-.1032.08649-.20636.12843-.31014a37.13128,37.13128,0,0,1-29.71044,68.05453Z"/>
        <path class="cls-37" d="M250.6645,270.167A27.59441,27.59441,0,1,0,264.17493,306.778,27.59441,27.59441,0,0,0,250.6645,270.167Zm-21.52983,46.71328a23.84161,23.84161,0,1,1,31.63206-11.673A23.84164,23.84164,0,0,1,229.13467,316.88024Z"/>
      </g>
      <g>
        <polygon class="cls-38" points="42.289 174.436 44.161 175.83 5.818 227.299 5.34 224.033 42.289 174.436"/>
        <path class="cls-39" d="M184.92694-30.70276l13.101,9.76a2.33384,2.33384,0,0,1,.47729,3.26586L111.6823,98.8674,96.70968,87.71313Z"/>
        <path class="cls-40" d="M196.50732-22.07562l1.52066,1.13286a2.33384,2.33384,0,0,1,.47729,3.26586L111.68229,98.8674l-3.39223-2.52714Z"/>
        <g>
          <rect class="cls-41" x="70.72952" y="26.62605" width="147.66383" height="9.33538" transform="translate(33.10222 128.52619) rotate(-53.31467)"/>
          <rect class="cls-42" x="70.72952" y="26.62605" width="147.66383" height="9.33538" transform="translate(33.10222 128.52619) rotate(-53.31467)"/>
        </g>
        <rect class="cls-43" x="60.88071" y="146.36598" width="2.33384" height="7.00153" transform="translate(-95.20329 110.09115) rotate(-53.31467)"/>
        <path class="cls-44" d="M65.116,144.997c-1.04331-.78019-2.17145-1.68351-3.31133-2.63017l-2.80307,3.77555,7.4863,5.57711,2.83-3.79778C67.79918,146.91654,66.33932,145.9119,65.116,144.997Z"/>
        <rect class="cls-45" x="59.48642" y="144.73679" width="2.33384" height="14.00306" transform="translate(-97.26547 109.72649) rotate(-53.31467)"/>
        <rect class="cls-46" x="48.77182" y="152.45423" width="14.00306" height="11.66922" transform="translate(-104.48311 108.45019) rotate(-53.31467)"/>
        <rect class="cls-47" x="44.13424" y="162.97904" width="9.33538" height="9.33538" transform="translate(-12.2179 331.24267) rotate(-143.31467)"/>
        <rect class="cls-48" x="42.28523" y="170.92761" width="4.66769" height="4.66769" transform="translate(-120.98056 105.53293) rotate(-53.31467)"/>
        <path class="cls-49" d="M155.38464,53.79306a2.33347,2.33347,0,0,0-.43308-3.23181c-2.81438-2.20115-8.32921-6.4937-12.03543-9.24591-3.68579-2.737-9.24949-6.92281-12.1288-9.092a2.33385,2.33385,0,0,0-3.27683.471l-44.283,59.50918L111.202,113.11281Z"/>
        <g>
          <path class="cls-20" d="M83.20459,92.18641l27.99733,20.92641L80.2673,154.70916s-9.80281-5.71229-15.1513-9.71214-12.92234-11.20213-12.92234-11.20213Z"/>
          <path class="cls-50" d="M83.20459,92.18641l27.99733,20.92641L80.2673,154.70916s-9.80281-5.71229-15.1513-9.71214-12.92234-11.20213-12.92234-11.20213Z"/>
        </g>
        <g>
          <polygon class="cls-20" points="90.213 82.846 118.243 103.706 111.234 113.14 83.205 92.186 90.213 82.846"/>
          <polygon class="cls-51" points="90.213 82.846 118.243 103.706 111.234 113.14 83.205 92.186 90.213 82.846"/>
        </g>
        <g>
          <path class="cls-52" d="M118.8055,18.988c.77-1.03364,13.12535,6.86782,27.59635,17.64841S171.97967,56.99431,171.20963,58.028l-2.09143,2.80736c.77-1.03364-10.33678-10.611-24.80778-21.39156S117.48412,20.7617,116.71407,21.79535Z"/>
          <path class="cls-53" d="M118.8055,18.988c.77-1.03364,13.12535,6.86782,27.59635,17.64841S171.97967,56.99431,171.20963,58.028l-2.09143,2.80736c.77-1.03364-10.33678-10.611-24.80778-21.39156S117.48412,20.7617,116.71407,21.79535Z"/>
        </g>
        <ellipse class="cls-54" cx="142.91614" cy="41.31533" rx="2.33384" ry="32.67381" transform="translate(24.40325 131.24127) rotate(-53.31467)"/>
      </g>
    </g>
  </g>
</svg>
