<svg id="Fillauer" xmlns="http://www.w3.org/2000/svg" width="150" height="41.01" viewBox="0 0 150 41.01">
  <title>fillauer</title>
  <path id="Fillauer-2" data-name="Fillauer" d="M73.78,12.63a3.65,3.65,0,0,1,3.41-3.85,2.57,2.57,0,0,1,2.63,2.68A3.54,3.54,0,0,1,76.4,15.2,2.3,2.3,0,0,1,73.78,12.63ZM184,39.34l-.84,2.91h-.67c-4.92,0-7.26-1-7.26-3.8,0-3.3,3.24-7.6,3.24-9.83,0-.67-.84-1.34-2.46-2.23-3.58,10.34-7.21,15.47-13.18,15.87h-.56c-3.24,0-5.64-.73-7.37-2.18a22.21,22.21,0,0,1-8.38,2.18h-.39c-3.85,0-5.47-.73-5.47-3.24a17.87,17.87,0,0,1,1-4.64c-3.46,5.08-5.7,7.88-9.05,7.88-1.84,0-3-.67-3.58-1.9a11.29,11.29,0,0,1-5.92,1.9h-.39c-4.25,0-6.15-.73-6.15-3.13a15.58,15.58,0,0,1,1.12-4.69c-3,5.31-5.87,7.88-9.39,7.88A4.48,4.48,0,0,1,104.73,41,13.2,13.2,0,0,1,99,42.24h-.5c-3.13,0-4.92-.84-5.47-2.79a10,10,0,0,1-6.37,2.79h-.5c-3.13,0-4.92-.84-5.47-2.79a10,10,0,0,1-6.37,2.79h-.73c-3.63,0-5.47-.89-5.81-3a8.14,8.14,0,0,1-6,3l.84-2.91c3.58-.11,5.7-4,7.71-11.73,1.28-5,.34-5.75,4.8-5.75,1.12,0,1.73.34,1.73.95,0,1.06-.95,2.74-1.79,5.42L73,34.42a11.62,11.62,0,0,0-.84,3.18c0,1.34.84,1.56,3.07,1.73,1.56,0,3.24-.95,5.25-2.74A126,126,0,0,1,85.4,16.26c1.62-4.8,3-7.37,5.53-7.37,1.4,0,2.46,1.23,2.46,3.07s-1.4,5.53-4.69,9.5C85.9,30.57,85.06,36,85.06,37.16c0,1.56.73,2.18,2.51,2.18,1.56,0,3.24-.95,5.25-2.74a120.36,120.36,0,0,1,4.92-20.34c1.62-4.8,3-7.37,5.53-7.37,1.4,0,2.46,1.23,2.46,3.07s-1.4,5.53-4.69,9.5c-2.79,9.11-3.63,14.58-3.63,15.7,0,1.56.73,2.18,2.51,2.18a9.12,9.12,0,0,0,3.85-.95,12.06,12.06,0,0,1-.17-2,14.76,14.76,0,0,1,3-8c2.91-4.19,6.48-6.31,10.17-6.31a5.57,5.57,0,0,1,4.3,1.73l.34-.95c.28-.89.45-1.34,1.34-1.34,2,0,3.69.78,3.69,1.73,0,.45-1.12,2.12-2.57,5.47-2,4.47-2.85,7.49-2.85,9.11,0,1.28.73,1.51,3,1.68a10.41,10.41,0,0,0,4.8-1.4,3.69,3.69,0,0,1-.06-.78c0-2.46,1.34-5.92,2.91-10.56,1.28-3.74,1.45-5.08,2.79-5.08,1.79,0,4.25.84,4.25,1.73,0,.5-1.17,2.46-2.85,6.54-1.56,3.8-2.4,6.26-2.4,7.43a1.17,1.17,0,0,0,1.28,1.34c1.9,0,4.64-3.3,7-8.77,2.51-5.87,1.79-8.16,4.13-8.16,1.84,0,3.58.73,3.58,1.56,0,.5-1.12,2.57-2.74,6.54-1.34,3.52-2.07,6-2.07,7.6s.73,1.9,2.79,2a15,15,0,0,0,5.2-1.23,8.84,8.84,0,0,1-1.62-5.7c0-5.64,4.47-10.67,9.89-10.67,3,0,4.86,1.84,4.86,5,0,2.91-2.18,7.49-6.82,11a6.36,6.36,0,0,0,4.58,1.56h.28c4.08-.73,6.65-5.59,10-14.64a3.2,3.2,0,0,1-.95-2.46c0-2.07,1.28-3.63,3-3.63a2.34,2.34,0,0,1,2.57,2.4A3.6,3.6,0,0,1,178,23c3.8,2.4,6,2.68,6,5,0,2.79-3.41,7.26-3.41,9.89C180.37,39,181.26,39.11,184,39.34Zm-64.08-13a3.82,3.82,0,0,0-2.29-.89c-1.62,0-4,1.45-6.09,4.08a13,13,0,0,0-3,7.09c0,1.4.5,2.07,1.51,2.07C112.83,38.67,116.18,34.53,119.92,26.32Zm37.21,9.22c3.41-2.23,5.31-6.26,5.31-8.27a1.65,1.65,0,0,0-1.79-1.9c-2.29,0-4.53,3.18-4.53,7A4.22,4.22,0,0,0,157.13,35.54ZM66,26.15H60.09s3.35-9.94,4.8-14.58A33.77,33.77,0,0,0,51.71,8.5c-5,0-7.77,2.35-7.77,5.75a2.3,2.3,0,0,0,2.18,2.57,1.21,1.21,0,0,0,1.06-.56c-.06-.5-.11-.89-.11-1.12,0-1.56,1.45-2.51,4.08-2.51a22.67,22.67,0,0,1,7.49,1.73s-2.23,6.76-4,11.79H48.53L47.24,30h6.15c-3.18,10.28-6.15,15-12,15a4.21,4.21,0,0,1-4.58-3.8h-.11A2.78,2.78,0,0,0,34,44.08c0,2.85,3,5.42,7.65,5.42,7.49,0,12.63-5.2,17-19.55h6Z" transform="translate(-34 -8.5)"/>
</svg>
