<svg id="stryker" xmlns="http://www.w3.org/2000/svg" width="156" height="38.9" viewBox="0 0 156 38.9">
  <title>stryker</title>
  <path d="M31,40.92V35.16H53a1.68,1.68,0,0,0,1.75-1.7,1.7,1.7,0,0,0-1.66-1.88c-.23,0-.47,0-.7,0-3.27,0-6.55,0-9.82,0a8.17,8.17,0,0,1-5.2-1.68,7,7,0,0,1-2.66-5.58,8.05,8.05,0,0,1,.56-3.47,6.89,6.89,0,0,1,5.34-4.14,11.78,11.78,0,0,1,2.29-.24c6.25,0,12.49,0,18.74,0h.52V8.55H67.9v7.86h7.84v5.77H67.93c0,.19,0,.32,0,.45q0,5.3,0,10.61a3.57,3.57,0,0,0,0,.49,1.7,1.7,0,0,0,1.82,1.6h6.05V41l-.44,0c-2,0-4,0-6,0a7,7,0,0,1-6.94-5.83,12.61,12.61,0,0,1-.25-2.37c0-3.37,0-6.74,0-10.11V22.2H42.57a4.71,4.71,0,0,0-.7,0,1.68,1.68,0,0,0-1.55,1.85,1.73,1.73,0,0,0,1.8,1.72c2.12,0,4.24,0,6.36,0,1.61,0,3.23-.09,4.82,0a7.32,7.32,0,0,1,5.42,2.6,7.75,7.75,0,0,1,1.59,6,6.88,6.88,0,0,1-2.85,5,8.11,8.11,0,0,1-4.77,1.47c-7.13,0-14.25,0-21.38,0Zm134.66-9.71a2.33,2.33,0,0,0,0-.24,12.59,12.59,0,0,0,0-3.7,12.78,12.78,0,1,0-24.5,6.62,12.11,12.11,0,0,0,11.18,7.93c2.8.17,5.61,0,8.42,0l.15,0V36.36h-.52c-2.52,0-5,0-7.55,0a6.29,6.29,0,0,1-4.52-1.78,7.62,7.62,0,0,1-2-3.24h19.25A.81.81,0,0,0,165.66,31.21Zm-19.15-4.75c.23-1.92,3.33-4.25,5.91-4.44,3.21-.23,6.52,1.8,7.23,4.44ZM125.67,26V8.76H120v33h5.72v-.47c0-2,0-4,0-6a1.3,1.3,0,0,1,.31-.89c.69-.84,1.35-1.7,2-2.55l.91-1.15.25.43q3,5.22,5.91,10.44a.59.59,0,0,0,.6.36c1.93,0,3.85,0,5.78,0h.39L133,26.26l8.06-9.68-.2,0c-2.32,0-4.65,0-7,0a.67.67,0,0,0-.43.23q-2.13,2.52-4.24,5.06L125.78,26ZM96.18,47.43c2.46,0,4.93.05,7.39,0A7.22,7.22,0,0,0,108.83,45a10.46,10.46,0,0,0,2.23-4.23q3.11-10.59,6.19-21.2l.82-2.82h-.5c-1.53,0-3.05,0-4.58,0-.43,0-.58.14-.69.53q-2.33,8.29-4.7,16.57c0,.09-.07.18-.13.34l-.07-.24Q105,25.5,102.59,17.1a.46.46,0,0,0-.53-.4c-1.51,0-3,0-4.54,0h-.66l.14.48,6.8,23c.28.94-.1,1.44-1.08,1.44H95.89v5.76Zm90.53-25.15A6.29,6.29,0,0,0,183,17.51a9.78,9.78,0,0,0-4.15-.92c-3.38,0-6.77,0-10.15,0h-.43V41.14h5.77V22.38l.45,0h4.17a5.4,5.4,0,0,1,.78.06,1.85,1.85,0,0,1,1.7,1.73,13.07,13.07,0,0,1,0,1.44c0,.67,0,1.34,0,2H187A43.22,43.22,0,0,0,186.71,22.28ZM78.2,41.18H84V22.44c.07,0,.1-.07.12-.07,1.66,0,3.33,0,5,0a2,2,0,0,1,2,2.19c0,.91,0,1.82,0,2.72v.38h5.7c0-1.5.11-3,0-4.44a6.64,6.64,0,0,0-3.54-5.52,9.1,9.1,0,0,0-4.36-1.07H78.2Z" transform="translate(-31 -8.55)"/>
</svg>
