<svg id="UNIQ" xmlns="http://www.w3.org/2000/svg" width="120" height="30.72" viewBox="0 0 120 30.72">
  <title>uniq</title>
  <path d="M147.87,12.64h3.24a1.84,1.84,0,0,0,.33.11,15.31,15.31,0,0,1,11.33,22.85c-.16.27-.31.55-.44.79,1.75,1.76,3.45,3.5,5.17,5.22.48.48,1,.92,1.48,1.38.06.3-.06.37-.36.37-2.64,0-5.28,0-7.92,0l-2.58-2.69-.67.39a14.51,14.51,0,0,1-5.26,2c-.72.12-1.45.2-2.17.3h-1.08a2.22,2.22,0,0,0-.39-.1,15,15,0,0,1-10.21-4.79,15.33,15.33,0,0,1,7-25.25C146.15,13,147,12.83,147.87,12.64Zm10.25,19.44c.14-.7.27-1.38.4-2.06a9.22,9.22,0,1,0-9.36,7.2,14.82,14.82,0,0,0,4.57-.81l-4.64-4.61,4.31-4.44ZM77.8,43.35h6.12V25.72l.53.51L101,42.81l.56.54h1.56a5.92,5.92,0,0,0,.1-.76q0-14.59,0-29.18c0-.26,0-.52,0-.78H97.11q0,6.29,0,12.58c0,1.59,0,3.19,0,4.88a4.23,4.23,0,0,1-.37-.29L79.85,13a3.22,3.22,0,0,1-.25-.32H77.8Zm-27.9-7.3a11.43,11.43,0,0,0,10,7.2,2.43,2.43,0,0,1,.38.1h1c.7-.11,1.41-.19,2.11-.35a11.79,11.79,0,0,0,9.29-11.56q0-9.41,0-18.81H66.4c0,.26.06.51.06.77q0,8.88,0,17.75a5.66,5.66,0,1,1-11.31,0q0-9,0-18.05c0-.16,0-.32,0-.48H49V32.92A23.29,23.29,0,0,0,49.89,36.06Zm73.38,7.3c0-3.61,0-7.23,0-10.84a2,2,0,0,1,.25-1c2-3.57,4.11-7.12,6.16-10.68q2.37-4.12,4.73-8.25h-7.08c-1.06,1.85-2.11,3.71-3.18,5.56q-1.79,3.11-3.61,6.22l-.35.58L118,21.22l-4.63-8a4,4,0,0,1-.21-.54h-7.08a4.74,4.74,0,0,0,.23.54q5.28,9.15,10.55,18.29a2.74,2.74,0,0,1,.34,1.29c0,3.53,0,7.07,0,10.6Z" transform="translate(-49 -12.64)"/>
</svg>
