<svg xmlns="http://www.w3.org/2000/svg" xmlns:xlink="http://www.w3.org/1999/xlink" width="324" height="324" viewBox="0 0 324 324">
  <defs>
    <style>
      .cls-1 {
        fill: none;
      }

      .cls-2 {
        clip-path: url(#clip-path);
      }

      .cls-11, .cls-15, .cls-16, .cls-17, .cls-3 {
        fill-opacity: 0.46;
      }

      .cls-3, .cls-4 {
        opacity: 0.8;
      }

      .cls-3 {
        fill: url(#linear-gradient);
      }

      .cls-5 {
        opacity: 0.46;
      }

      .cls-6 {
        fill: url(#linear-gradient-2);
      }

      .cls-7 {
        fill: url(#linear-gradient-3);
      }

      .cls-8 {
        fill: url(#linear-gradient-4);
      }

      .cls-9 {
        fill: url(#linear-gradient-5);
      }

      .cls-10 {
        fill: url(#linear-gradient-6);
      }

      .cls-11 {
        opacity: 0.85;
        fill: url(#linear-gradient-7);
      }

      .cls-12 {
        fill: #fff;
      }

      .cls-13 {
        fill: url(#linear-gradient-8);
      }

      .cls-14 {
        fill: url(#linear-gradient-9);
      }

      .cls-15 {
        fill: url(#linear-gradient-10);
      }

      .cls-16 {
        fill: url(#linear-gradient-11);
      }

      .cls-17 {
        fill: url(#linear-gradient-12);
      }

      .cls-18 {
        fill: url(#linear-gradient-13);
      }

      .cls-19 {
        fill: url(#linear-gradient-14);
      }
    </style>
    <clipPath id="clip-path">
      <rect class="cls-1" x="-772.11642" y="-0.22286" width="1096" height="324.1296"/>
    </clipPath>
    <linearGradient id="linear-gradient" x1="288.552" y1="110.24647" x2="72.18091" y2="486.08587" gradientUnits="userSpaceOnUse">
      <stop offset="0" stop-color="#0884c2" stop-opacity="0"/>
      <stop offset="0.25761" stop-color="#0884c2" stop-opacity="0.23705"/>
      <stop offset="0.83931" stop-color="#0884c2" stop-opacity="0.83034"/>
      <stop offset="1" stop-color="#0884c2"/>
    </linearGradient>
    <linearGradient id="linear-gradient-2" x1="156.12882" y1="-1.3412" x2="72.06696" y2="106.44365" xlink:href="#linear-gradient"/>
    <linearGradient id="linear-gradient-3" x1="134.33065" y1="-3.57616" x2="38.23911" y2="90.14275" gradientUnits="userSpaceOnUse">
      <stop offset="0" stop-color="#be5db3" stop-opacity="0"/>
      <stop offset="0.9949" stop-color="#be5db3" stop-opacity="0.80777"/>
    </linearGradient>
    <linearGradient id="linear-gradient-4" x1="209.45773" y1="22.37489" x2="104.02408" y2="260.824" xlink:href="#linear-gradient"/>
    <linearGradient id="linear-gradient-5" x1="256.45029" y1="56.18321" x2="156.33097" y2="178.09015" xlink:href="#linear-gradient-3"/>
    <linearGradient id="linear-gradient-6" x1="125.00104" y1="313.99964" x2="47.91519" y2="174.25955" xlink:href="#linear-gradient"/>
    <linearGradient id="linear-gradient-7" x1="90.60288" y1="288.80258" x2="11.77972" y2="179.26483" gradientUnits="userSpaceOnUse">
      <stop offset="0" stop-color="#9fdad9" stop-opacity="0"/>
      <stop offset="0.26265" stop-color="#7ad2d2" stop-opacity="0.24198"/>
      <stop offset="0.85587" stop-color="#1ebfc2" stop-opacity="0.84774"/>
      <stop offset="1" stop-color="#07babe"/>
    </linearGradient>
    <linearGradient id="linear-gradient-8" x1="306.85016" y1="378.03745" x2="92.81341" y2="-53.36473" gradientUnits="userSpaceOnUse">
      <stop offset="0.03698" stop-color="#0884c2" stop-opacity="0"/>
      <stop offset="0.28506" stop-color="#0884c2" stop-opacity="0.23705"/>
      <stop offset="0.84523" stop-color="#0884c2" stop-opacity="0.83034"/>
      <stop offset="0.99998" stop-color="#0884c2"/>
    </linearGradient>
    <linearGradient id="linear-gradient-9" x1="262.46763" y1="278.92044" x2="120.1343" y2="217.5871" xlink:href="#linear-gradient-3"/>
    <linearGradient id="linear-gradient-10" x1="220.37872" y1="249.70256" x2="210.41208" y2="226.09735" xlink:href="#linear-gradient-7"/>
    <linearGradient id="linear-gradient-11" x1="305.50499" y1="262.95307" x2="267.86782" y2="226.28593" xlink:href="#linear-gradient-7"/>
    <linearGradient id="linear-gradient-12" x1="176.29247" y1="235.72321" x2="146.04021" y2="225.71071" xlink:href="#linear-gradient-7"/>
    <linearGradient id="linear-gradient-13" x1="327.91747" y1="185.97933" x2="217.25605" y2="182.74648" xlink:href="#linear-gradient-3"/>
    <linearGradient id="linear-gradient-14" x1="91.77673" y1="189.43623" x2="87.51913" y2="146.63681" xlink:href="#linear-gradient-3"/>
  </defs>
  <title>finalArtboard 5</title>
  <g id="Service_and_Delivery" data-name="Service and Delivery">
    <g class="cls-2">
      <g>
        <polygon class="cls-3" points="176.601 165.364 161.56 174.068 161.56 330.538 297 252.338 297 95.868 176.601 165.364"/>
        <g class="cls-4">
          <g class="cls-5">
            <polygon class="cls-6" points="201.112 25.049 149.025 -5.103 159.511 0.967 30.825 75.256 72.486 99.34 61.982 105.408 201.112 25.049"/>
          </g>
        </g>
        <polygon class="cls-7" points="30.825 75.256 159.511 0.967 149.025 -5.103 9.825 75.256 61.982 105.408 72.486 99.34 30.825 75.256"/>
        <g class="cls-4">
          <g class="cls-5">
            <polygon class="cls-8" points="175.415 125.741 262.737 75.256 215.51 48.355 89 121.424 96.938 125.532 136.326 148.28 175.415 125.741"/>
          </g>
        </g>
        <polygon class="cls-9" points="228.131 41.065 215.51 48.355 262.737 75.256 175.415 125.741 136.326 148.28 149.025 155.615 200.834 125.741 288.156 75.256 228.131 41.065"/>
        <g class="cls-4">
          <g class="cls-5">
            <polygon class="cls-10" points="78.485 140.852 99.32 152.854 99.32 178.942 78.485 168.234 78.485 178.942 53.556 166.13 53.556 126.298 2.165 96.703 2.165 252.059 136.63 329.702 136.63 174.347 78.485 140.852"/>
          </g>
        </g>
        <polygon class="cls-11" points="23 252.059 23 108.702 2.165 96.703 2.165 252.059 136.63 329.702 136.63 317.672 23 252.059"/>
        <path class="cls-1" d="M78.48517,168.234V140.852L99.32,152.85393v26.0885ZM23,252.05925V108.70183L2.16516,96.70341V252.05925l134.46527,77.64307V317.6718Z"/>
      </g>
      <g>
        <path class="cls-12" d="M357.59521,257.504l.70038.01862a124.06687,124.06687,0,0,0-.17932-25.9552c-.39178-3.489-4.46155-6.11371-7.98053-6.11371a27.40371,27.40371,0,0,1-18.75867-47.69531,6.89753,6.89753,0,0,0,.75684-9.36212,122.87,122.87,0,0,0-19.66254-19.858,6.91229,6.91229,0,0,0-9.433.76331c-7.39764,8.19305-20.68671,11.23755-30.956,6.95313a27.56767,27.56767,0,0,1-16.763-26.94635,6.88721,6.88721,0,0,0-6.09326-7.25165,123.90894,123.90894,0,0,0-25.73877-.28412,27.5973,27.5973,0,0,1-16.99194,25.46173c-10.14581,4.1449-23.34259,1.12292-30.72516-6.99823a6.91729,6.91729,0,0,0-9.36646-.78473,123.37709,123.37709,0,0,0-20.078,19.8515,6.90471,6.90471,0,0,0,.73962,9.42975,27.505,27.505,0,0,1,6.94031,30.96991c-4.28333,10.2038-14.87787,16.777-27.00543,16.777a6.75335,6.75335,0,0,0-7.17108,6.0965,124.41736,124.41736,0,0,0-.05261,28.22174c.39185,3.504,4.58179,6.10614,8.1394,6.10614a27.22528,27.22528,0,0,1,25.5401,17.00562,27.61374,27.61374,0,0,1-6.94244,30.694,6.891,6.891,0,0,0-.75256,9.34924,123.30763,123.30763,0,0,0,19.63141,19.86548,6.90244,6.90244,0,0,0,9.44806-.74823c7.42657-8.2124,20.71356-11.25159,30.94092-6.95856a27.52988,27.52988,0,0,1,16.79523,26.93671,6.889,6.889,0,0,0,6.089,7.25165A123.581,123.581,0,0,0,256.59,360.376a6.90708,6.90708,0,0,0,6.1416-7.10779,27.58821,27.58821,0,0,1,16.98523-26.46759c10.21344-4.17169,23.3512-1.11859,30.738,6.99072a6.93171,6.93171,0,0,0,9.36646.78369,123.54642,123.54642,0,0,0,20.078-19.8526,6.89376,6.89376,0,0,0-.73962-9.43408,27.49828,27.49828,0,0,1-6.95319-30.95917A27.78153,27.78153,0,0,1,357.59521,257.504Zm-53.04785,16.1994-31.33173-31.33276a43.89231,43.89231,0,0,0-51.96582-59.44928,4.96831,4.96831,0,0,0-3.43634,3.461,4.84894,4.84894,0,0,0,1.37732,4.7428s15.46832,15.58746,20.6438,20.76184a3.20925,3.20925,0,0,1,.46484,2.30164l-.04834.34027c-.52173,5.6897-1.52759,12.51941-2.35742,15.14417-.11163.11053-.21686.204-.33069.31775-.11914.11914-.22864.234-.34351.35211-2.65912.85345-9.59406,1.87115-15.37384,2.38855l.001-.03113-.25977.06549a2.24549,2.24549,0,0,1-.24585.01184,3.30659,3.30659,0,0,1-2.37891-1.00909c-5.3869-5.387-20.24872-20.14246-20.24872-20.14246a5.05206,5.05206,0,0,0-3.61237-1.60815,4.91131,4.91131,0,0,0-4.62579,3.73694A43.89659,43.89659,0,0,0,249.946,265.63908l31.672,31.672a71.4951,71.4951,0,1,1,22.92932-23.60773Z"/>
        <path class="cls-13" d="M357.59521,257.504l.70038.01862a124.06687,124.06687,0,0,0-.17932-25.9552c-.39178-3.489-4.46155-6.11371-7.98053-6.11371a27.40371,27.40371,0,0,1-18.75867-47.69531,6.89753,6.89753,0,0,0,.75684-9.36212,122.87,122.87,0,0,0-19.66254-19.858,6.91229,6.91229,0,0,0-9.433.76331c-7.39764,8.19305-20.68671,11.23755-30.956,6.95313a27.56767,27.56767,0,0,1-16.763-26.94635,6.88721,6.88721,0,0,0-6.09326-7.25165,123.90894,123.90894,0,0,0-25.73877-.28412,27.5973,27.5973,0,0,1-16.99194,25.46173c-10.14581,4.1449-23.34259,1.12292-30.72516-6.99823a6.91729,6.91729,0,0,0-9.36646-.78473,123.37709,123.37709,0,0,0-20.078,19.8515,6.90471,6.90471,0,0,0,.73962,9.42975,27.505,27.505,0,0,1,6.94031,30.96991c-4.28333,10.2038-14.87787,16.777-27.00543,16.777a6.75335,6.75335,0,0,0-7.17108,6.0965,124.41736,124.41736,0,0,0-.05261,28.22174c.39185,3.504,4.58179,6.10614,8.1394,6.10614a27.22528,27.22528,0,0,1,25.5401,17.00562,27.61374,27.61374,0,0,1-6.94244,30.694,6.891,6.891,0,0,0-.75256,9.34924,123.30763,123.30763,0,0,0,19.63141,19.86548,6.90244,6.90244,0,0,0,9.44806-.74823c7.42657-8.2124,20.71356-11.25159,30.94092-6.95856a27.52988,27.52988,0,0,1,16.79523,26.93671,6.889,6.889,0,0,0,6.089,7.25165A123.581,123.581,0,0,0,256.59,360.376a6.90708,6.90708,0,0,0,6.1416-7.10779,27.58821,27.58821,0,0,1,16.98523-26.46759c10.21344-4.17169,23.3512-1.11859,30.738,6.99072a6.93171,6.93171,0,0,0,9.36646.78369,123.54642,123.54642,0,0,0,20.078-19.8526,6.89376,6.89376,0,0,0-.73962-9.43408,27.49828,27.49828,0,0,1-6.95319-30.95917A27.78153,27.78153,0,0,1,357.59521,257.504Zm-53.04785,16.1994-31.33173-31.33276a43.89231,43.89231,0,0,0-51.96582-59.44928,4.96831,4.96831,0,0,0-3.43634,3.461,4.84894,4.84894,0,0,0,1.37732,4.7428s15.46832,15.58746,20.6438,20.76184a3.20925,3.20925,0,0,1,.46484,2.30164l-.04834.34027c-.52173,5.6897-1.52759,12.51941-2.35742,15.14417-.11163.11053-.21686.204-.33069.31775-.11914.11914-.22864.234-.34351.35211-2.65912.85345-9.59406,1.87115-15.37384,2.38855l.001-.03113-.25977.06549a2.24549,2.24549,0,0,1-.24585.01184,3.30659,3.30659,0,0,1-2.37891-1.00909c-5.3869-5.387-20.24872-20.14246-20.24872-20.14246a5.05206,5.05206,0,0,0-3.61237-1.60815,4.91131,4.91131,0,0,0-4.62579,3.73694A43.89659,43.89659,0,0,0,249.946,265.63908l31.672,31.672a71.4951,71.4951,0,1,1,22.92932-23.60773Z"/>
      </g>
      <g>
        <g>
          <path class="cls-12" d="M281.61807,297.31112c-15.29075,9.50623-28.72854,11.25692-38.50387,11.25692A71.53609,71.53609,0,0,1,188.533,190.7686a71.53862,71.53862,0,0,0,84.75171,114.87585c7.96527-5.1225,8.33334-8.33334,8.33334-8.33334Z"/>
          <path class="cls-14" d="M281.61807,297.31112c-15.29075,9.50623-28.72854,11.25692-38.50387,11.25692A71.53609,71.53609,0,0,1,188.533,190.7686a71.53862,71.53862,0,0,0,84.75171,114.87585c7.96527-5.1225,8.33334-8.33334,8.33334-8.33334Z"/>
        </g>
        <path class="cls-15" d="M195.10107,210.01793a4.91131,4.91131,0,0,0-4.62579,3.73694,43.6691,43.6691,0,0,0-1.08911,5.39606,6.11545,6.11545,0,0,1,.994.80847s14.86182,14.75555,20.24872,20.14246a3.30659,3.30659,0,0,0,2.37891,1.00909,2.26769,2.26769,0,0,0,.24585-.01178l.25977-.06549-.001.03113c5.77979-.51746,12.71472-1.53516,15.37384-2.38861.11487-.118.22437-.23291.34351-.35211.11377-.11377.219-.20715.33063-.31775a49.86185,49.86185,0,0,0,1.28528-6.3656c-2.82306.43469-6.05975.82751-8.99994,1.0907l.001-.03113-.25977.06549a2.24549,2.24549,0,0,1-.24585.01184,3.30659,3.30659,0,0,1-2.37891-1.00909c-5.3869-5.387-20.24872-20.14246-20.24872-20.14246A5.05206,5.05206,0,0,0,195.10107,210.01793Z"/>
        <path class="cls-16" d="M301.65552,270.81138l-28.43988-28.4408a43.89231,43.89231,0,0,0-51.96582-59.44928,4.96831,4.96831,0,0,0-3.43634,3.461,4.70132,4.70132,0,0,0,.593,3.75543,44.08687,44.08687,0,0,1,6.07617-.42792,43.89913,43.89913,0,0,1,40.39972,60.99408L296.214,282.03667A71.35713,71.35713,0,0,0,301.65552,270.81138Z"/>
        <path class="cls-17" d="M206.49542,147.2343c-8.23157,3.36285-18.47058,2.007-25.98425-2.96112h0c-.07452-.04926-.14465-.10394-.21863-.15393q-.66568-.44971-1.30041-.93787c-.163-.12524-.32172-.25531-.48151-.38422q-.51562-.4162-1.00726-.85773c-.14362-.12891-.28876-.25623-.42914-.38837-.45-.42383-.8891-.85864-1.304-1.315a6.91729,6.91729,0,0,0-9.36646-.78473,125.08082,125.08082,0,0,0-20.078,19.8515,6.90471,6.90471,0,0,0,.73962,9.42975,27.505,27.505,0,0,1,6.94031,30.96991c-4.28333,10.2038-14.87787,16.777-27.00543,16.777a6.75335,6.75335,0,0,0-7.17108,6.0965,124.41736,124.41736,0,0,0-.05261,28.22174c.39185,3.504,4.58179,6.10614,8.1394,6.10614a27.22528,27.22528,0,0,1,25.5401,17.00562,27.61374,27.61374,0,0,1-6.94244,30.694,6.891,6.891,0,0,0-.75256,9.34924,123.30763,123.30763,0,0,0,19.63141,19.86548,6.90244,6.90244,0,0,0,9.44806-.74823,25.20752,25.20752,0,0,1,4.78491-4.08911,122.90031,122.90031,0,0,1-13.99023-15.02814,6.891,6.891,0,0,1,.7525-9.34924,27.61363,27.61363,0,0,0,6.94244-30.694,27.22514,27.22514,0,0,0-25.54-17.00562c-3.55768,0-7.74762-2.60217-8.1394-6.10614a124.42089,124.42089,0,0,1,.05255-28.22174,6.75341,6.75341,0,0,1,7.17114-6.0965c12.1275,0,22.722-6.57318,27.00543-16.777a27.505,27.505,0,0,0-6.94031-30.96991,6.90472,6.90472,0,0,1-.73969-9.42975c1.86578-2.32794,3.83832-4.57556,5.877-6.76544,7.52283,5.02344,17.81622,6.40833,26.08514,3.03027a27.29923,27.29923,0,0,0,12.63953-10.58887A26.93818,26.93818,0,0,1,206.49542,147.2343Z"/>
        <path class="cls-18" d="M366.44965,223.23405c-.39185-3.489-4.46155-6.11371-7.98053-6.11371A27.40368,27.40368,0,0,1,339.71045,169.425a6.89772,6.89772,0,0,0,.75684-9.36218,122.87,122.87,0,0,0-19.6626-19.85791,6.91235,6.91235,0,0,0-9.433.76324c-7.39764,8.19312-20.68671,11.23761-30.956,6.95319a27.56781,27.56781,0,0,1-16.763-26.94635,6.88716,6.88716,0,0,0-6.09326-7.25165,123.8614,123.8614,0,0,0-27.92438-.073,6.91052,6.91052,0,0,0-6.14374,7.10345c.012.34137-.0033.679-.004,1.01874a123.90894,123.90894,0,0,1,25.73877.28412,6.88721,6.88721,0,0,1,6.09326,7.25165,27.56767,27.56767,0,0,0,16.763,26.94635c10.26929,4.28442,23.55835,1.23993,30.956-6.95312a6.91229,6.91229,0,0,1,9.433-.76331,122.87,122.87,0,0,1,19.66254,19.858,6.89753,6.89753,0,0,1-.75684,9.36212,27.40371,27.40371,0,0,0,18.75867,47.69531c3.519,0,7.58875,2.62476,7.98053,6.11371a124.06687,124.06687,0,0,1,.17932,25.9552l.83478.02216a6.90925,6.90925,0,0,0,7.26556-6.08789A123.87261,123.87261,0,0,0,366.44965,223.23405Z"/>
      </g>
      <polygon class="cls-19" points="78.485 168.234 78.485 140.852 99.32 152.854 99.32 178.942 78.485 168.234"/>
    </g>
  </g>
</svg>
