<svg xmlns="http://www.w3.org/2000/svg" xmlns:xlink="http://www.w3.org/1999/xlink" width="324" height="324" viewBox="0 0 324 324">
  <defs>
    <style>
      .cls-1 {
        fill: none;
      }

      .cls-2 {
        clip-path: url(#clip-path);
      }

      .cls-10, .cls-11, .cls-12, .cls-16, .cls-17, .cls-18, .cls-19, .cls-20, .cls-3, .cls-4, .cls-5, .cls-6, .cls-7, .cls-8, .cls-9 {
        fill-opacity: 0.46;
      }

      .cls-20, .cls-3 {
        opacity: 0.8;
      }

      .cls-3 {
        fill: url(#linear-gradient);
      }

      .cls-11, .cls-12, .cls-13, .cls-16, .cls-18, .cls-19, .cls-4, .cls-7, .cls-8, .cls-9 {
        opacity: 0.7;
      }

      .cls-4 {
        fill: url(#linear-gradient-2);
      }

      .cls-5 {
        fill: url(#linear-gradient-3);
      }

      .cls-6 {
        fill: url(#linear-gradient-4);
      }

      .cls-7 {
        fill: url(#linear-gradient-5);
      }

      .cls-8 {
        fill: url(#linear-gradient-6);
      }

      .cls-9 {
        fill: url(#linear-gradient-7);
      }

      .cls-10 {
        fill: url(#linear-gradient-8);
      }

      .cls-11 {
        fill: url(#linear-gradient-9);
      }

      .cls-12 {
        fill: url(#linear-gradient-10);
      }

      .cls-14 {
        opacity: 0.46;
        fill: url(#linear-gradient-11);
      }

      .cls-15 {
        fill: url(#linear-gradient-12);
      }

      .cls-16 {
        fill: url(#linear-gradient-13);
      }

      .cls-17 {
        fill: url(#linear-gradient-14);
      }

      .cls-18 {
        fill: url(#linear-gradient-15);
      }

      .cls-19 {
        fill: url(#linear-gradient-16);
      }

      .cls-20 {
        fill: url(#linear-gradient-17);
      }

      .cls-21 {
        fill: url(#linear-gradient-18);
      }

      .cls-22 {
        fill: url(#linear-gradient-19);
      }

      .cls-23 {
        fill: url(#linear-gradient-20);
      }

      .cls-24 {
        fill: url(#linear-gradient-21);
      }
    </style>
    <clipPath id="clip-path">
      <rect class="cls-1" width="324" height="324"/>
    </clipPath>
    <linearGradient id="linear-gradient" x1="349.77298" y1="46.04248" x2="72.53706" y2="241.80067" gradientUnits="userSpaceOnUse">
      <stop offset="0" stop-color="#0884c2" stop-opacity="0"/>
      <stop offset="0.25761" stop-color="#0884c2" stop-opacity="0.23705"/>
      <stop offset="0.83931" stop-color="#0884c2" stop-opacity="0.83034"/>
      <stop offset="1" stop-color="#0884c2"/>
    </linearGradient>
    <linearGradient id="linear-gradient-2" x1="291.37726" y1="114.80122" x2="278.32907" y2="114.80122" gradientUnits="userSpaceOnUse">
      <stop offset="0" stop-color="#9fdad9" stop-opacity="0"/>
      <stop offset="0.26265" stop-color="#7ad2d2" stop-opacity="0.24198"/>
      <stop offset="0.85587" stop-color="#1ebfc2" stop-opacity="0.84774"/>
      <stop offset="1" stop-color="#07babe"/>
    </linearGradient>
    <linearGradient id="linear-gradient-3" x1="276.41255" y1="142.34679" x2="275.33525" y2="142.34679" xlink:href="#linear-gradient-2"/>
    <linearGradient id="linear-gradient-4" x1="252.99224" y1="142.7393" x2="247.22538" y2="142.7393" xlink:href="#linear-gradient-2"/>
    <linearGradient id="linear-gradient-5" x1="330.00935" y1="156.90709" x2="292.73711" y2="156.90709" xlink:href="#linear-gradient-2"/>
    <linearGradient id="linear-gradient-6" x1="233.51917" y1="226.2033" x2="215.87911" y2="226.2033" xlink:href="#linear-gradient-2"/>
    <linearGradient id="linear-gradient-7" x1="257.91997" y1="120.07707" x2="226.27779" y2="157.9236" xlink:href="#linear-gradient-2"/>
    <linearGradient id="linear-gradient-8" x1="258.29177" y1="149.95508" x2="256.44274" y2="149.95508" xlink:href="#linear-gradient-2"/>
    <linearGradient id="linear-gradient-9" x1="342.94472" y1="47.48886" x2="308.09655" y2="47.48886" xlink:href="#linear-gradient-2"/>
    <linearGradient id="linear-gradient-10" x1="250.84322" y1="84.48055" x2="214.51963" y2="56.70369" xlink:href="#linear-gradient-2"/>
    <linearGradient id="linear-gradient-11" x1="182.55007" y1="145.2213" x2="80.04919" y2="133.41817" xlink:href="#linear-gradient-2"/>
    <linearGradient id="linear-gradient-12" x1="148.53409" y1="136.22808" x2="206.37654" y2="265.87493" xlink:href="#linear-gradient-2"/>
    <linearGradient id="linear-gradient-13" x1="345.41698" y1="226.45098" x2="297.57813" y2="226.45098" xlink:href="#linear-gradient-2"/>
    <linearGradient id="linear-gradient-14" x1="293.46079" y1="44.90786" x2="291.79757" y2="44.90786" xlink:href="#linear-gradient-2"/>
    <linearGradient id="linear-gradient-15" x1="250.50743" y1="114.74869" x2="240.07852" y2="114.74869" xlink:href="#linear-gradient-2"/>
    <linearGradient id="linear-gradient-16" x1="297.08978" y1="208.08706" x2="274.31221" y2="269.67088" xlink:href="#linear-gradient-2"/>
    <linearGradient id="linear-gradient-17" x1="243.05704" y1="-6.50203" x2="249.3436" y2="80.75537" xlink:href="#linear-gradient"/>
    <linearGradient id="linear-gradient-18" x1="113.40579" y1="332.36265" x2="100.69615" y2="191.66106" gradientUnits="userSpaceOnUse">
      <stop offset="0" stop-color="#0884c2" stop-opacity="0"/>
      <stop offset="0.9949" stop-color="#0884c2" stop-opacity="0.2"/>
    </linearGradient>
    <linearGradient id="linear-gradient-19" x1="117.686" y1="306.98238" x2="5.60311" y2="218.58712" gradientUnits="userSpaceOnUse">
      <stop offset="0" stop-color="#be5db3" stop-opacity="0"/>
      <stop offset="0.9949" stop-color="#be5db3" stop-opacity="0.80777"/>
    </linearGradient>
    <linearGradient id="linear-gradient-20" x1="107.76646" y1="177.69454" x2="121.07643" y2="199.13838" xlink:href="#linear-gradient-19"/>
    <linearGradient id="linear-gradient-21" x1="102.07634" y1="161.37877" x2="138.72304" y2="172.81686" xlink:href="#linear-gradient-19"/>
  </defs>
  <title>finalArtboard 5</title>
  <g id="Layer_9" data-name="Layer 9">
    <g class="cls-2">
      <g>
        <path class="cls-3" d="M405.47666,49.9663c-6.2769-10.05024-14.97781-17.42327-24.99624-23.35479-6.867-4.0657-14.06806-7.40048-21.8791-8.8853-25.46339-4.84053-49.90818,7.08341-61.84036,49.74487a15.10154,15.10154,0,0,1-16.44374,10.63314c-3.96949-.607-6.69068-6.65762-4.49313-10.06824a2.44871,2.44871,0,0,1,1.23058-.8281c7.65758-2.63005,12.0271-8.94741,16.38454-15.21492a10.34764,10.34764,0,0,0,1.53714-4.47746c.11479-.898-.464-2.48332-1.11723-2.73877a4.12882,4.12882,0,0,0-3.1169.65123c-1.54764.946-2.78561,2.42743-4.35223,3.32661-3.2808,1.883-6.59948,3.79615-10.66509,4.10041-.04869-.65837-.09558-1.06659-.10657-1.47585-.14055-5.2529-1.1637-6.26306-6.38971-6.26471q-18.279-.00577-36.558-.00268c-5.17492-.00006-10.35007-.03044-15.52451.01476-2.79918.02447-4.44985,1.75217-4.51775,4.57758-.02383.99167-.00378,1.98437-.00378,3.25242a17.36771,17.36771,0,0,1-2.96788-.54342c-4.35769-1.68194-8.6189-3.51745-12.09254-6.87622-.70454-.68125-2.4509-1.23364-3.02672-.82962-5.19491,3.64521,7.13231,18.6616,16.286,22.335a2.45431,2.45431,0,0,1,1.81145,2.86189,25.241,25.241,0,0,0-.01051,2.54244c-.03554,3.42246-1.73988,5.33454-5.07652,5.70554a14.9594,14.9594,0,0,1-16.093-10.80812C158.48926-48.78222,17.66207,65.39952,97.62469,121.29623c6.21452,4.34415,12.73668,8.23084,19.02288,12.47286,5.39075,3.63783,8.28485,7.59987,8.83821,12.41435.05391-.08072.09834-.15826.15442-.23965,0,0,16.3418-1.2711,26.30127,17.3891s-.1989,31.9315-2.53508,35.10022a2.30434,2.30434,0,0,1-1.27093.862c5.08384.42512,8.68782,3.56626,10.41521,8.64272,2.263,6.65078,2.69441,13.538,3.11816,20.48735,3.28158,53.81276,46.08759,43.53593,56.90307,32.23833,5.168-5.39829,8.29145-12.1556,12.06618-18.48589,2.15822-3.6194,4.35865-7.33886,8.25459-9.25771,5.70541-2.81,11.64694-1.10625,15.70492,4.8276,3.77827,5.52489,6.91792,11.496,10.53625,17.13987,15.0307,23.44491,55.17237,19.1503,59.95338-13.52187,1.35822-9.28187,1.87863-18.68881,3.17231-27.98252.78079-5.60969,2.52583-11.28473,8.55094-13.21664,3.295-1.05652,7.06447-.6461,10.62426-.77349,4.40608-.15771,8.84019.07346,13.21956-.33489,6.09571-.56832,11.79115-5.70957,12.53219-11.03678a29.21107,29.21107,0,0,0-1.948-15.16984c-2.45823-6.075-5.15036-12.05737-7.44427-18.1945-2.66229-7.12252-1.0321-13.39168,4.64425-18.27388a56.23407,56.23407,0,0,1,8.08985-5.8239C409.74814,111.00976,424.734,80.80034,405.47666,49.9663ZM218.74434,226.18244c.24453,7.25473-3.59714,11.81668-8.23022,15.66927a22.97942,22.97942,0,0,1-8.41363,4.62736c-6.46548,1.71556-11.20458-.57216-14.88709-6.36635-12.39134-19.497,6.70911-52.601,28.59625-22.853A13.51224,13.51224,0,0,1,218.74434,226.18244Zm13.33981-35.51918c-2.926,6.02774-7.73659,9.28169-13.71018,9.639a17.53639,17.53639,0,0,1-11.46028-4.09352c-11.77284-9.75464-23.1639-19.92941-32.48439-32.22551-5.13985-6.7808-9.66733-13.948-11.02081-22.63383-1.37221-8.80562,2.49659-15.20675,9.37255-20.04032a48.56907,48.56907,0,0,1,16.89918-7.18127c6.45053-1.54613,10.56891.29224,13.82371,6.11852,4.36363,7.81121,7.84892,15.92918,9.3026,24.91533.75455,4.66384,2.8585,8.35542,7.67361,10.68371,8.10324,3.91823,11.89213,11.38631,13.21589,20.17461C234.44968,181.02307,234.34191,186.012,232.08415,190.66326Zm-1.48568-40.75085a32.409,32.409,0,0,1-7.47579-4.22268c-1.37425-.9611-1.366-2.552-.30079-4.04337a11.90582,11.90582,0,0,1,8.853-5.3809C236.98758,135.7872,240.92194,153.57165,230.59847,149.91241Zm5.82266-26.15025a4.64431,4.64431,0,0,1-3.14848,2.29431c-7.3072.54043-13.43863-2.25831-18.4368-7.581a4.59791,4.59791,0,0,1-.2542-5.8973,20.43545,20.43545,0,0,1,14.298-9.123C236.64236,102.22683,238.92648,118.8101,236.42112,123.76216Zm22.42454-20.3516a20.10851,20.10851,0,0,1,14.92762,9.40914,4.59752,4.59752,0,0,1-.5452,5.88052,23.47271,23.47271,0,0,1-17.59718,7.53587c-2.43169.00183-3.87745-1.19813-4.19943-3.74185C250.50744,115.19662,251.99523,102.523,258.84566,103.41056Zm-2.277,32.84441c3.60026.28455,6.35789,2.18571,8.59476,4.965,1.41,1.75186,1.18237,3.33625-.34041,4.927-1.97865,2.067-6.71619,4.2264-9.61594,4.25428C248.86842,150.79444,251.33337,135.841,256.56869,136.255ZM304.5636,230.1651a23.20062,23.20062,0,0,1-3.82342,10.297c-4.9945,7.18591-11.77542,8.59312-19.36258,4.07393a25.85409,25.85409,0,0,1-10.93141-12.05884c-.74374-1.73051-.83392-3.75112-1.223-5.6391-.05025-5.09861,2.16807-9.07389,5.54745-12.43094C293.30132,195.99859,307.396,209.70075,304.5636,230.1651Zm18.318-81.63879c-4.92006,12.08788-13.36425,21.63136-22.46981,30.52435-6.32469,6.17716-13.1217,11.86305-19.822,17.63119a14.96155,14.96155,0,0,1-9.04174,3.59085c-8.61373-.04387-15.76136-6.33914-16.91822-14.01313-1.35756-9.00494.13809-17.40326,5.994-24.50808a20.68672,20.68672,0,0,1,7.23606-5.95862c5.151-2.20914,6.84588-6.397,7.66995-11.25545a70.393,70.393,0,0,1,9.85447-25.21355c3.29551-5.3587,6.94764-6.70514,13.04389-5.21923a50.81006,50.81006,0,0,1,16.6947,7.02386C325.60518,128.208,327.22084,137.86541,322.88165,148.52631Z"/>
        <g>
          <path class="cls-4" d="M282.4533,103.41058c-6.85044-.88752-8.33822,11.78606-7.41419,19.08368.322,2.54372,1.76774,3.74368,4.19943,3.74185.81044-.00061,1.60576-.03874,2.38828-.10836q1.71584-3.47212,3.7575-6.80386c3.204-5.21,6.752-6.61906,12.5487-5.32813a5.284,5.284,0,0,0-.5521-1.176A20.10851,20.10851,0,0,0,282.4533,103.41058Z"/>
          <path class="cls-5" d="M276.95382,138.21819a12.945,12.945,0,0,0-1.81655,8.2572q.22586-.94783.39258-1.93795A62.39219,62.39219,0,0,1,276.95382,138.21819Z"/>
          <path class="cls-6" d="M246.42953,141.64639c-1.06518,1.49141-1.07347,3.08226.30079,4.04337a39.7081,39.7081,0,0,0,5.81263,3.53088c-2.51388-3.27616-.48192-12.23674,3.34672-12.9225a2.36387,2.36387,0,0,0-.60716-.03264A11.90582,11.90582,0,0,0,246.42953,141.64639Z"/>
          <path class="cls-7" d="M338.73054,121.12853a50.81,50.81,0,0,0-16.6947-7.02386c-5.59566-1.3639-9.13078-.33159-12.2224,3.98955a42.73449,42.73449,0,0,1,5.30946,3.03431c10.48228,7.07944,12.09794,16.7369,7.75874,27.39779-4.92006,12.08788-13.36425,21.63136-22.46981,30.52435-5.68343,5.55082-11.74684,10.70568-17.78023,15.87927a17.56824,17.56824,0,0,0,12.52408,5.34271,14.96155,14.96155,0,0,0,9.04174-3.59085c6.70034-5.76814,13.49735-11.454,19.822-17.63113,9.10556-8.893,17.54975-18.43647,22.46981-30.52435C350.82848,137.86543,349.21281,128.208,338.73054,121.12853Z"/>
          <path class="cls-8" d="M239.41729,217.25964c-11.69779-15.8991-22.59739-13.84212-28.32086-5.507a45.859,45.859,0,0,1,4.71323,5.507,13.51224,13.51224,0,0,1,2.93468,8.92276c.22778,6.75859-3.09186,11.17931-7.29291,14.86747,3.58993,5.097,8.15355,7.04857,14.2567,5.42916a17.73957,17.73957,0,0,0,3.12806-1.18221c.59167-1.0456,1.18736-2.08858,1.8019-3.11924,2.15822-3.6194,4.35865-7.33886,8.25459-9.25771a13.13557,13.13557,0,0,1,2.68637-.97532,16.7571,16.7571,0,0,0,.77292-5.76216A13.51224,13.51224,0,0,0,239.41729,217.25964Z"/>
          <path class="cls-9" d="M254.62984,186.25952a32.8823,32.8823,0,0,1,1.272-16.28145c-1.98453-6.11047-5.64759-11.151-11.814-14.13271a12.84263,12.84263,0,0,1-7.23768-8.66816c-.56867,2.50528-2.43271,4.08888-6.25163,2.73523a32.409,32.409,0,0,1-7.47579-4.22268c-1.37425-.9611-1.366-2.552-.30079-4.04337a11.90582,11.90582,0,0,1,8.853-5.3809,3.74473,3.74473,0,0,1,3.161,1.903,75.763,75.763,0,0,0-4.68309-12.09459c-5.949-.35563-11.04789-3.05218-15.317-7.59846a4.34253,4.34253,0,0,1-.94925-4.47435c-.1995.04216-.39463.07773-.59875.12666a55.714,55.714,0,0,0-11.23244,3.8812,19.79055,19.79055,0,0,1,1.44852,2.23733c4.36363,7.81121,7.84892,15.92918,9.3026,24.91533.75455,4.66384,2.8585,8.35542,7.67361,10.68371,8.10324,3.91823,11.89213,11.38631,13.21589,20.17461.75365,5.00306.64588,9.992-1.61188,14.64325a19.54532,19.54532,0,0,1-2.90707,4.41919c.449.37436.894.75318,1.34424,1.12626a17.53639,17.53639,0,0,0,11.46028,4.09352c5.97359-.35728,10.7842-3.61123,13.71018-9.639.05746-.11842.09774-.23947.15243-.35832A15.19077,15.19077,0,0,1,254.62984,186.25952Z"/>
          <path class="cls-10" d="M259.22078,149.50415a14.13383,14.13383,0,0,1-3.27936.84579A3.81861,3.81861,0,0,0,259.22078,149.50415Z"/>
          <path class="cls-11" d="M309.99764,48.75459c1.56661-.89918,2.80458-2.38058,4.35223-3.32661a4.12882,4.12882,0,0,1,3.1169-.65123c.65321.25545,1.232,1.84076,1.11723,2.73877a10.34764,10.34764,0,0,1-1.53714,4.47746c-4.35745,6.26751-8.727,12.58487-16.38454,15.21492a2.44871,2.44871,0,0,0-1.23058.8281c-2.19755,3.41062.52365,9.46124,4.49313,10.06824A15.10154,15.10154,0,0,0,320.3686,67.4711c8.44809-30.20471,23.1714-44.98762,40.08476-49.33543-.61568-.14148-1.22872-.291-1.852-.40944-22.161-4.21273-43.54639,4.28332-56.58745,34.67766A32.09074,32.09074,0,0,0,309.99764,48.75459Z"/>
          <path class="cls-12" d="M209.71665,52.43079A110.98729,110.98729,0,0,1,215.06249,67.344a14.9594,14.9594,0,0,0,16.093,10.80812c3.33663-.371,5.041-2.28308,5.07652-5.70554a25.241,25.241,0,0,1,.01051-2.54244,2.45431,2.45431,0,0,0-1.81145-2.86189c-8.83935-3.54723-20.63357-17.669-16.75569-21.91738-.17639.00134-.3529.00012-.52929.00165-2.79918.02447-4.44985,1.75217-4.51775,4.57758-.02383.99167-.00378,1.98437-.00378,3.25242A18.71961,18.71961,0,0,1,209.71665,52.43079Z"/>
          <g class="cls-13">
            <path class="cls-14" d="M186.57466,239.04047a27.19707,27.19707,0,0,1-2.14249-20.751,52.32451,52.32451,0,0,0-2.27385-10.35163c-1.72739-5.07646-5.33137-8.2176-10.41521-8.64272a2.30434,2.30434,0,0,0,1.27093-.862c2.13078-2.89014,10.761-14.18738,4.70621-30.30984-1.12018-1.35621-2.22264-2.7306-3.29095-4.14a73.33013,73.33013,0,0,1-7.29-11.31993c-8.76779-7.42574-17.89148-6.71948-17.89148-6.71948-.05607.08139-.1005.15893-.15442.23965-.55336-4.81448-3.44746-8.77652-8.83821-12.41435-6.28621-4.242-12.80836-8.12871-19.02288-12.47286C71.08466,86.24124,107.77478,28.26712,150.238,18.5478,100.68143,6.06628,38.21495,79.76672,97.62469,121.29625c6.21452,4.34415,12.73668,8.23084,19.02288,12.47286,5.39075,3.63783,8.28485,7.59987,8.83821,12.41435.05391-.08072.09834-.15826.15442-.23965,0,0,16.3418-1.2711,26.30127,17.3891s-.1989,31.93144-2.53508,35.10016a2.30434,2.30434,0,0,1-1.27093.862c5.08384.42512,8.68782,3.56626,10.41521,8.64272,2.263,6.65078,2.69441,13.538,3.11816,20.48735,2.51028,41.16426,28.148,44.82576,44.90275,39.21606C197.6142,264.12108,189.749,255.64467,186.57466,239.04047Z"/>
            <path class="cls-15" d="M186.57466,239.04047a27.19707,27.19707,0,0,1-2.14249-20.751,52.32451,52.32451,0,0,0-2.27385-10.35163c-1.72739-5.07646-5.33137-8.2176-10.41521-8.64272a2.30434,2.30434,0,0,0,1.27093-.862c2.13078-2.89014,10.761-14.18738,4.70621-30.30984-1.12018-1.35621-2.22264-2.7306-3.29095-4.14a73.33013,73.33013,0,0,1-7.29-11.31993c-8.76779-7.42574-17.89148-6.71948-17.89148-6.71948-.05607.08139-.1005.15893-.15442.23965-.55336-4.81448-3.44746-8.77652-8.83821-12.41435-6.28621-4.242-12.80836-8.12871-19.02288-12.47286C71.08466,86.24124,107.77478,28.26712,150.238,18.5478,100.68143,6.06628,38.21495,79.76672,97.62469,121.29625c6.21452,4.34415,12.73668,8.23084,19.02288,12.47286,5.39075,3.63783,8.28485,7.59987,8.83821,12.41435.05391-.08072.09834-.15826.15442-.23965,0,0,16.3418-1.2711,26.30127,17.3891s-.1989,31.93144-2.53508,35.10016a2.30434,2.30434,0,0,1-1.27093.862c5.08384.42512,8.68782,3.56626,10.41521,8.64272,2.263,6.65078,2.69441,13.538,3.11816,20.48735,2.51028,41.16426,28.148,44.82576,44.90275,39.21606C197.6142,264.12108,189.749,255.64467,186.57466,239.04047Z"/>
          </g>
          <path class="cls-16" d="M324.34782,240.46209a20.65855,20.65855,0,0,0,1.10643-1.80024c.9-6.91484,1.43387-13.8844,2.24221-20.814-2.92568-11.72663-13.24489-16.98137-26.24669-6.22487,2.90521,4.43585,4.15374,11.02885,3.11384,18.54208a23.20062,23.20062,0,0,1-3.82342,10.297c-.15093.2172-.30865.41213-.46283.61877a29.90493,29.90493,0,0,0,4.70789,3.45516C312.5724,249.05521,319.35331,247.648,324.34782,240.46209Z"/>
          <path class="cls-17" d="M292.83627,45.11444c.53277.00018,1.01127.01446,1.46017.039a1.10849,1.10849,0,0,0-.43731-.37668,3.59319,3.59319,0,0,0-2.5125.33757Q292.09148,45.1145,292.83627,45.11444Z"/>
          <path class="cls-18" d="M238.18928,112.57818a5.34865,5.34865,0,0,0-.93832,2.89063q.04422.437.07409.869a4.30861,4.30861,0,0,0,1.11844,2.13769c4.42937,4.717,9.75078,7.44618,15.9898,7.63135-1.70362-.3552-2.7374-1.5238-3.00181-3.61257-.76337-6.029.12284-15.71991,4.31572-18.40914a4.71542,4.71542,0,0,0-3.25991-.62994A20.43545,20.43545,0,0,0,238.18928,112.57818Z"/>
          <path class="cls-19" d="M288.74149,254.88735c-1.98706-3.09941-3.83134-6.29625-5.71471-9.4649-.54568-.26711-1.09454-.55605-1.64917-.88643a25.85409,25.85409,0,0,1-10.93141-12.05884c-.08573-.19951-.1609-.40383-.23072-.61041a11.53616,11.53616,0,0,0-7.71516,1.05311c-2.96518,1.46041-4.94677,3.965-6.67657,6.67354,3.24808,4.99446,6.091,10.27281,9.31011,15.29393,8.69082,13.556,25.76958,17.81746,39.56117,12.70219A31.77221,31.77221,0,0,1,288.74149,254.88735Z"/>
        </g>
        <path class="cls-20" d="M197.62639,17.65428c3.0924,4.31578,6.592,8.42369,11.58936,10.3487,2.83352,1.09148,3.626,2.4652,3.46619,5.32508-.22118,3.95887,1.41778,5.45759,5.35671,5.45967q20.403.01071,40.806.00305c4.089-.00024,8.17834.0349,12.26658-.02154,2.80146-.03862,4.435-1.76223,4.49577-4.58874a13.51543,13.51543,0,0,1,.06412-3.0373c.21914-.83713.77358-1.99737,1.445-2.23208a25.00719,25.00719,0,0,0,11.40175-8.62332,63.591,63.591,0,0,0,6.19327-9.715c.519-.9913.56717-3.39226-.622-4.15172-1.096-.69992-2.61913.48-3.71595,1.10527-2.80765,1.60062-5.41074,3.582-8.25591,5.10117a45.98682,45.98682,0,0,1-6.36516,2.29236c-.07006-1.31075-.12614-1.97583-.13785-2.6417-.07253-4.121-1.32965-5.38987-5.41543-5.39957-4.92342-.01178-9.84684-.00323-14.77026-.00305q-19.026.00055-38.05219.009c-3.21728.00476-4.69834,1.54058-4.74847,4.79355-.014.91077-.00216,1.822-.00216,2.93413a11.3013,11.3013,0,0,1-2.25728-.28309c-4.46323-1.63436-8.7768-3.51831-12.45522-6.72564-.91077-.79405-2.57836-1.93947-3.69223-1.24517-1.25106.77984-1.07839,3.17829-.61478,4.36172A32.69486,32.69486,0,0,0,197.62639,17.65428Z"/>
        <path class="cls-21" d="M82.46415,181.693c-21.94847,15.77624-17.17064,36.75041-13.44324,43.316,4.91826,8.6632,10.1644,11.9952,13.77112,26.656s23.27975,195.92163,24.2634,201.91923,40.65759-.3332,40.65759-.3332c-20.94319-178.06578-24.20747-182.08464-12.1317-193.58923C161.66293,234.81381,102.29421,176.65505,82.46415,181.693Z"/>
        <path class="cls-22" d="M94.42933,183.70352c.15742,5.89535,2.81467,99.96447,13.60974,161.59064,11.14809,63.64123,12.4596,71.30479,12.4596,71.30479s7.54135,7.33044,8.525-2.66556c0,0-25.33665-138.01035-.336-201.3827C118.81108,199.63629,105.27153,188.38457,94.42933,183.70352Z"/>
        <path class="cls-1" d="M156.21229,180.52547a31.93683,31.93683,0,0,1-6.80589,17.90763c-1.7642,2.3929-6.73457.16-8.34086-4.52669"/>
        <path class="cls-1" d="M156.21229,180.52547a33.21236,33.21236,0,0,0-4.27081-17.19259,38.58376,38.58376,0,0,0-5.03119-7.34649"/>
        <path class="cls-23" d="M120.19668,184.65854c-.02534-.04088-.049-.08291-.07409-.124-.2883-.47771-.55949-.96562-.80912-1.46822q-.21145-.42088-.40411-.85238c-.08417-.19121-.17135-.3801-.24988-.57429-.20052-.49108-.37914-.99313-.54136-1.503-.04-.12666-.07781-.25393-.11545-.38168-.16528-.55758-.31267-1.12284-.43011-1.7-.01309-.06406-.02179-.12946-.03428-.19371-.05794-.29962-.11545-.59937-.16-.90375-2.75115,9.13075-8.84854,11.54116-13.69637,11.89356A105.36091,105.36091,0,0,1,122.015,204.66757c-.09084-9.79015,3.86508-12.33277,5.47276-12.937A20.30524,20.30524,0,0,1,120.19668,184.65854Z"/>
        <path class="cls-1" d="M47.61145,137.19948c.01525-.0119.0296-.025.04485-.03679"/>
        <path class="cls-24" d="M151.94148,163.3329c-9.95947-18.6602-26.30127-17.38916-26.30127-17.38916-3.35483,4.87037-2.83322,8.4855-.95645,11.16521a23.37,23.37,0,0,0-7.532,16.78168,20.25141,20.25141,0,0,0,20.08657,20.41231,20.80542,20.80542,0,0,0,3.83254-.36491c-.01165-.03386-.01747-.07163-.02876-.10573,1.57928,4.73657,6.591,7.00617,8.36434,4.60082C151.74257,195.26441,161.90095,181.993,151.94148,163.3329Z"/>
      </g>
    </g>
  </g>
</svg>
