<svg id="Orthofix" xmlns="http://www.w3.org/2000/svg" width="134" height="42.46" viewBox="0 0 134 42.46">
  <title>orthofix</title>
  <path d="M54.53,47.58a11.52,11.52,0,0,0,3.16-.79,5.87,5.87,0,0,0,3.7-4.3,9.37,9.37,0,0,0,.16-2.91,6,6,0,0,0-3.37-5.17,10,10,0,0,0-2.91-.89,22.37,22.37,0,0,0-6.17-.12,11.51,11.51,0,0,0-3.29.84,5.83,5.83,0,0,0-3.6,4.3,9.43,9.43,0,0,0,0,3.87A5.43,5.43,0,0,0,44.5,46a9.37,9.37,0,0,0,2,1,16.43,16.43,0,0,0,5.21.76C52.68,47.71,53.61,47.68,54.53,47.58Zm-8-8.26a4,4,0,0,1,3.22-3.43,8.41,8.41,0,0,1,4,0A3.9,3.9,0,0,1,57,39.32a7,7,0,0,1-.09,2.76,3.87,3.87,0,0,1-2.84,3,8.07,8.07,0,0,1-4.53,0,4,4,0,0,1-3-3.67c0-.3,0-.6-.06-1S46.49,39.7,46.56,39.31Zm80.85,8.27a11.24,11.24,0,0,0,3.42-.89,5.85,5.85,0,0,0,3.47-4.17,9.42,9.42,0,0,0,.16-3,5.86,5.86,0,0,0-3.84-5.33,12.66,12.66,0,0,0-2.4-.68A21,21,0,0,0,122,33.4a11,11,0,0,0-3.54,1,5.8,5.8,0,0,0-3.27,3.93,9.4,9.4,0,0,0-.16,3.53,5.91,5.91,0,0,0,1.73,3.64A7.26,7.26,0,0,0,120,47.18a19,19,0,0,0,4.76.6C125.61,47.71,126.52,47.68,127.41,47.58ZM120.73,36.9a4.61,4.61,0,0,1,2.36-1.11,8.46,8.46,0,0,1,3.52.06A4,4,0,0,1,130,39.72a9,9,0,0,1-.1,2.08,3.84,3.84,0,0,1-3.07,3.29,8.12,8.12,0,0,1-4.26,0,4,4,0,0,1-3.11-3.68c0-.32,0-.65-.05-.89A4.66,4.66,0,0,1,120.73,36.9ZM76.67,41.43c2-.59,3.3-1.91,3-4.34a3.3,3.3,0,0,0-1.89-2.73,7.54,7.54,0,0,0-2.47-.69,33.09,33.09,0,0,0-5.5-.11,10.82,10.82,0,0,0-3.87.78,4.72,4.72,0,0,0-3,3.58,13,13,0,0,0-.25,2.28c0,2.35,0,4.69,0,7a.65.65,0,0,0,.07.19h4.11V42h4.87L76,47.43h4.6l-4.77-5.79Zm-8.11-4.77a4.25,4.25,0,0,1,2-.6c1.13,0,2.26.06,3.39.11a2,2,0,0,1,.47.11c.84.25,1.12.58,1.14,1.35a1.43,1.43,0,0,1-1.1,1.62,4.68,4.68,0,0,1-1.29.24c-2,0-4,0-6,0a1.57,1.57,0,0,1-.29-.06A3.28,3.28,0,0,1,68.56,36.66Zm43.26,10.79,2,0V33.57h-4V39.1h-7.51V33.56H98.15V47.45c.72,0,1.39,0,2.06,0a11.75,11.75,0,0,0,2.06-.07V41.65h7.49v5.8Zm57.46-7.15,6.25-6.75h-4.73c-1.35,1.44-2.61,2.93-4,4.38l-4-4.38H158l6.55,7-6.77,6.93h4.84l4.33-4.8,4.08,4.8H176ZM151,33.53c-2.48,0-5,0-7.45,0a15.06,15.06,0,0,0-4.06.53A4.75,4.75,0,0,0,136,37.68a14,14,0,0,0-.4,2.88c-.06,2.13,0,4.27,0,6.41a3.54,3.54,0,0,0,.05.44h4.13V41.74h9.42V39.37h-9.4a3,3,0,0,1,2.51-3.16,13.35,13.35,0,0,1,2.55-.27c1.95,0,3.9,0,5.85,0,.24,0,.49,0,.74,0V33.56ZM90.67,36H96.9a6.84,6.84,0,0,0,0-2.38H80.16V36h6.22V47.42h4.29Zm62,11.42h4.15c.13-1.18.08-13.37-.05-13.87h-4.14C152.53,34.75,152.58,46.94,152.71,47.41Zm-51.35-39,.77-.31c1.89-.71,3.79-1.37,5.66-2.13A8,8,0,0,1,115.88,7a13.57,13.57,0,0,1,4.92,6.67,14.07,14.07,0,0,1,.91,4.9,10.73,10.73,0,0,1-2.06,6.79,6.94,6.94,0,0,1-3.06,2.34l-6.89,2.6a1.54,1.54,0,0,1-.3,0,2.58,2.58,0,0,1,.21-.2,8.6,8.6,0,0,0,3.52-5.87,14.41,14.41,0,0,0-4.19-13,9.23,9.23,0,0,0-5.05-2.76A22.41,22.41,0,0,0,101.36,8.42ZM111,26.53a13.87,13.87,0,0,1-5.42-7,13.75,13.75,0,0,1-.37-8.87l-8.24,3.09c-1.8,4.66.18,12.44,5.74,15.9Z" transform="translate(-42 -5.32)"/>
</svg>
