<svg id="Smith_and_Nephew" data-name="Smith and Nephew" xmlns="http://www.w3.org/2000/svg" width="180" height="29.67" viewBox="0 0 180 29.67">
  <title>smith&amp;amp;newphew</title>
  <path d="M115.41,36.06c-.47.36-.88.69-1.32,1a5.63,5.63,0,0,1-5.35.77,5,5,0,0,1-1.83-8.09,9.06,9.06,0,0,1,.89-.84c.3-.25.63-.45,1-.71-.2-.25-.38-.5-.58-.73a3.63,3.63,0,0,1,1.62-5.79,5.37,5.37,0,0,1,4.37.22,3.39,3.39,0,0,1,1.49,4.86,6,6,0,0,1-2.22,2.17l2.05,2.46c.45-.52.85-1,1.31-1.49a1.43,1.43,0,0,1,1.7-.21,1.34,1.34,0,0,1,.73,1.44,4.77,4.77,0,0,1-.52,1.16,5.88,5.88,0,0,1-.57.75l-.63.76,1.28,1.55a1.56,1.56,0,1,1-2.4,2Zm-1.92-2.3-3-3.6a3.12,3.12,0,0,0-1.8,3A1.94,1.94,0,0,0,110,35C111.44,35.49,112.46,34.72,113.49,33.76Zm-1.71-6.64a14.22,14.22,0,0,0,1.33-1.45,1.08,1.08,0,0,0-.33-1.43,1.43,1.43,0,0,0-1.8,0,1,1,0,0,0-.31,1.38A16.88,16.88,0,0,0,111.77,27.12Zm-49.7-1.47a1.65,1.65,0,0,0-1.18,1.69q0,4.44,0,8.87A1.67,1.67,0,0,0,62.52,38a1.7,1.7,0,0,0,1.68-1.83c0-1.56,0-3.12,0-4.69a14.59,14.59,0,0,1,.06-1.89,1.59,1.59,0,0,1,2.44-1.1,1.7,1.7,0,0,1,.78,1.57c0,2.08,0,4.17,0,6.25a1.65,1.65,0,0,0,2.09,1.62,1.63,1.63,0,0,0,1.22-1.76q0-3.07,0-6.14a1.67,1.67,0,0,1,.66-1.46,1.55,1.55,0,0,1,1.63-.17A1.59,1.59,0,0,1,74,30c0,2.14,0,4.28,0,6.42A1.66,1.66,0,0,0,75.7,38a1.62,1.62,0,0,0,1.65-1.5c0-2.51.12-5-.07-7.53-.22-2.86-2.74-3.83-4.75-3.54a4.77,4.77,0,0,0-2.59,1.27c-1.61-1.65-4.44-1.8-5.87-.22A1.65,1.65,0,0,0,62.07,25.65Zm87.09,1.2c1.61-2.07,5-1.83,6.73.13a7.53,7.53,0,0,1,.07,9.5,4.94,4.94,0,0,1-5.22,1.44A10.62,10.62,0,0,1,149.1,37c0,.21,0,.51,0,.81,0,1.06,0,2.12,0,3.18a1.65,1.65,0,0,1-1.62,1.86A1.62,1.62,0,0,1,145.83,41q0-6.72,0-13.44c0-1.06.45-1.75,1.25-1.93A1.77,1.77,0,0,1,149.16,26.85ZM149,31.68a14.61,14.61,0,0,0,.86,2.44,2.14,2.14,0,0,0,3.79,0,4.54,4.54,0,0,0,0-4.84,2.15,2.15,0,0,0-3.74,0A13.23,13.23,0,0,0,149,31.68ZM191.16,31l1.7,5.77a1.54,1.54,0,0,0,1.5,1.26A1.67,1.67,0,0,0,196,36.81c.18-.53.34-1.06.51-1.59.81-2.49,1.63-5,2.43-7.46a1.65,1.65,0,0,0-1.12-2.11,1.51,1.51,0,0,0-2,1.2c-.32,1.2-.63,2.4-.94,3.61l-.6,2.35a2.75,2.75,0,0,1-.14-.3l-1.58-5.63a1.55,1.55,0,0,0-3,0c-.19.66-.37,1.32-.56,2l-1.12,4c-.09-.31-.15-.5-.2-.68-.46-1.78-.91-3.56-1.38-5.33a1.41,1.41,0,0,0-1.36-1.19,1.66,1.66,0,0,0-1.71,2.27c.17.55.36,1.09.54,1.64q1.19,3.65,2.38,7.3A1.68,1.68,0,0,0,187.73,38a1.51,1.51,0,0,0,1.47-1.22c.31-1,.6-2.06.9-3.1l.91-3.12C191.08,30.8,191.13,30.9,191.16,31Zm-28.94-5.2c0-1.36,0-2.71,0-4.07a1.64,1.64,0,0,0-2.94-.83,2.94,2.94,0,0,0-.37,1.41c0,4.56,0,9.11,0,13.67a4.45,4.45,0,0,0,0,.56,1.66,1.66,0,0,0,3.29,0,5.09,5.09,0,0,0,0-.67c0-1.79,0-3.57,0-5.36a2,2,0,0,1,2-2.26c1.29,0,2.07.75,2.15,2.17,0,.2,0,.41,0,.61,0,1.77,0,3.53,0,5.3a1.62,1.62,0,0,0,1.17,1.58,1.69,1.69,0,0,0,2.18-1.75q0-3.18,0-6.36a5.32,5.32,0,0,0-.16-1.21c-.76-3.09-4.7-4.28-7.35-2.11C162.23,26.2,162.23,26,162.23,25.8Zm-65.65.08c0-1.38,0-2.75,0-4.13a1.57,1.57,0,0,0-1.19-1.45,1.54,1.54,0,0,0-1.77.62,3,3,0,0,0-.35,1.42c0,4.54,0,9.08,0,13.61a4.92,4.92,0,0,0,0,.5,1.66,1.66,0,0,0,3.31.05,7.38,7.38,0,0,0,0-.83c0-1.86,0-3.72.06-5.58a1.86,1.86,0,0,1,1.93-1.84A1.91,1.91,0,0,1,100.67,30a5.37,5.37,0,0,1,.07.94c0,1.79,0,3.57,0,5.36a2.08,2.08,0,0,0,.34,1.08,1.55,1.55,0,0,0,1.83.57,1.68,1.68,0,0,0,1.16-1.66c0-2.18,0-4.35,0-6.53a4.17,4.17,0,0,0-1.56-3.38,4.94,4.94,0,0,0-6,.1C96.58,26.23,96.58,26.06,96.58,25.88Zm77.89,7a2.63,2.63,0,0,0,2.39,2.33,4.41,4.41,0,0,0,2.82-.66,9.27,9.27,0,0,1,1-.52,1.26,1.26,0,0,1,1.54.38,1.35,1.35,0,0,1,.13,1.61,2.4,2.4,0,0,1-.63.69,7.29,7.29,0,0,1-7.5.76c-2.88-1.35-4.1-5.22-2.72-8.33a5.74,5.74,0,0,1,5.27-3.75,6,6,0,0,1,6,5.12c0,.26.08.52.09.77.06,1.09-.42,1.59-1.5,1.6h-6.84Zm0-2.29h5a2.5,2.5,0,0,0-5,0ZM136.28,32.9a2.63,2.63,0,0,0,2.39,2.33,4.35,4.35,0,0,0,2.77-.63,9.72,9.72,0,0,1,1.08-.57,1.26,1.26,0,0,1,1.46.35,1.32,1.32,0,0,1,.21,1.55,2.78,2.78,0,0,1-.81.9,7.3,7.3,0,0,1-7.16.74c-2.4-1.06-3.38-3.11-3.45-5.65a6.29,6.29,0,0,1,4.54-6.34,5.9,5.9,0,0,1,7.21,4.89,4.64,4.64,0,0,1,.09,1.11c-.06.94-.49,1.31-1.44,1.31h-6.9Zm0-2.29h5a2.49,2.49,0,0,0-5,0Zm-13.62-5a1.66,1.66,0,0,0-1.89,1.71c0,3,0,6,0,9a2,2,0,0,0,.31,1,1.6,1.6,0,0,0,1.86.64,1.67,1.67,0,0,0,1.18-1.65c0-2,0-4,0-6a2.06,2.06,0,1,1,4.12.07c0,1.93,0,3.87,0,5.8a1.74,1.74,0,0,0,1.7,1.84,1.7,1.7,0,0,0,1.67-1.85c0-2.25,0-4.5,0-6.75a3.87,3.87,0,0,0-1.37-2.94,5,5,0,0,0-6.41.17C123.55,26.1,123.25,25.67,122.62,25.61ZM58.24,37.17A3.41,3.41,0,0,0,58,31.33a11.29,11.29,0,0,0-2.08-.78c-.76-.24-1.55-.39-2.31-.62-.42-.12-.84-.35-.8-.87s.49-.76,1-.84a3,3,0,0,1,2.81.82,2,2,0,0,0,.44.34,1.55,1.55,0,0,0,1.85-.22A1.41,1.41,0,0,0,59,27.33a3.65,3.65,0,0,0-1.08-1,6.79,6.79,0,0,0-6.57-.19,3.51,3.51,0,0,0-1.63,4.4,3.27,3.27,0,0,0,2.07,1.83c1.15.41,2.34.72,3.5,1.11.46.16,1,.32,1,1,0,.47-.49.8-1.2.88l-.28,0A3.82,3.82,0,0,1,51.58,34,1.27,1.27,0,0,0,50,33.71,1.44,1.44,0,0,0,49.14,35a2,2,0,0,0,1,1.76,7.6,7.6,0,0,0,4.25,1.38A6.69,6.69,0,0,0,58.24,37.17Zm28-7.84c0,1.9,0,3.79,0,5.69,0,2.09,1.42,3.14,3.41,3A1.45,1.45,0,0,0,91,36.68,1.47,1.47,0,0,0,90,35.16c-.35-.1-.42-.26-.42-.58,0-1.8,0-3.61,0-5.41,0-.16,0-.32,0-.51h1a1.45,1.45,0,1,0,.11-2.9c-.38,0-.77,0-1.2,0,0-.81,0-1.55,0-2.29a2.38,2.38,0,0,0-.38-1.12,1.56,1.56,0,0,0-1.8-.52,1.6,1.6,0,0,0-1.13,1.5c0,.79,0,1.59,0,2.37-1.77.24-2.25.6-2.22,1.6s.53,1.27,2.22,1.41Zm-6.45-.17q0,3.4,0,6.81a3.42,3.42,0,0,0,.08.77,1.65,1.65,0,0,0,3.26-.33q0-4.6,0-9.2a1.57,1.57,0,0,0-1.61-1.58q-1,0-2,0a1.39,1.39,0,0,0-1.36,1.29,1.42,1.42,0,0,0,1.15,1.54l.42.09C79.76,28.75,79.76,28.95,79.76,29.15Zm1.72-8.57a1.94,1.94,0,0,0-1.95,1.87,2,2,0,0,0,2,1.95,1.94,1.94,0,0,0,1.87-2A1.87,1.87,0,0,0,81.48,20.58ZM37.07,40.87a5.26,5.26,0,0,0,2.33,1.67,1.72,1.72,0,0,0,2.4-1.22A4.63,4.63,0,0,0,42,39.89,12.92,12.92,0,0,0,38.84,32,5.39,5.39,0,0,0,36,30,1.6,1.6,0,0,0,34,31a11.17,11.17,0,0,0-.38,1.58A13.75,13.75,0,0,0,37.07,40.87ZM30.79,26.82a1.25,1.25,0,0,0,.48-2.24,6.11,6.11,0,0,0-1.56-1.15A14.36,14.36,0,0,0,22,21.85a6.78,6.78,0,0,0-2.09.51,1.24,1.24,0,0,0-.42,2.19,5.74,5.74,0,0,0,1.41,1.06,16.84,16.84,0,0,0,6.87,1.86A23.64,23.64,0,0,0,30.79,26.82Zm-7.6,9.69a19,19,0,0,0,6.93-4.43,7.64,7.64,0,0,0,1.4-2c.38-.75,0-1.23-.82-1.24a3.81,3.81,0,0,0-1,.09,17.55,17.55,0,0,0-7.51,4.4,8.67,8.67,0,0,0-1.62,2.09c-.49.88-.08,1.43,1.2,1.42A11.63,11.63,0,0,0,23.19,36.51ZM33.67,23.74a.88.88,0,0,0,1.45.57,2.91,2.91,0,0,0,.71-.61,15.33,15.33,0,0,0,3.08-6.82,6,6,0,0,0,0-3,.82.82,0,0,0-1.31-.52,3,3,0,0,0-.89.74,15.91,15.91,0,0,0-3.22,8.39A11.6,11.6,0,0,0,33.67,23.74Zm5.55-.68a5,5,0,0,0-1.39,1,1,1,0,0,0,.34,1.72,3.16,3.16,0,0,0,.62.23,7.42,7.42,0,0,0,4.06-.21,5.24,5.24,0,0,0,2.5-1.38A1,1,0,0,0,45,22.61a15.51,15.51,0,0,0-2-.5A10.25,10.25,0,0,0,39.22,23.06Z" transform="translate(-19 -13.16)"/>
</svg>
